<?xml version="1.0" encoding="UTF-8" standalone="no"?>
<svg
   xmlns:dc="http://purl.org/dc/elements/1.1/"
   xmlns:cc="http://creativecommons.org/ns#"
   xmlns:rdf="http://www.w3.org/1999/02/22-rdf-syntax-ns#"
   xmlns:svg="http://www.w3.org/2000/svg"
   xmlns="http://www.w3.org/2000/svg"
   xmlns:sodipodi="http://sodipodi.sourceforge.net/DTD/sodipodi-0.dtd"
   xmlns:inkscape="http://www.inkscape.org/namespaces/inkscape"
   viewBox="0 0 512.0 512.0"
   version="1.1"
   id="svg10"
   sodipodi:docname="item_streamstone.svg"
   inkscape:version="0.92.4 (5da689c313, 2019-01-14)">
  <metadata
     id="metadata16">
    <rdf:RDF>
      <cc:Work
         rdf:about="">
        <dc:format>image/svg+xml</dc:format>
        <dc:type
           rdf:resource="http://purl.org/dc/dcmitype/StillImage" />
      </cc:Work>
    </rdf:RDF>
  </metadata>
  <defs
     id="defs14" />
  <sodipodi:namedview
     pagecolor="#ffffff"
     bordercolor="#666666"
     borderopacity="1"
     objecttolerance="10"
     gridtolerance="10"
     guidetolerance="10"
     inkscape:pageopacity="0"
     inkscape:pageshadow="2"
     inkscape:window-width="640"
     inkscape:window-height="480"
     id="namedview12"
     showgrid="false"
     inkscape:zoom="0.4609375"
     inkscape:cx="256"
     inkscape:cy="256"
     inkscape:window-x="2562"
     inkscape:window-y="217"
     inkscape:window-maximized="0"
     inkscape:current-layer="svg10" />
  <path
     style="fill:#000000"
     inkscape:connector-curvature="0"
     id="path2"
     d="m 125.02,172.29 141.28,-106.5 132,107 -64.38,210.18 70.05,-88.54 51.94,70.79 v 22.15 l -113.32,48.93 -46.2,-5.9 34.68,-43.84 -82.53,39.67 -16.7,-9.53 2.46,33.65 -147.98,-21.47 v -77.6 l 53.08,-39.35 h 27.71 L 125.02,172.3 Z m 20.14,62.19 v 32.34 h -25.85 v 29.05 H 86.96 v -29.05 h -28.1 v -32.34 h 28.1 v -24.86 h 32.35 v 24.86 z M 442.3,97.24 v 36.05 h -23.2 v 36.48 H 383.05 V 133.29 H 344.78 V 97.24 h 38.27 V 51 h 36.05 v 46.24 z" />
  <path
     style="fill:#ffffff"
     inkscape:connector-curvature="0"
     id="path4"
     d="m 270.81,309.6 v 52.9 l -21.01,40.57 -48.1,-40.56 -55.22,-183.2 119.4,-90.01 111.05,90 -59.15,193.1 -46.97,22.58 43.64,-105.8 h -31.58 v -49.42 l 75.28,-49.67 -77.96,35.63 h -17.63 l 3.32,-118.08 -91.76,78.05 46.24,146.7 z m 51.24,-54.77 a 4.32,4.32 0 1 0 0,-8.64 4.32,4.32 0 0 0 0,8.64 z M 219.58,243.72 a 4.325,4.325 0 1 1 0,-8.65 4.325,4.325 0 0 1 0,8.65 z m -5.03,183.8 -108.48,-15.74 v -50.55 l 39.85,-29.54 h 17.26 l 51.37,68.4 z m 116.7,-11.34 72.16,-91.2 33.97,46.3 v 3.92 l -97.48,42.09 -8.66,-1.1 z m 77.84,-308.94 h 23.2 v 16.05 h -23.2 v 36.48 h -16.05 v -36.48 h -38.27 v -16.05 h 38.27 V 61 h 16.05 z M 109.3,244.48 h 25.85 v 12.34 H 109.3 v 29.05 H 96.96 v -29.05 h -28.1 v -12.34 h 28.1 v -24.86 h 12.35 v 24.86 z" />
</svg>
