<?xml version="1.0" encoding="UTF-8" standalone="no"?>
<svg
   xmlns:dc="http://purl.org/dc/elements/1.1/"
   xmlns:cc="http://creativecommons.org/ns#"
   xmlns:rdf="http://www.w3.org/1999/02/22-rdf-syntax-ns#"
   xmlns:svg="http://www.w3.org/2000/svg"
   xmlns="http://www.w3.org/2000/svg"
   xmlns:sodipodi="http://sodipodi.sourceforge.net/DTD/sodipodi-0.dtd"
   xmlns:inkscape="http://www.inkscape.org/namespaces/inkscape"
   viewBox="0 0 512.0 512.0"
   version="1.1"
   id="svg12"
   sodipodi:docname="item_bone.svg"
   inkscape:version="0.92.4 (5da689c313, 2019-01-14)">
  <metadata
     id="metadata18">
    <rdf:RDF>
      <cc:Work
         rdf:about="">
        <dc:format>image/svg+xml</dc:format>
        <dc:type
           rdf:resource="http://purl.org/dc/dcmitype/StillImage" />
      </cc:Work>
    </rdf:RDF>
  </metadata>
  <defs
     id="defs16" />
  <sodipodi:namedview
     pagecolor="#ffffff"
     bordercolor="#666666"
     borderopacity="1"
     objecttolerance="10"
     gridtolerance="10"
     guidetolerance="10"
     inkscape:pageopacity="0"
     inkscape:pageshadow="2"
     inkscape:window-width="1666"
     inkscape:window-height="1091"
     id="namedview14"
     showgrid="false"
     inkscape:zoom="1.3037281"
     inkscape:cx="265.96794"
     inkscape:cy="255.17298"
     inkscape:window-x="2836"
     inkscape:window-y="74"
     inkscape:window-maximized="0"
     inkscape:current-layer="svg12" />
  <path
     style="fill:#000000"
     inkscape:connector-curvature="0"
     id="path2"
     d="m 279.56271,152.57627 h 122.84 a 36.6,36.6 0 0 1 36.63,36.55 v 186.94 c 0,9.5 -3.46,17.97 -9.42,24.47 v 58.04 H 95.752712 v -58.04 a 36.38,36.38 0 0 1 -9.42,-24.47 v -186.94 a 36.6,36.6 0 0 1 36.629998,-36.56 h 7.95 V 59.026271 h 94.62 l 96.15,-0.45 v 42.219999 h -9.9 v 34.14 h -32.22 z m -54.03,0 v -51.33 h -8.38 v 34.13 h -32.2 v 17.2 z m 11.15,137.42 c 23.02,3.7 38.04,19.15 38.04,46.9 v 49.58 c 0,16.44 -9.7,27.43 -25.66,27.43 h -89.96 c -20.9,0 -39.5,-2.68 -53.65,-8.23 -18.769998,-7.37 -31.579998,-20.24 -31.579998,-38.15 -0.07,-13.05 -0.11,-23.25 -0.11,-30.63 0,-26.3 8.8,-46.96 25.1,-60.88 13.749998,-11.74 31.839998,-17.83 51.729998,-18.85 28.36,-1.46 48.93,6.22 63.07,20.63 a 67.22,67.22 0 0 1 8.9,11.24 80.11,80.11 0 0 1 14.12,0.96 z" />
  <path
     style="fill:#ffffff"
     inkscape:connector-curvature="0"
     id="path4"
     d="m 367.12271,294.57627 h -38.11 v -126.39 h 38.75 z m -56.11,0 h -37.04 v -126.39 h 37.04 z m -133.25,-69 v 33.53 a 197.47,197.47 0 0 0 -26.66,-1.75 82.3,82.3 0 0 0 -25.43,4.2 l -23.8,0.27 v -36.25 z m 33.2,-18 h -4.13 l -32.42,-39.39 h 36.56 v 39.39 z m -109.1,0 v -18.49 c 0,-11.54 9.35,-20.9 20.88,-20.9 h 28.36 l 32.42,39.39 z m 127.1,81.64 v -121.04 h 27 v 129.32 c -5.57,-3.79 -12.26,-6.28 -19.82,-7.5 a 71.18,71.18 0 0 0 -7.17,-0.8 z m 172.44,-121.04 a 20.89,20.89 0 0 1 20.87,20.9 v 23.7 l -36.5,0.05 v -44.65 z m -11.1,62.77 31.97,-0.17 v 29.04 h -31.97 z m 0,46.87 h 31.97 v 32.25 h -31.97 z m -0.27,50.25 h 32.24 v 48.06 c 0,4.54 -1.45,8.75 -3.9,12.18 l -44.87,-46.63 z m -30.46,25.1 42.2,43.85 h -129.22 c 1,-3.15 1.52,-6.67 1.52,-10.48 v -12.33 h 59.93 l 25.56,-21.05 z m -101.15,-16.24 v 49.6 c 0,8.46 -3.35,11.77 -9.92,11.77 h -89.72 c -36.28,0 -69.349998,-8.8 -69.349998,-30.72 l -0.1,-30.65 c 0,-46.74 31.539998,-62.56 61.769998,-64.12 53.04,-2.73 59.1,32.06 63.07,32.06 12.77,-0.07 44.24,-3.9 44.24,32.06 z m -151.66,-31.71 v 33.83 h 34.4 v -33.83 z m 39.56,-165.6 V 74.606271 h 64.57 v 10.9 h -42 v 21.619999 h 32.12 v 12.54 h -32.12 v 19.97 h -22.57 z m 94.35,-0.44 V 74.146271 h 64.57 v 10.9 h -42 v 21.609999 h 32.12 v 12.54 h -32.12 v 19.98 z m 147.15,280.84 h 25.05 v 23 h -25.05 z m -55.31,0 h 25.05 v 23 h -25.05 z m -55.31,0 h 25.04 v 23 h -25.04 z m -55.32,0 h 25.05 v 23 h -25.05 z m -55.31,0 h 25.05 v 23 h -25.06 v -23 z m -30.27,-9.28 v 32.27 h -25.04 v -36.18 c 7.16,2.52 15.5,3.82 25.04,3.91 z" />
  <path
     style="fill:#000000"
     inkscape:connector-curvature="0"
     id="path8"
     d="m 128.13271,355.33627 h 33.72 l 13.82,-10.04 16.57,10.04 17.51,-10.04 17.28,10.04 h 33.34 v 13.31 h -33.34 l -17.28,-9.33 -17.51,9.33 -16.57,-9.33 -13.82,9.33 h -33.72 z" />
</svg>
