<?xml version="1.0" encoding="UTF-8" standalone="no"?>
<svg
   xmlns:dc="http://purl.org/dc/elements/1.1/"
   xmlns:cc="http://creativecommons.org/ns#"
   xmlns:rdf="http://www.w3.org/1999/02/22-rdf-syntax-ns#"
   xmlns:svg="http://www.w3.org/2000/svg"
   xmlns="http://www.w3.org/2000/svg"
   xmlns:sodipodi="http://sodipodi.sourceforge.net/DTD/sodipodi-0.dtd"
   xmlns:inkscape="http://www.inkscape.org/namespaces/inkscape"
   viewBox="0 0 512.0 512.0"
   version="1.1"
   id="svg12"
   sodipodi:docname="item_carapace.svg"
   inkscape:version="0.92.4 (5da689c313, 2019-01-14)">
  <metadata
     id="metadata18">
    <rdf:RDF>
      <cc:Work
         rdf:about="">
        <dc:format>image/svg+xml</dc:format>
        <dc:type
           rdf:resource="http://purl.org/dc/dcmitype/StillImage" />
      </cc:Work>
    </rdf:RDF>
  </metadata>
  <defs
     id="defs16" />
  <sodipodi:namedview
     pagecolor="#ffffff"
     bordercolor="#666666"
     borderopacity="1"
     objecttolerance="10"
     gridtolerance="10"
     guidetolerance="10"
     inkscape:pageopacity="0"
     inkscape:pageshadow="2"
     inkscape:window-width="640"
     inkscape:window-height="480"
     id="namedview14"
     showgrid="false"
     inkscape:zoom="0.4609375"
     inkscape:cx="256"
     inkscape:cy="256"
     inkscape:window-x="2677"
     inkscape:window-y="56"
     inkscape:window-maximized="0"
     inkscape:current-layer="svg12" />
  <path
     style="fill:#ffffff"
     inkscape:connector-curvature="0"
     id="path2"
     d="m 449.07,221.04 -39.08,41.9 0.96,14.28 -61.95,64.74 -92.45,90.46 -56.23,-55.23 -89.59,-95.21 0.96,-16.19 -44.8,-49.51 101.03,-99.02 25.73,25.71 61,-58.08 57.18,49.51 28.59,-24.75 z" />
  <path
     style="fill:#000000"
     inkscape:connector-curvature="0"
     id="path4"
     d="m 261.07,74.74 c 2.87,1.39 2.9,1.4 5.39,3.38 l 44.54,44.66 14.95,-17.07 c 1.68,-1.33 3.4,-2.69 5.4,-3.39 a 14.51,14.51 0 0 1 9.45,0 c 2.72,0.95 3.18,1.63 5.39,3.39 l 105.63,105.47 c 1.33,1.67 2.69,3.38 3.39,5.4 a 14.46,14.46 0 0 1 0,9.43 c -0.96,2.71 -1.63,3.18 -3.4,5.39 l -29.64,29.59 c -2.5,2 -2.5,2 -5.39,3.38 l -0.3,0.07 1.44,1.8 1.4,2.88 c 0.47,2.09 0.95,4.21 0.7,6.33 -0.35,3.17 -2.06,5.96 -4.1,8.5 l -92.68,92.56 c -2.92,2.32 -6.26,4.1 -10.52,4.1 v 2 c -0.62,2.75 -0.58,3.56 -2.1,6 -0.57,0.9 -1.34,1.67 -2,2.5 l -42.16,42.1 c -2.2,1.76 -2.68,2.44 -5.39,3.38 -4.01,1.4 -8.7,0.9 -12.34,-1.39 -0.9,-0.56 -1.68,-1.33 -2.5,-2 l -34.97,-34.9 c -2.33,-2.93 -4.1,-6.26 -4.1,-10.51 h -2.01 c -1.04,-0.24 -2.12,-0.36 -3.12,-0.71 -2.72,-0.96 -3.19,-1.63 -5.4,-3.39 l -91.96,-91.85 c -1.77,-2.2 -2.45,-2.66 -3.4,-5.38 a 14.48,14.48 0 0 1 1.4,-12.32 c 1.02,-1.62 2,-2.53 3.28,-3.8 l -0.18,-0.05 c -2.88,-1.38 -2.9,-1.39 -5.39,-3.37 L 60.17,226.76 c -1.76,-2.2 -2.44,-2.68 -3.4,-5.38 -1.4,-4 -0.88,-8.7 1.4,-12.33 0.57,-0.9 1.33,-1.67 2,-2.5 l 94.13,-94 c 2.21,-1.76 2.68,-2.44 5.4,-3.39 4.01,-1.4 8.7,-0.9 12.33,1.39 0.91,0.57 18.6,18.57 19.98,21.45 l 54.21,-53.88 2.51,-2 c 0.95,-0.45 1.87,-1.03 2.88,-1.38 2.73,-0.94 3.5,-0.72 6.33,-0.72 1.04,0.25 2.09,0.49 3.13,0.72 z m -39.72,313.75 35,35.01 42.22,-42.21 -35,-35.01 z M 114.42,281.35 206.26,373 l 79.44,-79.3 -11.24,-11.23 -23.5,23.46 -80.58,-80.45 -55.96,55.86 z m 174.9,-13.5 25.9,25.88 -37.44,37.4 34.98,34.95 92.74,-92.64 -60.88,-60.83 -55.3,55.25 z m -33.36,-179.98 -97,96.94 92.2,92.17 96.9,-96.86 z m -186.1,128.3 40.08,40.02 45.58,-45.48 -26.04,-25.98 48.3,-48.19 -14.07,-14.02 -93.86,93.66 z m 254.45,-89.11 53.01,52.91 -18.07,18.03 52.33,52.25 29.56,-29.51 -105.34,-105.16 -11.5,11.47 z" />
</svg>
