<?xml version="1.0" encoding="UTF-8" standalone="no"?>
<svg
   xmlns:dc="http://purl.org/dc/elements/1.1/"
   xmlns:cc="http://creativecommons.org/ns#"
   xmlns:rdf="http://www.w3.org/1999/02/22-rdf-syntax-ns#"
   xmlns:svg="http://www.w3.org/2000/svg"
   xmlns="http://www.w3.org/2000/svg"
   xmlns:sodipodi="http://sodipodi.sourceforge.net/DTD/sodipodi-0.dtd"
   xmlns:inkscape="http://www.inkscape.org/namespaces/inkscape"
   viewBox="0 0 512.0 512.0"
   version="1.1"
   id="svg10"
   sodipodi:docname="item_coin.svg"
   inkscape:version="0.92.4 (5da689c313, 2019-01-14)">
  <metadata
     id="metadata16">
    <rdf:RDF>
      <cc:Work
         rdf:about="">
        <dc:format>image/svg+xml</dc:format>
        <dc:type
           rdf:resource="http://purl.org/dc/dcmitype/StillImage" />
      </cc:Work>
    </rdf:RDF>
  </metadata>
  <defs
     id="defs14" />
  <sodipodi:namedview
     pagecolor="#ffffff"
     bordercolor="#666666"
     borderopacity="1"
     objecttolerance="10"
     gridtolerance="10"
     guidetolerance="10"
     inkscape:pageopacity="0"
     inkscape:pageshadow="2"
     inkscape:window-width="640"
     inkscape:window-height="480"
     id="namedview12"
     showgrid="false"
     inkscape:zoom="0.4609375"
     inkscape:cx="256"
     inkscape:cy="256"
     inkscape:window-x="0"
     inkscape:window-y="0"
     inkscape:window-maximized="0"
     inkscape:current-layer="svg10" />
  <path
     style="fill:#000000"
     inkscape:connector-curvature="0"
     id="path2"
     d="m 344.10398,49.972034 115.02,117.039996 -1.44,164.08 -117.03,115.01 -164.09,-1.43 -115.009997,-117.04 1.43,-164.08 L 180.02398,48.542034 Z" />
  <path
     style="fill:#ffffff"
     inkscape:connector-curvature="0"
     id="path4"
     d="m 84.483983,190.80203 h 21.739997 l -0.98,113.04 H 83.503983 Z m 3.9,-21.74 88.969997,-87.419996 v 30.469996 l -57.94,56.95 H 88.393983 Z m 348.789997,21.74 -0.99,113.04 h -21.74 l 0.99,-113.04 z m -6.51,-21.74 h -30.48 l -59.06,-60.1 V 77.952034 l 89.54,91.099996 z m -340.649997,156.52 h 30.479997 l 56.97,57.97 h -0.1 v 30.91 z m 342.269997,0 -91.16,89.58 v -30.48 l 60.14,-59.1 z m -112.9,98.6 -120.29,-1.05 v -21.74 l 120.3,1.05 v 21.74 z m 0,-352.689996 v 21.74 l -120.29,-1.05 v -21.74 l 120.3,1.05 z m -2.86,43.459996 77.15,78.5 -0.96,110.06 -78.5,77.14 -110.07,-0.96 -77.14,-78.5 0.96,-110.06 78.5,-77.14 z m 40.7,103.49 -160.56,-57.02 c -19.06,10.76 -28.6,20.27 -28.6,28.5 v 67.8 c 15.58,-26.2 25.1,-39.28 28.6,-39.28 5.24,0 59.4,30.15 59.4,58.43 0,18.85 -15.75,37.16 -47.26,54.91 13.74,11.3 23.39,16.96 28.96,16.96 5.57,0 22.46,-15.93 50.67,-47.8 l 23.59,22.32 54.97,-54.07 -31.82,-24.95 22.03,-25.8 z m -37.98,1.09 -21.23,16.68 -16.56,-21.32 37.8,4.64 z" />
</svg>
