<?xml version="1.0" encoding="UTF-8" standalone="no"?>
<svg
   xmlns:dc="http://purl.org/dc/elements/1.1/"
   xmlns:cc="http://creativecommons.org/ns#"
   xmlns:rdf="http://www.w3.org/1999/02/22-rdf-syntax-ns#"
   xmlns:svg="http://www.w3.org/2000/svg"
   xmlns="http://www.w3.org/2000/svg"
   xmlns:sodipodi="http://sodipodi.sourceforge.net/DTD/sodipodi-0.dtd"
   xmlns:inkscape="http://www.inkscape.org/namespaces/inkscape"
   viewBox="0 0 512.0 512.0"
   version="1.1"
   id="svg10"
   sodipodi:docname="item_bottle.svg"
   inkscape:version="0.92.4 (5da689c313, 2019-01-14)">
  <metadata
     id="metadata16">
    <rdf:RDF>
      <cc:Work
         rdf:about="">
        <dc:format>image/svg+xml</dc:format>
        <dc:type
           rdf:resource="http://purl.org/dc/dcmitype/StillImage" />
      </cc:Work>
    </rdf:RDF>
  </metadata>
  <defs
     id="defs14" />
  <sodipodi:namedview
     pagecolor="#ffffff"
     bordercolor="#666666"
     borderopacity="1"
     objecttolerance="10"
     gridtolerance="10"
     guidetolerance="10"
     inkscape:pageopacity="0"
     inkscape:pageshadow="2"
     inkscape:window-width="1691"
     inkscape:window-height="1241"
     id="namedview12"
     showgrid="false"
     inkscape:zoom="1.83"
     inkscape:cx="256"
     inkscape:cy="256"
     inkscape:window-x="2971"
     inkscape:window-y="57"
     inkscape:window-maximized="0"
     inkscape:current-layer="svg10" />
  <path
     style="fill:#000000"
     inkscape:connector-curvature="0"
     id="path2"
     d="M 219.47,89.18 V 56.65 h 73.48 v 32.53 h 74.73 v 46.04 h -15.29 c -5.52,0 -8.67,0.5 -11.13,1.22 l -0.92,37.1 a 55.26,55.26 0 0 0 5.07,3.09 l 0.83,0.47 c 6.04,3.4 9.11,5.4 12.53,8.72 5.62,5.46 8.9,12.34 8.9,20.48 v 210.46 c 0,21.43 -19.33,38.7 -42.61,38.7 h -137.7 c -24.24,0 -42.93,-16.3 -42.93,-38.7 V 206.3 c 0,-7.21 3,-13.3 8.01,-18.12 2.98,-2.86 5.97,-4.82 10.88,-7.56 l 2.78,-1.54 c 3.39,-1.89 5.09,-3.03 5.98,-3.95 v -38.65 c -2.51,-0.75 -6.7,-1.26 -12.37,-1.26 H 144.43 V 89.18 Z" />
  <path
     style="fill:#ffffff"
     inkscape:connector-curvature="0"
     id="path4"
     d="m 214.88,104.46 v 71 c 0,11.57 -4.48,21.64 -12.1,29.48 -4.55,4.68 -8.9,7.63 -15.56,11.36 V 412.66 H 324.88 V 214.18 c -7.15,-4.03 -10.59,-6.26 -14.8,-10.27 -7.76,-7.37 -12.53,-17.03 -12.53,-28.46 v -70.99 h 54.84 v 15.48 c -18.22,0 -27.33,4.6 -27.33,13.81 v 41.7 c 0,14.8 27.33,14.8 27.33,30.85 v 210.46 c 0,12.08 -11.57,23.41 -27.33,23.41 h -137.7 c -16.64,0 -27.65,-10.3 -27.65,-23.4 V 206.3 c 0,-13.35 27.66,-13.35 27.66,-30.85 v -41.7 c 0,-9.2 -9.22,-13.81 -27.66,-13.81 v -15.48 z m 18.39,49.01 h 45.89 v 21.98 c 0,16.19 6.59,30.72 18.24,41.8 a 65,65 0 0 0 9.1,7.3 V 394.27 H 205.61 v -167.7 a 68.13,68.13 0 0 0 10.35,-8.81 c 11.13,-11.46 17.3,-26.18 17.3,-42.3 v -21.99 z m 0,-34.94 h 45.89 V 70.44 h -45.9 v 48.09 z" />
</svg>
