<?xml version="1.0" encoding="UTF-8" standalone="no"?>
<svg
   xmlns:dc="http://purl.org/dc/elements/1.1/"
   xmlns:cc="http://creativecommons.org/ns#"
   xmlns:rdf="http://www.w3.org/1999/02/22-rdf-syntax-ns#"
   xmlns:svg="http://www.w3.org/2000/svg"
   xmlns="http://www.w3.org/2000/svg"
   xmlns:sodipodi="http://sodipodi.sourceforge.net/DTD/sodipodi-0.dtd"
   xmlns:inkscape="http://www.inkscape.org/namespaces/inkscape"
   viewBox="0 0 512.0 512.0"
   version="1.1"
   id="svg10"
   sodipodi:docname="item_hide.svg"
   inkscape:version="0.92.4 (5da689c313, 2019-01-14)">
  <metadata
     id="metadata16">
    <rdf:RDF>
      <cc:Work
         rdf:about="">
        <dc:format>image/svg+xml</dc:format>
        <dc:type
           rdf:resource="http://purl.org/dc/dcmitype/StillImage" />
      </cc:Work>
    </rdf:RDF>
  </metadata>
  <defs
     id="defs14" />
  <sodipodi:namedview
     pagecolor="#ffffff"
     bordercolor="#666666"
     borderopacity="1"
     objecttolerance="10"
     gridtolerance="10"
     guidetolerance="10"
     inkscape:pageopacity="0"
     inkscape:pageshadow="2"
     inkscape:window-width="1150"
     inkscape:window-height="926"
     id="namedview12"
     showgrid="false"
     inkscape:zoom="1.84375"
     inkscape:cx="307.51912"
     inkscape:cy="227.76039"
     inkscape:window-x="2362"
     inkscape:window-y="125"
     inkscape:window-maximized="0"
     inkscape:current-layer="svg10" />
  <path
     style="fill:#000000"
     inkscape:connector-curvature="0"
     id="path2"
     d="m 185.92,131.03 a 36.25,36.25 0 0 1 -0.22,-3.95 c 0,-17.75 7.86,-31.48 21.96,-39.14 4.64,-19.44 20.39,-30.77 43.36,-30.77 22.84,0 38.77,11.1 44.14,30.43 15.39,7.7 24.16,21.44 24.16,39.48 0,1.37 -0.08,2.7 -0.23,4.02 a 17.97,17.97 0 0 1 1.54,-0.07 h 17.88 l 21.08,-40.67 a 17.96,17.96 0 0 1 15.95,-9.7 h 51.7 c 16.99,0 24.49,21.4 11.22,32 l -34.24,27.39 v 22.03 c 0,9.92 -8.04,17.96 -17.97,17.96 h -13.7 l 19.98,15.92 h 30.78 c 16.22,0 24.14,19.8 12.38,30.98 l -44.58,42.37 c -1,0.96 -2.1,1.79 -3.3,2.49 l -7.28,4.26 17.26,14.45 a 17.96,17.96 0 0 1 -0.99,28.31 l -48.74,35.35 9.01,9.18 23.4,-7.97 a 17.96,17.96 0 0 1 21.87,9.02 l 9.77,19.66 a 17.96,17.96 0 0 1 -7.28,23.65 l -46.6,26.2 a 17.96,17.96 0 0 1 -20.62,-2.13 l -40.28,-35.23 -37.67,34.89 c -11.5,10.64 -30.17,2.49 -30.17,-13.19 v -16.3 h -27.42 l -13.67,11.7 v 23.88 c 0,14.97 -17.24,23.37 -29.03,14.14 L 95.14,401.41 a 17.96,17.96 0 0 1 -0.06,-28.25 l 18.84,-14.87 a 17.96,17.96 0 0 1 21.38,-0.65 l 6,4.17 13.95,-10.53 -52.08,-42.8 a 17.96,17.96 0 0 1 -0.86,-27 l 25.1,-23.49 -31.8,-23.26 a 17.96,17.96 0 0 1 0.2,-29.15 l 35.96,-25.54 H 118.62 A 17.96,17.96 0 0 1 100.66,162.08 V 139.02 L 72.26,111.54 C 60.66,100.31 68.62,80.67 84.76,80.67 h 56.98 c 9.92,0 17.97,8.04 17.97,17.96 v 23.82 l 11.4,8.58 h 14.8 z" />
  <path
     style="fill:#ffffff"
     inkscape:connector-curvature="0"
     id="path4"
     d="m 249.68458,431.55012 c -14.8307,-0.61721 -5.99716,-15.35185 -19.05814,-36.16029 l -31.39983,-1.08475 C 180.14785,409.27465 174.82727,405.3251 170.15,444.2 l -63.95,-56.93 18.84,-14.87 16.69,11.6 42.55,-32.13 -69.7,-57.28 40.95,-38.3 -49.32,-36.06 58.9,-41.83 -7.04,-16.32 H 118.62 V 131.41 L 84.76,98.63 h 56.99 v 32.77 l 23.38,17.58 h 22.9 l 40.4,41.83 24.9,-23.56 30.7,18.11 36.62,-36.38 h 28.8 l 26.1,-50.36 h 51.71 l -41,32.78 v 30.69 h -41.63 l -7.22,12.94 48.85,38.9 h 37.06 l -44.58,42.37 -29.3,17.16 36.82,30.83 -65.62,47.59 31.53,32.12 34.09,-11.6 14.65136,21.82949 c -59.80394,-46.76535 -118.5767,-3.77767 -103.82219,-5.50004 M 203.66,127.08 c 0,-14.1 6.85,-22.9 20.54,-26.4 0,-17.03 8.94,-25.54 26.82,-25.54 17.88,0 27.25,8.5 28.1,25.53 14.82,3.99 22.23,12.8 22.23,26.41 0,13.63 -16.28,22.06 -48.84,25.32 -32.56,-2.78 -48.84,-11.22 -48.84,-25.32 z m 32.8,-7.35 h -21.13 v 9.77 h 21.14 v -9.77 z m 51.87,-0.26 H 267.2 v 9.77 h 21.13 z"
     sodipodi:nodetypes="cccccccccccccccccccccccccccccccccccccccccccscscccccccccccccc" />
  <path
     style="fill:#ffffff"
     inkscape:connector-curvature="0"
     id="path6"
     d="m 155.53,256.29 38.5,19.21 -16.9,19.5 59.19,49.36 39.31,-35.19 -32.03,-28.65 51.92,-53.72 66.94,45.15 31.07,33.3 -52.21,46.02 15.2,20.33 37.01,-6.88 7.38136,29.50949 -52.51322,35.30814 c -93.16437,-68.83196 -35.06842,-56.78457 -180.62916,-63.43594 0,0 10.76726,30.74856 14.24237,46.62238 C 187.0769,435.86278 170.15,444.2 170.15,444.2 l -63.95,-56.93 18.84,-14.87 16.69,11.6 42.55,-32.13 -69.7,-57.28 z m 60.03,-127.28 9.7,-4.2 10.81,4.2 12.9,25.64 h 7.99 l 10.57,-25.64 10.17,-4.2 10.71,4.2 3.68,16.99 -20.54,16.98 h -32.89 l -24.5,-16.72 z"
     sodipodi:nodetypes="cccccccccccccccscccccccccccccccccccc" />
</svg>
