<?xml version="1.0" encoding="UTF-8" standalone="no"?>
<svg
   xmlns:dc="http://purl.org/dc/elements/1.1/"
   xmlns:cc="http://creativecommons.org/ns#"
   xmlns:rdf="http://www.w3.org/1999/02/22-rdf-syntax-ns#"
   xmlns:svg="http://www.w3.org/2000/svg"
   xmlns="http://www.w3.org/2000/svg"
   xmlns:sodipodi="http://sodipodi.sourceforge.net/DTD/sodipodi-0.dtd"
   xmlns:inkscape="http://www.inkscape.org/namespaces/inkscape"
   viewBox="0 0 512.0 512.0"
   version="1.1"
   id="svg8"
   sodipodi:docname="item_web.svg"
   inkscape:version="0.92.4 (5da689c313, 2019-01-14)">
  <metadata
     id="metadata14">
    <rdf:RDF>
      <cc:Work
         rdf:about="">
        <dc:format>image/svg+xml</dc:format>
        <dc:type
           rdf:resource="http://purl.org/dc/dcmitype/StillImage" />
      </cc:Work>
    </rdf:RDF>
  </metadata>
  <defs
     id="defs12" />
  <sodipodi:namedview
     pagecolor="#ffffff"
     bordercolor="#666666"
     borderopacity="1"
     objecttolerance="10"
     gridtolerance="10"
     guidetolerance="10"
     inkscape:pageopacity="0"
     inkscape:pageshadow="2"
     inkscape:window-width="742"
     inkscape:window-height="480"
     id="namedview10"
     showgrid="false"
     inkscape:zoom="0.4609375"
     inkscape:cx="256"
     inkscape:cy="256"
     inkscape:window-x="3276"
     inkscape:window-y="272"
     inkscape:window-maximized="0"
     inkscape:current-layer="svg8" />
  <g
     id="g6"
     transform="translate(54.237288,71.59322)">
    <path
       d="m 188.83,392.04 a 7.5,7.5 0 0 1 -7.5,-7.5 v -29.1 a 154.21,154.21 0 0 1 -78.85,-32.97 l -19.81,20.39 a 7.5,7.5 0 0 1 -5.33,2.27 H 77.3 A 7.5,7.5 0 0 1 72,342.93 L 57.3,328.28 a 7.5,7.5 0 0 1 0,-10.62 l 20.52,-20.5 A 157.85,157.85 0 0 1 44.77,217.61 h -29.3 a 7.5,7.5 0 0 1 -7.5,-7.5 v -19.15 a 7.5,7.5 0 0 1 7.5,-7.5 H 44.74 A 152.8,152.8 0 0 1 77.79,102.88 L 57.05,81.5 A 7.5,7.5 0 0 1 57.1,71 L 71.6,56.32 a 7.5,7.5 0 0 1 10.68,0 l 20.16,20.46 a 154.22,154.22 0 0 1 78.88,-33.01 v -28.3 a 7.5,7.5 0 0 1 7.51,-7.5 h 21.27 a 7.5,7.5 0 0 1 7.51,7.5 v 28.3 a 158.65,158.65 0 0 1 80.13,33.2 L 318.7,56.45 a 7.5,7.5 0 0 1 10.6,0.1 l 14.67,14.88 a 7.5,7.5 0 0 1 0,10.54 l -20.59,20.94 a 152.83,152.83 0 0 1 33.12,80.54 h 28.03 a 7.5,7.5 0 0 1 7.5,7.5 v 19.16 a 7.5,7.5 0 0 1 -7.5,7.5 h -28.08 a 157.88,157.88 0 0 1 -33.1,79.56 l 20.47,20.46 a 7.5,7.5 0 0 1 -0.02,10.63 l -14.78,14.68 a 7.5,7.5 0 0 1 -10.58,0 L 297.7,322.37 a 158.6,158.6 0 0 1 -80.09,33.07 v 29.1 a 7.5,7.5 0 0 1 -7.5,7.5 z m -64.74,-91.47 a 121.22,121.22 0 0 0 57.24,24.07 v -6.05 a 118.73,118.73 0 0 1 -53.2,-22.15 z m 93.52,24.04 a 127.81,127.81 0 0 0 58.1,-24.04 l -4.09,-4.16 a 122.26,122.26 0 0 1 -54.01,22.18 z m -67.5,-50.1 a 82.22,82.22 0 0 0 31.22,13.12 v -3.38 a 83.77,83.77 0 0 1 -28.71,-12.19 l -2.52,2.46 z m 67.5,13.06 a 89.43,89.43 0 0 0 31.92,-13.2 l -2.21,-2.26 a 89.42,89.42 0 0 1 -29.71,12.15 z m -142,-69.96 a 127.44,127.44 0 0 0 24,57.8 l 4.23,-4.24 A 119.2,119.2 0 0 1 81.64,217.61 H 75.6 Z m 226,57.78 a 127.39,127.39 0 0 0 24.01,-57.78 h -6.02 a 119.23,119.23 0 0 1 -22.2,53.58 l 4.22,4.2 z M 174.37,249.73 a 56.74,56.74 0 0 0 6.96,2.88 v -9.84 z m 43.24,2.88 c 2.38,-0.8 4.7,-1.77 6.95,-2.88 l -6.95,-6.96 z m -104.95,-35 a 89,89 0 0 0 13.15,31.6 l 2.32,-2.33 a 86.64,86.64 0 0 1 -12.17,-29.27 z m 162.77,31.6 a 89,89 0 0 0 13.14,-31.6 h -3.3 a 86.63,86.63 0 0 1 -12.16,29.27 z m -24.69,-24.65 a 56.75,56.75 0 0 0 2.89,-6.95 h -9.84 z m -103.13,-6.95 c 0.8,2.38 1.77,4.7 2.89,6.95 l 6.95,-6.95 z m 178.05,-34.16 a 125.12,125.12 0 0 0 -24.1,-58.37 l -4.11,3.98 a 122.95,122.95 0 0 1 22.16,54.4 h 6.05 z m -37,0 a 85.14,85.14 0 0 0 -13.3,-32.2 l -2.17,2.08 a 80.47,80.47 0 0 1 12.22,30.12 z m -34.88,0 a 49.1,49.1 0 0 0 -2.96,-7.03 l -7.03,7.03 z m -96.33,0 -7.03,-7.03 a 49.05,49.05 0 0 0 -2.96,7.03 h 10 z m -41.62,0 a 80.48,80.48 0 0 1 12.21,-30.12 l -2.16,-2.09 a 85.12,85.12 0 0 0 -13.3,32.21 z m -34.2,0 a 122.24,122.24 0 0 1 22.27,-54.11 l -4.36,-4.5 a 125.79,125.79 0 0 0 -23.97,58.61 h 6.07 z m 135.98,-27.01 6.95,-6.96 a 56.82,56.82 0 0 0 -6.95,-2.88 z m -36.28,0 v -9.84 a 56.66,56.66 0 0 0 -6.96,2.88 z m -28.71,-29.3 a 83.8,83.8 0 0 1 28.7,-12.18 v -3.38 a 82.22,82.22 0 0 0 -31.22,13.11 z m 64.99,-12.2 a 89.44,89.44 0 0 1 29.7,12.15 l 2.22,-2.24 A 89.4,89.4 0 0 0 217.61,111.64 Z M 128.34,102.86 A 116.07,116.07 0 0 1 181.33,80.62 V 74.56 A 121.68,121.68 0 0 0 123.9,98.52 Z m 89.27,-22.24 a 119.65,119.65 0 0 1 53.88,22.23 l 4.35,-4.28 A 128.17,128.17 0 0 0 217.61,74.59 Z"
       id="path2"
       inkscape:connector-curvature="0"
       style="fill:#fffdfd" />
    <path
       d="M 210.1,15.47 V 50.6 a 151.25,151.25 0 0 1 88.04,36.46 l 25.81,-25.25 14.67,14.88 -25.36,25.8 a 146.8,146.8 0 0 1 36.35,88.46 h 34.92 v 19.14 h -34.92 a 149.73,149.73 0 0 1 -36.4,87.54 l 25.3,25.3 -14.78,14.67 -25.59,-25.36 a 151.13,151.13 0 0 1 -88.04,36.35 v 35.93 H 188.83 V 348.6 A 147.82,147.82 0 0 1 101.94,312.26 L 77.3,337.62 62.6,322.97 87.97,297.64 A 149.67,149.67 0 0 1 51.61,210.1 H 15.47 v -19.14 h 36.15 c 2.3,-35.1 15.54,-64.66 36.27,-88.46 L 62.44,76.27 76.94,61.6 l 25,25.36 a 147.83,147.83 0 0 1 86.9,-36.35 V 15.47 Z M 272.05,112.83 287.12,98 A 135.64,135.64 0 0 0 210.1,66.2 v 21.07 a 112.87,112.87 0 0 1 61.95,25.55 z m -144.24,0 A 110.02,110.02 0 0 1 188.83,87.28 V 66.2 c -29.78,2.25 -55.27,13.83 -76.22,31.78 l 15.2,14.84 z m 120.4,24.06 12.74,-12.96 A 97.2,97.2 0 0 0 210.1,102.9 v 18.36 a 81.14,81.14 0 0 1 38.11,15.63 z m -96.34,0 a 77.03,77.03 0 0 1 36.96,-15.63 V 102.9 c -20.2,2.03 -36.11,9.6 -50.27,21.03 z M 67.22,190.96 H 88.3 A 113.53,113.53 0 0 1 113.86,128.8 L 99,113.52 a 133.92,133.92 0 0 0 -31.78,77.44 z m 245.73,0 H 334 a 132.65,132.65 0 0 0 -31.77,-77 l -14.85,14.41 a 114.88,114.88 0 0 1 25.56,62.59 z M 210.1,174.56 236.65,148 A 64.27,64.27 0 0 0 210.1,136.97 v 37.58 z m -21.27,0 v -37.58 a 64.27,64.27 0 0 0 -26.54,11.03 z m 90.13,16.4 h 18.36 A 94.38,94.38 0 0 0 276.29,139.9 l -12.96,12.53 a 74.44,74.44 0 0 1 15.63,38.53 z m -175.04,0 h 18.36 a 74.44,74.44 0 0 1 15.63,-38.53 L 124.94,139.9 a 94.38,94.38 0 0 0 -21.02,51.06 z m 121.74,0 h 37.58 a 58.84,58.84 0 0 0 -11.03,-26.55 z m -87.66,0 h 37.57 L 149.03,164.41 A 58.84,58.84 0 0 0 138,190.96 Z m 164.24,95.65 a 134.14,134.14 0 0 0 31.77,-76.5 H 312.95 A 112.1,112.1 0 0 1 287.39,271.8 Z M 276.29,260.7 a 96.37,96.37 0 0 0 21.03,-50.6 h -18.36 a 79.31,79.31 0 0 1 -15.63,37.6 z m -24.08,-24.05 a 64.27,64.27 0 0 0 11.03,-26.55 h -37.58 z m -103.18,0 26.54,-26.55 H 138 a 64.27,64.27 0 0 0 11.03,26.55 z m -24.09,24.05 12.97,-13 a 79.31,79.31 0 0 1 -15.63,-37.6 h -18.36 a 96.37,96.37 0 0 0 21.02,50.6 z M 99,286.64 113.85,271.76 A 112,112 0 0 1 88.29,210.1 H 67.22 A 134.23,134.23 0 0 0 99,286.65 Z M 210.1,262.23 A 64.27,64.27 0 0 0 236.65,251.2 L 210.1,224.65 Z m -21.27,0 V 224.65 L 162.3,251.2 a 64.27,64.27 0 0 0 26.54,11.03 z m 0,34.07 v -18.35 a 77.03,77.03 0 0 1 -36.96,-15.64 l -13.31,12.97 c 14.16,11.44 30.06,19 50.27,21.02 z m 21.27,0 a 97.2,97.2 0 0 0 50.85,-21.02 l -12.74,-12.97 a 81.14,81.14 0 0 1 -38.1,15.64 v 18.35 z m 0,36.7 a 134.98,134.98 0 0 0 76.8,-31.78 l -14.63,-14.85 a 113.56,113.56 0 0 1 -62.17,25.56 z m -21.27,0 v -21.07 a 111.1,111.1 0 0 1 -61.37,-25.56 l -14.5,14.85 c 20.95,17.95 46.1,29.53 75.87,31.78 z M 210.1,0.46 H 188.83 A 15.01,15.01 0 0 0 173.82,15.47 V 37.22 A 161.38,161.38 0 0 0 103.13,66.79 L 87.63,51.06 a 15.01,15.01 0 0 0 -21.37,0 l -14.5,14.66 a 15.01,15.01 0 0 0 -0.1,21 l 16.23,16.73 a 159.37,159.37 0 0 0 -29.77,72.5 H 15.47 c -8.3,0 -15.01,6.72 -15.01,15.01 v 19.14 c 0,8.3 6.72,15.02 15,15.02 h 22.78 a 165.62,165.62 0 0 0 29.64,71.37 l -15.87,15.86 a 15.01,15.01 0 0 0 0,21.24 l 14.67,14.66 a 15.01,15.01 0 0 0 10.6,4.39 h 0.12 a 15.01,15.01 0 0 0 10.65,-4.55 l 15.17,-15.6 a 161.38,161.38 0 0 0 70.6,29.5 v 22.54 a 15.01,15.01 0 0 0 15.01,15.01 h 21.27 a 15.01,15.01 0 0 0 15.02,-15 v -22.55 a 166.36,166.36 0 0 0 71.93,-29.7 l 16.1,15.98 c 5.86,5.8 15.3,5.8 21.16,0 l 14.78,-14.68 a 15.01,15.01 0 0 0 0.04,-21.27 L 333.3,296.5 A 165.65,165.65 0 0 0 363,225.12 h 21.53 a 15.01,15.01 0 0 0 15.01,-15.02 v -19.14 a 15.01,15.01 0 0 0 -15,-15.01 H 363.1 a 159.41,159.41 0 0 0 -29.8,-72.44 l 16.02,-16.28 a 15.01,15.01 0 0 0 -0.01,-21.06 l -14.68,-14.9 a 15.01,15.01 0 0 0 -21.19,-0.18 l -16.33,15.98 a 166.42,166.42 0 0 0 -72,-29.85 V 15.47 c 0,-8.3 -6.72,-15.01 -15.02,-15.01 z"
       id="path4"
       inkscape:connector-curvature="0"
       style="fill:#000000" />
  </g>
</svg>
