<?xml version="1.0" encoding="UTF-8" standalone="no"?>
<svg
   xmlns:dc="http://purl.org/dc/elements/1.1/"
   xmlns:cc="http://creativecommons.org/ns#"
   xmlns:rdf="http://www.w3.org/1999/02/22-rdf-syntax-ns#"
   xmlns:svg="http://www.w3.org/2000/svg"
   xmlns="http://www.w3.org/2000/svg"
   xmlns:sodipodi="http://sodipodi.sourceforge.net/DTD/sodipodi-0.dtd"
   xmlns:inkscape="http://www.inkscape.org/namespaces/inkscape"
   viewBox="0 0 512.0 512.0"
   version="1.1"
   id="svg14"
   sodipodi:docname="item_feystone.svg"
   inkscape:version="0.92.4 (5da689c313, 2019-01-14)">
  <metadata
     id="metadata20">
    <rdf:RDF>
      <cc:Work
         rdf:about="">
        <dc:format>image/svg+xml</dc:format>
        <dc:type
           rdf:resource="http://purl.org/dc/dcmitype/StillImage" />
      </cc:Work>
    </rdf:RDF>
  </metadata>
  <defs
     id="defs18" />
  <sodipodi:namedview
     pagecolor="#ffffff"
     bordercolor="#666666"
     borderopacity="1"
     objecttolerance="10"
     gridtolerance="10"
     guidetolerance="10"
     inkscape:pageopacity="0"
     inkscape:pageshadow="2"
     inkscape:window-width="1217"
     inkscape:window-height="928"
     id="namedview16"
     showgrid="false"
     inkscape:zoom="1.84375"
     inkscape:cx="241.59089"
     inkscape:cy="216.12324"
     inkscape:window-x="2305"
     inkscape:window-y="136"
     inkscape:window-maximized="0"
     inkscape:current-layer="svg14" />
  <path
     style="fill:#000000"
     inkscape:connector-curvature="0"
     id="path2"
     d="m 146.5,152.33 h 213.55 l 81.24,73.59 v 77.64 L 294.14,453.52 215.2,453.48 69.9,303.25 v -76.89 l 76.62,-74.03 z M 56.03,56 h 119.8 L 176,86.57 115.73,140 56,87.05 56.02,56 Z m 140,0 h 119.8 L 316,86.57 255.73,140 196,87.05 196.02,56 Z m 140,0 h 119.8 L 456,86.57 395.73,140 336,87.05 336.02,56 Z" />
  <path
     style="fill:#ffffff"
     inkscape:connector-curvature="0"
     id="path4"
     d="m 255.99,175.62 70.75,82.92 H 184.6 l 70.75,-82.92 H 256 Z m 21.03,0 h 57.39 v 67.26 L 277,175.62 Z m -42.7,0 -58.32,68.35 v -68.35 z m 116.09,0 h 0.82 l 67,60.7 v 22.22 H 350.41 Z M 268.75,430.22 243.28,430.2 179.9,274.54 h 152.23 z m 17.27,0 63.39,-155.68 h 68.82 v 19.22 L 288.56,430.23 h -2.54 z M 160,175.62 v 82.92 H 92.94 v -22.23 l 65.84,-60.69 H 160 Z m 66,254.58 h -1.09 L 92.94,293.75 v -19.22 h 69.69 z M 72.38,74.74 h 87.98 l -44,38.92 z m 139.1,-0.15 h 89.1 L 256.02,113.5 211.47,74.59 Z m 140,0 h 89.1 L 396.02,113.5 351.47,74.59 Z" />
  <path
     style="fill:#ffffff"
     inkscape:connector-curvature="0"
     id="path10"
     d="m 169.9,168.01 v 91.96 l 86.1,-91.96 85.02,91.96 v -91.96 z" />
</svg>
