<?xml version="1.0" encoding="UTF-8" standalone="no"?>
<svg
   xmlns:dc="http://purl.org/dc/elements/1.1/"
   xmlns:cc="http://creativecommons.org/ns#"
   xmlns:rdf="http://www.w3.org/1999/02/22-rdf-syntax-ns#"
   xmlns:svg="http://www.w3.org/2000/svg"
   xmlns="http://www.w3.org/2000/svg"
   xmlns:sodipodi="http://sodipodi.sourceforge.net/DTD/sodipodi-0.dtd"
   xmlns:inkscape="http://www.inkscape.org/namespaces/inkscape"
   viewBox="0 0 512.0 512.0"
   version="1.1"
   id="svg3823"
   sodipodi:docname="item_emptybottle.svg"
   inkscape:version="0.92.4 (5da689c313, 2019-01-14)">
  <metadata
     id="metadata3829">
    <rdf:RDF>
      <cc:Work
         rdf:about="">
        <dc:format>image/svg+xml</dc:format>
        <dc:type
           rdf:resource="http://purl.org/dc/dcmitype/StillImage" />
      </cc:Work>
    </rdf:RDF>
  </metadata>
  <defs
     id="defs3827" />
  <sodipodi:namedview
     pagecolor="#ffffff"
     bordercolor="#666666"
     borderopacity="1"
     objecttolerance="10"
     gridtolerance="10"
     guidetolerance="10"
     inkscape:pageopacity="0"
     inkscape:pageshadow="2"
     inkscape:window-width="2203"
     inkscape:window-height="1248"
     id="namedview3825"
     showgrid="false"
     inkscape:zoom="1.5507812"
     inkscape:cx="59.969767"
     inkscape:cy="256"
     inkscape:window-x="2969"
     inkscape:window-y="35"
     inkscape:window-maximized="0"
     inkscape:current-layer="svg3823" />
  <path
     style="opacity:1;fill:#000000;stroke-width:1.18571901"
     inkscape:connector-curvature="0"
     id="path3815"
     d="m 393.08457,40.294338 v 54.590503 h -18.12965 c -6.54517,0 -10.28018,0.59286 -13.19705,1.446577 l -1.09086,43.990172 a 65.522832,65.522832 0 0 0 6.01159,3.66387 l 0.98415,0.55729 c 7.16174,4.03145 10.8019,6.40289 14.85706,10.33947 6.66374,6.47403 10.5529,14.63178 10.5529,24.28353 v 249.54642 c 0,25.40996 -22.91995,45.88732 -50.52349,45.88732 h -163.2735 c -28.74183,0 -50.90292,-19.32722 -50.90292,-45.88732 V 179.16575 c 0,-8.54904 3.55716,-15.77007 9.49761,-21.48523 3.53344,-3.39116 7.07874,-5.71517 12.90062,-8.96404 l 3.2963,-1.826 c 4.01959,-2.24101 6.03531,-3.59273 7.0906,-4.68359 V 96.378847 c -2.97616,-0.889289 -7.94432,-1.494006 -14.66734,-1.494006 H 128.3728 V 40.294338 Z" />
  <path
     style="opacity:1;fill:#ffffff;stroke-width:1.18571901"
     inkscape:connector-curvature="0"
     id="path3817"
     d="m 211.9067,58.412125 v 84.186045 c 0,13.71877 -5.31202,25.65896 -14.3472,34.955 -5.39502,5.54916 -10.5529,9.04704 -18.44978,13.46977 V 423.85072 H 342.33579 V 188.50921 c -8.47789,-4.77844 -12.55676,-7.4226 -17.54864,-12.17733 -9.20118,-8.73875 -14.85706,-20.1928 -14.85706,-33.74556 V 58.412125 h 65.02483 v 18.35493 c -21.6038,0 -32.4057,5.454307 -32.4057,16.374779 v 49.444486 c 0,17.54864 32.4057,17.54864 32.4057,36.57943 v 249.54642 c 0,14.32348 -13.71877,27.75768 -32.4057,27.75768 h -163.2735 c -19.73037,0 -32.78513,-12.21291 -32.78513,-27.74582 V 179.16575 c 0,-15.82935 32.79698,-15.82935 32.79698,-36.57943 V 93.141834 c 0,-10.908615 -10.93233,-16.374779 -32.79698,-16.374779 v -18.35493 z" />
</svg>
