<?xml version="1.0" encoding="UTF-8" standalone="no"?>
<svg
   xmlns:dc="http://purl.org/dc/elements/1.1/"
   xmlns:cc="http://creativecommons.org/ns#"
   xmlns:rdf="http://www.w3.org/1999/02/22-rdf-syntax-ns#"
   xmlns:svg="http://www.w3.org/2000/svg"
   xmlns="http://www.w3.org/2000/svg"
   xmlns:sodipodi="http://sodipodi.sourceforge.net/DTD/sodipodi-0.dtd"
   xmlns:inkscape="http://www.inkscape.org/namespaces/inkscape"
   viewBox="0 0 512.0 512.0"
   version="1.1"
   id="svg10"
   sodipodi:docname="item_seed.svg"
   inkscape:version="0.92.4 (5da689c313, 2019-01-14)">
  <metadata
     id="metadata16">
    <rdf:RDF>
      <cc:Work
         rdf:about="">
        <dc:format>image/svg+xml</dc:format>
        <dc:type
           rdf:resource="http://purl.org/dc/dcmitype/StillImage" />
      </cc:Work>
    </rdf:RDF>
  </metadata>
  <defs
     id="defs14" />
  <sodipodi:namedview
     pagecolor="#ffffff"
     bordercolor="#666666"
     borderopacity="1"
     objecttolerance="10"
     gridtolerance="10"
     guidetolerance="10"
     inkscape:pageopacity="0"
     inkscape:pageshadow="2"
     inkscape:window-width="922"
     inkscape:window-height="950"
     id="namedview12"
     showgrid="false"
     inkscape:zoom="1.3037281"
     inkscape:cx="340.49802"
     inkscape:cy="203.39738"
     inkscape:window-x="2579"
     inkscape:window-y="98"
     inkscape:window-maximized="0"
     inkscape:current-layer="svg10" />
  <path
     style="fill:#000000"
     inkscape:connector-curvature="0"
     id="path2"
     d="m 354.48,82.07 c 10.03,0 17.25,6.63 19.68,15.96 l 0.49,1.86 V 109 h 51.19 l -0.86,15.81 c -1.6,29.54 -18.31,45.92 -50.33,46.46 v 34.98 c 1.18,0.99 2.68,2.1 4.84,3.6 1.1,0.76 5.83,3.97 7.02,4.8 a 185.5,185.5 0 0 1 8.32,6.03 c 8.95,6.92 15.97,14.1 21.4,22.71 6.79,10.8 10.43,23.06 10.43,36.92 0,25.12 -6.58,42.8 -19.06,53.35 a 42.05,42.05 0 0 1 -17.32,8.77 49.64,49.64 0 0 1 -12.39,1.4 c -6.47,0 -14.24,-1.46 -23.62,-4.27 -1.73,7.25 -6.35,13.35 -13.11,17.43 -3.3,2 -7.04,3.48 -11.15,4.5 v 18.75 c 0,25.77 -24.22,46.32 -48.76,46.32 H 154.09 c -26.47,0 -49.2,-19.95 -49.2,-46.32 v -19.88 a 50.8,50.8 0 0 1 -11.86,-4.88 c -8.56,-5.02 -13.84,-12.8 -13.84,-22.4 V 280.1 l 3,-4 c 6.34,-8.46 14,-14.42 22.7,-17.56 v -12.37 c 0,-27.93 23.7,-48.64 49.2,-48.64 h 121.1 C 257.35,189.66 247.56,172.5 247.56,148 v -15 h 33.59 c -5.54,-6.2 -8.92,-13.6 -9.41,-22.13 L 270.82,95 h 64.77 c 3.27,-7.73 10,-12.93 18.9,-12.93 z m -52.1,120.31 c 16.33,7.93 27.63,24.7 27.63,43.79 v 11.53 a 40.31,40.31 0 0 1 12.1,5.15 32.61,32.61 0 0 1 2.3,1.64 l 10.24,0.88 a 25.46,25.46 0 0 0 6.55,-0.15 c 0,-2.22 -2.26,-5.35 -8.12,-10.18 -0.67,-0.56 -7.76,-6.13 -9.71,-7.85 a 34.96,34.96 0 0 1 -5.26,-5.59 c -2.5,-3.4 -4.07,-7.23 -4.07,-11.77 v -31.15 c -12.22,2.32 -22.75,3.57 -31.67,3.7 z" />
  <path
     style="fill:#ffffff"
     inkscape:connector-curvature="0"
     id="path4"
     d="m 340.01,317.43 v 15.65 c 0,9.43 -9.29,15.07 -25,15.07 v 32.1 c 0,18.21 -18.57,31.31 -33.76,31.31 H 154.09 c -17.84,0 -34.2,-13.05 -34.2,-31.32 v -32.1 c -17.13,-2.45 -25.7,-7.47 -25.7,-15.06 V 317.43 H 340 Z M 229,338 v 23.08 L 251.2,338 Z m 46,0 v 23.08 L 297.2,338 Z m -138,0 v 23.08 L 159.2,338 Z m 46,0 v 23.08 L 205.2,338 Z M 340.01,302.43 H 94.2 V 285.1 c 7.06,-9.42 15.63,-14.13 25.7,-14.13 v -24.8 c 0,-21.04 18.73,-33.64 34.2,-33.64 h 127.16 c 18.78,0 33.76,15.55 33.76,33.64 v 24.8 c 17.15,0 25,7.2 25,14.13 v 17.33 z M 297.2,281.08 V 258 L 275,281.08 Z m -138,0 V 258 L 137,281.08 Z m 46,0 V 258 L 183,281.08 Z m 46,0 V 258 L 229,281.08 Z m 102.17,-0.77 c 15.23,1.3 22.84,-3.9 22.84,-15.6 0,-17.56 -27.17,-27.47 -27.17,-34.88 V 101.81 c 1,-3.16 2.82,-4.74 5.44,-4.74 2.62,0 4.34,1.58 5.17,4.74 v 107.77 c 0,13.97 52.01,23.7 52.01,70.73 0,47.03 -25.4,48.52 -33.77,48.52 -5.57,0 -13.38,-1.64 -23.4,-4.92 z M 339,148 v 34.37 c -15.57,3.35 -28.3,5.02 -38.22,5.02 -25.48,0 -38.22,-13.13 -38.22,-39.39 z m 31,-24 h 40 c -1.17,21.52 -14.5,32.28 -40,32.28 z m -31,-14 v 30.28 c -19.57,0 -51.12,-10.1 -52.29,-30.28 z" />
</svg>
