<?xml version="1.0" encoding="UTF-8" standalone="no"?>
<svg
   xmlns:dc="http://purl.org/dc/elements/1.1/"
   xmlns:cc="http://creativecommons.org/ns#"
   xmlns:rdf="http://www.w3.org/1999/02/22-rdf-syntax-ns#"
   xmlns:svg="http://www.w3.org/2000/svg"
   xmlns="http://www.w3.org/2000/svg"
   xmlns:sodipodi="http://sodipodi.sourceforge.net/DTD/sodipodi-0.dtd"
   xmlns:inkscape="http://www.inkscape.org/namespaces/inkscape"
   viewBox="0 0 512.0 512.0"
   version="1.1"
   id="svg12"
   sodipodi:docname="item_barrelbomb.svg"
   inkscape:version="0.92.4 (5da689c313, 2019-01-14)">
  <metadata
     id="metadata18">
    <rdf:RDF>
      <cc:Work
         rdf:about="">
        <dc:format>image/svg+xml</dc:format>
        <dc:type
           rdf:resource="http://purl.org/dc/dcmitype/StillImage" />
      </cc:Work>
    </rdf:RDF>
  </metadata>
  <defs
     id="defs16" />
  <sodipodi:namedview
     pagecolor="#ffffff"
     bordercolor="#666666"
     borderopacity="1"
     objecttolerance="10"
     gridtolerance="10"
     guidetolerance="10"
     inkscape:pageopacity="0"
     inkscape:pageshadow="2"
     inkscape:window-width="640"
     inkscape:window-height="480"
     id="namedview14"
     showgrid="false"
     inkscape:zoom="0.4609375"
     inkscape:cx="256"
     inkscape:cy="256"
     inkscape:window-x="2475"
     inkscape:window-y="330"
     inkscape:window-maximized="0"
     inkscape:current-layer="svg12" />
  <path
     style="fill:#000000"
     inkscape:connector-curvature="0"
     id="path2"
     d="m 400.05,259.96 c -5.42,-19.22 -13.94,-33.74 -24.6,-43.5 V 176.53 H 135.47 v 39.94 c -10.67,9.75 -18.64,24.27 -24.05,43.49 a 167.66,167.66 0 0 0 -5.43,30.1 l 0.08,52.1 a 163.99,163.99 0 0 0 5.33,29.51 c 5.4,19 13.4,33.23 24.07,42.32 V 456 h 239.96 v -42 c 10.67,-9.1 19.2,-23.32 24.59,-42.33 a 175.32,175.32 0 0 0 5.7,-29.52 l -0.05,-52.1 a 174.15,174.15 0 0 0 -5.63,-30.1 z" />
  <path
     style="fill:#ffffff"
     inkscape:connector-curvature="0"
     id="path4"
     d="m 122,303.47 h 45.87 v 23.46 H 122 Z m 68.27,0 h 56.53 v 23.46 h -56.53 z m 198.4,23.46 H 342.8 v -23.46 h 45.87 z m -65.07,0 H 267.07 V 303.47 H 323.6 Z M 176.15,226.67 h -21.56 c -28.37,16 -31.52,67.2 -31.52,67.2 h 69.8 c 0,-44.8 11.26,-67.2 11.26,-67.2 z m 0,174.93 h -21.56 c -28.37,-14.93 -31.52,-64 -31.52,-64 h 69.8 c 0,41.6 11.26,64 11.26,64 z M 290.57,226.67 h -68.34 c -17.2,16 -14.78,67.2 -14.78,67.2 h 97.9 c 0,0 2.42,-51.2 -14.78,-67.2 z m 46.08,0 h 21.56 c 28.37,16 31.52,67.2 31.52,67.2 h -69.8 c 0,-44.8 -11.26,-67.2 -11.26,-67.2 z m -31.3,110.93 h -97.9 c 0,0 -2.42,48 14.78,64 h 68.34 c 17.2,-16 14.78,-64 14.78,-64 z m 31.3,64 h 21.56 c 28.37,-14.93 31.52,-64 31.52,-64 h -69.8 c 0,41.6 -11.26,64 -11.26,64 z M 152.93,190.4 H 186 v 21.33 h -33.07 z m 171.74,0 h 34.13 v 21.33 h -34.13 z m -54.4,0 h 30.93 v 21.33 h -30.93 z m -59.74,0 h 34.14 v 21.33 h -34.14 z m -57.6,227.2 H 186 V 440 h -33.07 z m 171.74,0 H 358.8 V 440 h -34.13 z m -54.4,0 H 301.2 V 440 h -30.93 z m -59.74,0 h 34.14 V 440 H 210.53 Z M 291.6,125.33 h 53.33 V 158.4 H 291.6 Z m -51.2,12.8 h 33.07 V 174.4 H 240.4 Z m -71.47,-12.8 h 53.34 V 158.4 H 168.93 Z M 240.4,62.4 h 33.07 v 52.27 H 240.4 Z m 32,46.51 37.98,-37.98 23.89,23.9 -37.98,37.97 z m -91.73,-14.09 23.89,-23.89 37.97,37.98 -23.89,23.89 z" />
  <path
     style="fill:#000000"
     inkscape:connector-curvature="0"
     id="path6"
     d="M 319.8,118.93 343.6,95.1 310.7,62.2 279.87,92.45 V 56 h -46.94 v 35.68 l -28.72,-29.48 -32.67,32.88 23.83,23.85 h -32.84 v 46.94 l 70.4,-0.18 v 20.44 h 46.94 v -20.26 h 70.4 V 118.93 H 319.79 Z M 245.73,104.6 V 68.8 h 21.34 v 40.53 h -21.34 z m -29.86,34.76 v 13.7 h -40.54 v -21.33 h 40.54 z m 8.23,-19.97 -4.88,4.88 -4.88,-4.88 -24.07,-24.07 14.78,-14.79 28.95,28.95 -9.9,9.9 z m 42.97,51.81 h -21.34 v -33.07 h 21.34 z m 24.83,-51.81 -9.9,-9.9 28.95,-28.96 14.78,14.79 -24.07,24.07 -4.88,4.88 z m 45.57,33.68 h -40.54 v -21.34 h 40.54 z" />
</svg>
