<?xml version="1.0" encoding="UTF-8" standalone="no"?>
<svg
   xmlns:dc="http://purl.org/dc/elements/1.1/"
   xmlns:cc="http://creativecommons.org/ns#"
   xmlns:rdf="http://www.w3.org/1999/02/22-rdf-syntax-ns#"
   xmlns:svg="http://www.w3.org/2000/svg"
   xmlns="http://www.w3.org/2000/svg"
   xmlns:sodipodi="http://sodipodi.sourceforge.net/DTD/sodipodi-0.dtd"
   xmlns:inkscape="http://www.inkscape.org/namespaces/inkscape"
   viewBox="0 0 512.0 512.0"
   version="1.1"
   id="svg10"
   sodipodi:docname="item_ammo.svg"
   inkscape:version="0.92.4 (5da689c313, 2019-01-14)">
  <metadata
     id="metadata16">
    <rdf:RDF>
      <cc:Work
         rdf:about="">
        <dc:format>image/svg+xml</dc:format>
        <dc:type
           rdf:resource="http://purl.org/dc/dcmitype/StillImage" />
      </cc:Work>
    </rdf:RDF>
  </metadata>
  <defs
     id="defs14" />
  <sodipodi:namedview
     pagecolor="#ffffff"
     bordercolor="#666666"
     borderopacity="1"
     objecttolerance="10"
     gridtolerance="10"
     guidetolerance="10"
     inkscape:pageopacity="0"
     inkscape:pageshadow="2"
     inkscape:window-width="1129"
     inkscape:window-height="907"
     id="namedview12"
     showgrid="false"
     inkscape:zoom="0.921875"
     inkscape:cx="314.91563"
     inkscape:cy="373.0713"
     inkscape:window-x="2405"
     inkscape:window-y="103"
     inkscape:window-maximized="0"
     inkscape:current-layer="svg10" />
  <path
     style="fill:#ffffff"
     inkscape:connector-curvature="0"
     id="path2"
     d="m 153.42,177.76 c 2.96,-9.28 31.57,-93.37 101.67,-110.79 l 0.44,0.11 c 63.81,16.15 93.1,87.58 99.9,106.76 l 41.85,37.27 -40.26,35.85 v 5.77 l 40.26,35.86 -40.26,35.85 v 5.44 l 40.26,35.86 -40.11,35.72 22.77,22.27 v 22.3 h -65.35 v -55.85 h -31.15 v 55.84 h -56.66 l 0.3,-55.84 h -33.04 v 55.84 H 130.6 v -22.3 l 22.55,-22.57 v -2.3 l -37.18,-33.11 37.18,-33.12 V 321.7 l -37.18,-33.12 37.18,-33.12 v -11.24 l -37.18,-33.12 37.44,-33.35 z" />
  <path
     style="fill:#000000"
     inkscape:connector-curvature="0"
     id="path4"
     d="m 144.74,176.03 a 217.05,217.05 0 0 1 35.42,-67.95 c 18,-23.27 42,-42.46 71.43,-50.13 l 3.74,-0.95 3.75,0.96 c 37.11,9.66 67,39.45 86,71.73 8.6,14.62 15.9,30.16 20.85,46.3 l 0.15,0.51 a 12.21,12.21 0 0 1 1.67,-0.04 13.71,13.71 0 0 1 8.24,3.24 c 0.32,0.28 0.4,0.36 0.7,0.65 l 21.81,21.83 c 4.78,4.95 5.13,13.33 0.33,18.49 l -0.33,0.33 -21.81,21.82 a 12.91,12.91 0 0 1 -10.1,3.36 v 6.63 l 0.2,-0.01 h 0.96 a 11.36,11.36 0 0 1 2.82,0.4 c 2.3,0.59 4.39,1.82 6.12,3.49 l 21.81,21.82 c 4.78,4.96 5.13,13.34 0.33,18.5 l -0.33,0.34 -21.81,21.82 a 13.1,13.1 0 0 1 -10.1,3.42 v 8.04 h 0.2 a 11.36,11.36 0 0 1 3.77,0.4 c 2.3,0.59 4.4,1.82 6.13,3.49 l 21.81,21.82 c 4.78,4.95 5.13,13.34 0.33,18.5 l -0.33,0.33 -21.81,21.83 a 11.74,11.74 0 0 1 -2.38,1.77 l 11.07,11.01 a 12.1,12.1 0 0 1 2,2.5 14.76,14.76 0 0 1 2.21,7.62 v 21.82 c -0.14,7.39 -6.28,13.98 -13.71,14.26 l -0.55,0.01 h -54.54 c -7.38,-0.14 -13.97,-6.29 -14.26,-13.72 V 400.8 h -9.82 v 40.93 c -0.14,7.36 -6.13,13.97 -13.71,14.26 L 282.45,456 H 227.9 c -7.43,-0.14 -14.04,-6.36 -14.26,-13.84 v -0.55 l 0.34,-40.81 h -9.85 v 40.93 c -0.14,7.39 -6.28,13.98 -13.71,14.26 l -0.55,0.01 h -54.54 c -7.35,-0.14 -13.96,-6.13 -14.25,-13.72 l -0.01,-0.55 v -21.82 a 12.15,12.15 0 0 1 0.35,-3.19 c 0.6,-2.6 1.97,-4.99 3.85,-6.93 l 11.28,-11.21 a 13.4,13.4 0 0 1 -1.64,-1.3 l -0.34,-0.33 -21.82,-21.83 c -4.78,-4.95 -5.13,-13.34 -0.33,-18.5 l 0.33,-0.33 21.81,-21.83 a 13.38,13.38 0 0 1 9.51,-3.9 v -8.1 a 12.12,12.12 0 0 1 -8.8,-3.37 l -0.35,-0.33 -21.82,-21.83 c -4.77,-4.95 -5.12,-13.33 -0.33,-18.49 l 0.33,-0.34 21.82,-21.82 c 1.05,-1.02 1.27,-1.14 1.82,-1.52 a 13.38,13.38 0 0 1 7.33,-2.39 v -6.13 a 11.65,11.65 0 0 1 -3.49,-0.47 13.8,13.8 0 0 1 -5.66,-3.36 L 113.1,220.59 c -4.77,-4.95 -5.12,-13.34 -0.33,-18.5 l 0.33,-0.34 21.82,-21.82 c 1.05,-1.02 1.27,-1.14 1.82,-1.52 a 13.4,13.4 0 0 1 6.65,-2.35 c 0.83,-0.06 1.08,-0.03 1.34,-0.03 z m 137.82,225.1 h -54.5 l -0.36,40.9 h 54.86 z m -92.77,0 h -35.53 l -19.33,19.1 v 21.8 h 54.87 v -40.9 z m 166.21,0 h -35.53 v 40.9 h 54.86 v -21.8 z m 11.35,-12.96 21.95,-21.95 -21.95,-21.94 z m -245.38,-21.95 21.94,21.95 v -43.9 z m 231.42,20.95 V 267.47 H 158.13 v 41.66 a 11.53,11.53 0 0 1 -0.25,2.2 v 75.84 h 195.5 z m 13.96,-76.8 21.95,-21.95 -21.95,-21.95 z m -244.39,-23.45 21.95,21.45 v -42.9 z m 34.92,-72.32 v 38.9 h 193.51 v -38.9 z m 209.47,18.96 21.95,-21.95 -21.95,-21.94 z m -244.39,-22.46 21.95,21.45 v -42.9 z m 230.43,-10.47 v -20.02 c -7.04,-23.94 -19.7,-47.09 -34.94,-66.23 -16.07,-20.2 -37.28,-36.87 -62.83,-43.43 l -0.42,0.11 c -32.97,8.62 -59.74,35.56 -76.94,64.45 -8.44,14.18 -15.66,29.25 -20.38,45.03 v 6.83 a 12.41,12.41 0 0 1 0.23,2 v 11.26 H 353.4 Z" />
</svg>
