<?xml version="1.0" encoding="UTF-8" standalone="no"?>
<svg
   xmlns:dc="http://purl.org/dc/elements/1.1/"
   xmlns:cc="http://creativecommons.org/ns#"
   xmlns:rdf="http://www.w3.org/1999/02/22-rdf-syntax-ns#"
   xmlns:svg="http://www.w3.org/2000/svg"
   xmlns="http://www.w3.org/2000/svg"
   xmlns:sodipodi="http://sodipodi.sourceforge.net/DTD/sodipodi-0.dtd"
   xmlns:inkscape="http://www.inkscape.org/namespaces/inkscape"
   viewBox="0 0 512.0 512.0"
   version="1.1"
   id="svg8"
   sodipodi:docname="item_smoke.svg"
   inkscape:version="0.92.4 (5da689c313, 2019-01-14)">
  <metadata
     id="metadata14">
    <rdf:RDF>
      <cc:Work
         rdf:about="">
        <dc:format>image/svg+xml</dc:format>
        <dc:type
           rdf:resource="http://purl.org/dc/dcmitype/StillImage" />
      </cc:Work>
    </rdf:RDF>
  </metadata>
  <defs
     id="defs12" />
  <sodipodi:namedview
     pagecolor="#ffffff"
     bordercolor="#666666"
     borderopacity="1"
     objecttolerance="10"
     gridtolerance="10"
     guidetolerance="10"
     inkscape:pageopacity="0"
     inkscape:pageshadow="2"
     inkscape:window-width="742"
     inkscape:window-height="480"
     id="namedview10"
     showgrid="false"
     inkscape:zoom="0.4609375"
     inkscape:cx="256"
     inkscape:cy="256"
     inkscape:window-x="3206"
     inkscape:window-y="546"
     inkscape:window-maximized="0"
     inkscape:current-layer="svg8" />
  <path
     style="fill:#ffffff"
     inkscape:connector-curvature="0"
     id="path2"
     d="m 397.13525,179.80678 h -26.77 v -63.8 c 0,-28.86 -21.88,-51.08 -50.98,-51.08 h -147.37 c -14.13,0 -28.12,4.99 -38.16,14.4 -10.32,9.68 -16.68,22.58 -16.68,36.68 v 70.93 a 84.7,84.7 0 0 0 0.68,8.65 64.61,64.61 0 0 0 -46.429996,61.64 v 19.7 c 0,35.07 31.059996,64.6 66.979996,64.6 h 81.98 c 16.47,0 30.95,13.62 32.27,30.3 a 8.83,8.83 0 0 0 0.68,2.76 v 4.37 c -0.15,6.98 -2.35,29.59 -24.73,29.59 h -10.37 v 38.3 h 91.49 v -37.59 l -7.56,-0.72 c -16.66,-1.54 -27.44,-13.07 -27.74,-29.38 l 0.06,-11.71 c 2.45,-14.67 11.67,-24.4 24.9,-25.8 l 97.06,-0.01 c 17.06,0 30.3,-14.38 30.3,-32.05 v -99.36 c 0,-17.33 -12.26,-30.4 -29.61,-30.4 z" />
  <path
     style="fill:#000000"
     inkscape:connector-curvature="0"
     id="path4"
     d="m 397.71525,171.30678 h -17.78 v -55.32 c 0,-16.45 -5.96,-31.4 -17.33,-42.62 -11.28,-11.12 -26.23,-16.96 -42.64,-16.96 h -147.37 c -16.35,0 -32.12,5.73 -43.77,16.66 -12.11,11.35 -19.11,26.4 -19.11,42.94 v 70.93 c 0,0.86 -0.21,1.72 -0.2,2.6 -27.339996,10.95 -46.599996,37.6 -46.599996,67.69 v 19.69 c 0,39.79 35.44,74.17 76.059996,74.17 h 81.99 c 11.83,0 22.65,10.1 23.6,22.16 0.04,0.43 0.1,0.81 0.17,1.24 l -0.1,4.78 c -0.14,6.88 -1.86,13.02 -4.84,16.75 -1.63,2.05 -4.57,5.07 -11.2,5.07 h -19.94 v 55.32 h 109.58 v -55.09 l -15.37,-1.45 c -12.13,-1.12 -19.58,-8.83 -19.8,-20.59 v -4.6 a 17.66,17.66 0 0 0 0.28,-1.96 c 0.43,-6.1 3,-20.46 17.3,-22.24 l 96.55,-0.08 c 21.86,0 39.12,-18.35 39.12,-40.81 v -99.38 c 0,-22.2 -16.37,-38.92 -38.6,-38.92 z m -97.57,245.95 v 22.13 h -73.4 v -21.2 h 1.86 c 18.6,0 29.38,-12.33 32.48,-28.8 0.28,0.01 0.55,0.17 0.82,0.17 h 4.1 c 0.3,0 0.1,-0.14 0.39,-0.16 2.08,11.01 9.29,27.86 33.75,27.86 z m 119.15,-107.67 c 0,12.6 -9.3,23.34 -21.92,23.34 l -97.82,0.45 c -16.67,1.56 -28.06,13.46 -32.09,29.41 h -7.43 c -5.4,-17.02 -21.15,-29.78 -39.07,-29.78 h -81.99 c -30.57,0 -59.039996,-25.51 -59.039996,-56.1 v -19.69 c 0,-26.47 19.87,-48.75 44.819996,-54.27 a 25553.77,25553.77 0 0 0 33.35,0 c 0.23,0 23.07,-0.68 34.56,10.3 4.42,4.24 6.6,9.73 6.6,16.78 0,9.5 -2.33,16.48 -6.96,20.73 -6.55,6.02 -16.2,5.28 -16.23,5.28 a 7.57,7.57 0 0 0 -1,-0.04 c -0.1,0 -6.69,-0.11 -11.27,-4.63 -3.3,-3.25 -4.97,-8.32 -4.97,-15.07 a 8.7,8.7 0 0 0 -17.4,0 c 0,11.58 3.42,20.82 10.16,27.46 9,8.87 20.54,9.58 23.27,9.62 a 34.04,34.04 0 0 0 2.15,0.07 c 5.3,0 17.3,-1.08 26.86,-9.72 8.5,-7.68 12.8,-19.06 12.8,-33.75 0,-11.89 -4,-21.82 -11.93,-29.4 -16.4,-15.7 -44.33,-15.33 -47.31,-15.23 -15.35,0 -25.37,-0.06 -30.69,-0.13 v -69.21 c 0,-24.37 21.48,-42.57 45.85,-42.57 h 147.37 c 24.37,0 41.89,18.2 41.89,42.57 v 12.57 c -11.7,-13.15 -28.92,-19.86 -51.25,-19.95 -4.95,-0.49 -39.92,-3.17 -61.52,16.09 -10.98,9.79 -16.45,23.28 -16.45,40.1 0,19.9 5.46,34.78 16.14,44.23 11.68,10.34 25.83,10.4 30.02,10.14 3.98,0.37 16.63,0.68 27.27,-8.5 9.34,-8.06 14.08,-20.77 14.08,-37.78 a 8.7,8.7 0 0 0 -17.38,0 c 0,11.63 -2.67,19.87 -7.92,24.5 -6.17,5.44 -14.59,4.45 -14.6,4.45 a 7.04,7.04 0 0 0 -2.25,-0.04 c -0.1,0.01 -10.16,0.96 -17.8,-5.93 -6.7,-6.03 -10.08,-16.48 -10.08,-31.06 0,-11.8 3.5,-20.66 10.69,-27.1 16.9,-15.12 48.4,-11.8 48.7,-11.77 a 8.69,8.69 0 0 0 1,0.06 c 17.39,0 30.55,4.76 39.12,14.16 13.93,15.29 11.96,38.5 11.94,38.7 a 8.74,8.74 0 0 0 -0.04,0.86 c 0,21.9 -5.79,38.15 -17.19,48.31 -16.64,14.84 -40.52,12.35 -40.93,12.3 a 8.7,8.7 0 0 0 -2.08,17.27 58.26,58.26 0 0 0 6.62,0.32 c 10.45,0 31.22,-2.21 47.8,-16.9 13.66,-12.08 21.31,-29.3 22.86,-52.7 h 19.1 c 12.62,0 21.6,9.28 21.6,21.9 v 99.36 z" />
</svg>
