<?xml version="1.0" encoding="UTF-8" standalone="no"?>
<svg
   xmlns:dc="http://purl.org/dc/elements/1.1/"
   xmlns:cc="http://creativecommons.org/ns#"
   xmlns:rdf="http://www.w3.org/1999/02/22-rdf-syntax-ns#"
   xmlns:svg="http://www.w3.org/2000/svg"
   xmlns="http://www.w3.org/2000/svg"
   xmlns:sodipodi="http://sodipodi.sourceforge.net/DTD/sodipodi-0.dtd"
   xmlns:inkscape="http://www.inkscape.org/namespaces/inkscape"
   viewBox="0 0 512.0 512.0"
   version="1.1"
   id="svg10"
   sodipodi:docname="item_body.svg"
   inkscape:version="0.92.4 (5da689c313, 2019-01-14)">
  <metadata
     id="metadata16">
    <rdf:RDF>
      <cc:Work
         rdf:about="">
        <dc:format>image/svg+xml</dc:format>
        <dc:type
           rdf:resource="http://purl.org/dc/dcmitype/StillImage" />
      </cc:Work>
    </rdf:RDF>
  </metadata>
  <defs
     id="defs14" />
  <sodipodi:namedview
     pagecolor="#ffffff"
     bordercolor="#666666"
     borderopacity="1"
     objecttolerance="10"
     gridtolerance="10"
     guidetolerance="10"
     inkscape:pageopacity="0"
     inkscape:pageshadow="2"
     inkscape:window-width="1718"
     inkscape:window-height="1368"
     id="namedview12"
     showgrid="false"
     inkscape:zoom="0.4609375"
     inkscape:cx="256"
     inkscape:cy="256"
     inkscape:window-x="1913"
     inkscape:window-y="0"
     inkscape:window-maximized="0"
     inkscape:current-layer="svg10" />
  <path
     style="fill:#000000"
     inkscape:connector-curvature="0"
     id="path2"
     d="m 266.14576,146.0678 h 122.58 a 36.55,36.55 0 0 1 36.56,36.55 v 186.94 a 35.8,35.8 0 0 1 -9.4,24.47 v 58.04 H 82.725763 v -58.04 a 36.42,36.42 0 0 1 -9.4,-24.47 v -186.94 a 36.55,36.55 0 0 1 36.549997,-36.56 h 7.93 V 52.517797 h 94.42 l 95.95,-0.45 v 42.22 h -9.88 V 128.4278 h -32.15 z m -53.92,0 V 94.737797 h -8.35 V 128.8678 h -32.15 v 17.2 z m 11.13,137.42 c 22.98,3.7 37.96,19.15 37.96,46.9 v 49.58 c 0,16.44 -9.68,27.43 -25.6,27.43 h -89.78 c -20.84,0 -39.4,-2.68 -53.539997,-8.23 -18.72,-7.37 -31.51,-20.24 -31.51,-38.15 -0.07,-13.05 -0.1,-23.26 -0.1,-30.63 0,-26.3 8.77,-46.96 25.04,-60.88 13.72,-11.74 31.769997,-17.84 51.619997,-18.85 28.3,-1.46 48.83,6.22 62.94,20.63 a 67.2,67.2 0 0 1 8.88,11.24 c 5.4,-0.03 9.41,0.2 14.1,0.96 z" />
  <path
     style="fill:#ffffff"
     inkscape:connector-curvature="0"
     id="path4"
     d="m 321.28576,367.6478 56.33,-46.34 v -110.26 h -23.17 v 105.3 l -37.23,29.26 h -55.9 v -15.22 c 0,-27.75 -14.97,-43.2 -37.95,-46.9 a 79.78,79.78 0 0 0 -14.1,-0.96 67.2,67.2 0 0 0 -8.87,-11.24 c -8.78,-8.96 -22.04,-15.32 -36.11,-18.5 v -57.64 h -20.04 v 55.35 c -1.58,0.02 -5.18,0.07 -6.8,0.16 -1.2,0.06 -4.38,0.14 -5.56,0.24 v -55.75 h -20.01 v 60.72 c -7.6,2.67 -16.639997,6.35 -22.889997,11.09 v -84.34 a 20.89,20.89 0 0 1 20.899997,-20.89 h 278.84 a 20.89,20.89 0 0 1 20.89,20.89 v 186.94 a 20.89,20.89 0 0 1 -20.89,20.9 h -128.93 c 1,-3.16 1.52,-6.68 1.52,-10.5 v -12.3 h 59.97 z m -165.54,-22.04 -22.5,22.04 h 112.4 v 12.32 c 0,8.45 -3.36,11.76 -9.93,11.76 h -89.78 c -36.3,0 -69.389997,-8.8 -69.389997,-30.7 l -0.1,-30.64 c 0,-46.72 31.569997,-62.53 61.809997,-64.09 53.09,-2.73 59.15,32.05 63.12,32.05 12.77,-0.08 44.27,-3.9 44.27,32.04 v 15.22 z m -55.749997,-33.56 h 55.879997 l -3.14,-22.06 h -49.61 z m 33.479997,-178.88 V 68.167797 h 64.62 v 10.9 h -42.03 V 100.6678 h 32.14 v 12.54 h -32.14 v 19.96 h -22.6 z m 94.42,-0.45 V 67.717797 h 64.62 v 10.9 h -42.03 V 100.2178 h 32.14 v 12.55 h -32.14 v 19.96 h -22.6 z m 147.25,280.7 h 25.07 v 22.97 h -25.07 z m -55.35,0 h 25.07 v 22.97 h -25.07 z m -55.35,0 h 25.07 v 22.97 h -25.07 z m -55.35,0 h 25.06 v 22.97 h -25.06 z m -55.36,0 h 25.07 v 22.97 h -25.07 z m -30.28,-9.28 v 32.25 H 98.385763 v -36.16 c 7.169997,2.52 15.519997,3.82 25.069997,3.91 z" />
  <path
     style="fill:#ffffff"
     inkscape:connector-curvature="0"
     id="path6"
     d="m 93.135763,395.4378 v 47.62 H 406.88576 v -35.97 z" />
</svg>
