<?xml version="1.0" encoding="UTF-8" standalone="no"?>
<svg
   xmlns:dc="http://purl.org/dc/elements/1.1/"
   xmlns:cc="http://creativecommons.org/ns#"
   xmlns:rdf="http://www.w3.org/1999/02/22-rdf-syntax-ns#"
   xmlns:svg="http://www.w3.org/2000/svg"
   xmlns="http://www.w3.org/2000/svg"
   xmlns:sodipodi="http://sodipodi.sourceforge.net/DTD/sodipodi-0.dtd"
   xmlns:inkscape="http://www.inkscape.org/namespaces/inkscape"
   viewBox="0 0 512.0 512.0"
   version="1.1"
   id="svg10"
   sodipodi:docname="item_fang.svg"
   inkscape:version="0.92.4 (5da689c313, 2019-01-14)">
  <metadata
     id="metadata16">
    <rdf:RDF>
      <cc:Work
         rdf:about="">
        <dc:format>image/svg+xml</dc:format>
        <dc:type
           rdf:resource="http://purl.org/dc/dcmitype/StillImage" />
      </cc:Work>
    </rdf:RDF>
  </metadata>
  <defs
     id="defs14" />
  <sodipodi:namedview
     pagecolor="#ffffff"
     bordercolor="#666666"
     borderopacity="1"
     objecttolerance="10"
     gridtolerance="10"
     guidetolerance="10"
     inkscape:pageopacity="0"
     inkscape:pageshadow="2"
     inkscape:window-width="958"
     inkscape:window-height="1008"
     id="namedview12"
     showgrid="false"
     inkscape:zoom="0.65186406"
     inkscape:cx="76.265531"
     inkscape:cy="496.18854"
     inkscape:window-x="2332"
     inkscape:window-y="54"
     inkscape:window-maximized="0"
     inkscape:current-layer="svg10" />
  <path
     style="fill:#000000"
     inkscape:connector-curvature="0"
     id="path2"
     d="M 320.52,77.45 256,141.97 191.48,77.45 126.97,141.97 56.85,71.85 h 398.3 l -70.12,70.12 z M 455.15,441.97 H 56.85 l 70.12,-70.12 64.51,64.51 64.52,-64.51 64.52,64.51 64.51,-64.51 z M 258.74,220.47 c 3.57,-12.27 5.6,-26.73 6.12,-43.5 l 0.49,-15.61 h 98.33 v 16.12 c 0,33.81 -6.7,66.99 -20.65,95.4 23.7,-5.91 43.05,-27.58 55.44,-63.27 l 19.39,-55.83 11.66,57.94 c 6.84,34 2.62,69.5 -13.26,96.83 -18.82,32.37 -52.1,50.85 -96.79,50.85 -23.46,0 -44.6,-3.28 -63.4,-9.56 -18.8,6.28 -39.95,9.56 -63.4,9.56 -44.7,0 -77.98,-18.48 -96.8,-50.85 -15.88,-27.32 -20.1,-62.82 -13.25,-96.83 l 11.66,-57.94 19.38,55.83 c 12.4,35.7 31.75,57.36 55.44,63.27 -13.94,-28.41 -20.64,-61.59 -20.64,-95.4 v -16.12 h 108.56 l -0.8,16.9 c -0.78,16.21 0.1,30.27 2.52,42.2 z" />
  <path
     style="fill:#ffffff"
     inkscape:connector-curvature="0"
     id="path4"
     d="m 248.77,243.32 c -12.57,19.97 -32.6,29.99 -60.6,31.11 -17.41,-30.46 -23.58,-66.27 -23.58,-96.95 h 75.51 c -1.27,26.65 1.62,48.6 8.67,65.84 z m 84.21,47.26 c 37.06,-1.74 65.02,-30.44 80.73,-75.68 11.46,56.95 -10.43,128.37 -94.24,128.37 -14.36,0 -27.48,-1.3 -39.45,-3.73 a 143.3,143.3 0 0 0 49.36,-43.67 c 1.24,-1.74 2.44,-3.5 3.6,-5.29 z m -52,-113.1 h 66.57 c 0,69.68 -31.84,165.79 -154.89,165.79 -83.8,0 -105.7,-71.42 -94.23,-128.37 16.2,46.7 45.47,75.77 84.32,75.77 63.12,0 95.86,-37.73 98.23,-113.19 z m -154.01,217.18 31.18,31.18 H 95.78 Z m 129.03,0 31.18,31.18 h -62.36 z m 129.03,0 31.19,31.18 H 353.85 Z M 126.97,119.16 95.78,87.98 h 62.37 z m 129.03,0 -31.18,-31.18 h 62.36 z m 129.03,0 -31.18,-31.18 h 62.37 z" />
  <path
     style="fill:#ffffff"
     inkscape:connector-curvature="0"
     id="path6"
     d="m 280.02,339.54 c 0,0 59.76455,-20.69666 52.96,-48.96 44.33288,15.31199 80.73,-75.68 80.73,-75.68 l -26.19101,72.06414 C 287.96546,346.62082 325.51655,330.37848 280.02,339.54 Z M 164.59,177.48 h 75.51 l -2.01731,18.69529 5.34365,23.57236 L 248.77,243.32 225.03352,266.46672 188.17,274.43 Z"
     sodipodi:nodetypes="ccccccccccccc" />
</svg>
