<?xml version="1.0" encoding="UTF-8" standalone="no"?>
<svg
   xmlns:dc="http://purl.org/dc/elements/1.1/"
   xmlns:cc="http://creativecommons.org/ns#"
   xmlns:rdf="http://www.w3.org/1999/02/22-rdf-syntax-ns#"
   xmlns:svg="http://www.w3.org/2000/svg"
   xmlns="http://www.w3.org/2000/svg"
   xmlns:sodipodi="http://sodipodi.sourceforge.net/DTD/sodipodi-0.dtd"
   xmlns:inkscape="http://www.inkscape.org/namespaces/inkscape"
   viewBox="0 0 512.0 512.0"
   version="1.1"
   id="svg8"
   sodipodi:docname="item_charmore.svg"
   inkscape:version="0.92.4 (5da689c313, 2019-01-14)">
  <metadata
     id="metadata14">
    <rdf:RDF>
      <cc:Work
         rdf:about="">
        <dc:format>image/svg+xml</dc:format>
        <dc:type
           rdf:resource="http://purl.org/dc/dcmitype/StillImage" />
      </cc:Work>
    </rdf:RDF>
  </metadata>
  <defs
     id="defs12" />
  <sodipodi:namedview
     pagecolor="#ffffff"
     bordercolor="#666666"
     borderopacity="1"
     objecttolerance="10"
     gridtolerance="10"
     guidetolerance="10"
     inkscape:pageopacity="0"
     inkscape:pageshadow="2"
     inkscape:window-width="1718"
     inkscape:window-height="1368"
     id="namedview10"
     showgrid="false"
     inkscape:zoom="0.4609375"
     inkscape:cx="256"
     inkscape:cy="256"
     inkscape:window-x="1913"
     inkscape:window-y="0"
     inkscape:window-maximized="0"
     inkscape:current-layer="svg8" />
  <path
     style="fill:#000000"
     inkscape:connector-curvature="0"
     id="path2"
     d="m 160.83373,212.68627 c 19.96,-31.22 53.47,-49.63 100.52,-49.63 47.27,0 82.2,17.96 104.16,48.97 12.05,17.02 19.4,37.16 22.26,56.12 11.34,2.04 21.56,6.04 30.03,11.74 13.69,9.2 22.3,22.62 22.3,37.31 v 127.25 h -98.37 v 13.58 h -199.89 v -20.95 H 84.823729 v -101.65 c 0,-14.8 5.77,-33.24 16.100001,-47.78 10.4,-14.69 24.8,-24.95 42.43,-29.07 2.49,-14.88 8.12,-31.26 17.47,-45.9 z m 55.82,-131.049999 c -7.77,-8.26 -1.9,-21.81 9.43,-21.81 h 65.45 c 11.53,0 17.3,13.94 9.15,22.1 l -33.72,33.719999 a 12.94,12.94 0 0 1 -18.59,-0.28 z m -85.23,74.949999 H 83.623729 c -11.53,-0.01 -17.3,-13.94 -9.15,-22.11 L 122.26373,86.696271 c 8.15,-8.16 22.1,-2.38 22.1,9.15 v 47.779999 c 0,7.15 -5.8,12.95 -12.95,12.95 z m 239.63,-12.68 V 96.116271 c 0,-11.53 13.94,-17.3 22.1,-9.15 l 47.78,47.779999 c 8.16,8.16 2.38,22.1 -9.15,22.1 h -47.79 c -7.15,0 -12.94,-5.8 -12.94,-12.94 z" />
  <path
     style="fill:#ffffff"
     inkscape:connector-curvature="0"
     id="path4"
     d="m 420.59373,315.33627 -98.05,95.33 v -59.69 c 17.07,-8.3 36.34,-29.65 58.56,-64.04 l -0.37,-0.24 c 23.68,3.11 38.5,16.09 39.86,28.64 z m 0.1,14.34 v 95.36 h -98.07 z m -142.9,108.94 h -111.15 v -88.8 c 0,-7.36 2.74,-14.81 7.34,-21.6 l 103.8,110.4 z m 14.2,0 -111.37,-118.47 c 10.84,-11.04 26.59,-18.9 42.07,-19.06 21.46,2.58 51.27,19.42 86.9,50.81 v 86.72 z m -138.27,-20.95 h -49.5 v -82.24 c 0,-16.25 11.41,-50.74 44.12,-58.04 v 23.78 l 6.55,-0.08 c 8.76,-0.12 18.39,-0.2 28.88,-0.26 -17.5,11.72 -30.06,30.12 -30.06,48.99 v 67.85 z m 215.87,-136.75 c -21.57,33.21 -39.85,52.89 -54,59.03 -39.93,-34.66 -73.32,-52.15 -98.5,-52.15 -21.22,0 -39.82,0.09 -55.8,0.26 v -13.45 c 0.51,-18.83 11.48,-92.14 100.07,-92.14 86.1,0 106.31,66.48 108.23,98.45 z m -143.51,-208.139999 h 65.45 l -33.73,33.719999 z m -94.66,70.859999 H 83.623729 L 131.42373,95.856271 Z m 252.57,0.27 V 96.116271 l 47.79,47.789999 z" />
</svg>
