<?xml version="1.0" encoding="UTF-8" standalone="no"?>
<svg
   xmlns:dc="http://purl.org/dc/elements/1.1/"
   xmlns:cc="http://creativecommons.org/ns#"
   xmlns:rdf="http://www.w3.org/1999/02/22-rdf-syntax-ns#"
   xmlns:svg="http://www.w3.org/2000/svg"
   xmlns="http://www.w3.org/2000/svg"
   xmlns:sodipodi="http://sodipodi.sourceforge.net/DTD/sodipodi-0.dtd"
   xmlns:inkscape="http://www.inkscape.org/namespaces/inkscape"
   viewBox="0 0 512.0 512.0"
   version="1.1"
   id="svg16"
   sodipodi:docname="item_book.svg"
   inkscape:version="0.92.4 (5da689c313, 2019-01-14)">
  <metadata
     id="metadata22">
    <rdf:RDF>
      <cc:Work
         rdf:about="">
        <dc:format>image/svg+xml</dc:format>
        <dc:type
           rdf:resource="http://purl.org/dc/dcmitype/StillImage" />
      </cc:Work>
    </rdf:RDF>
  </metadata>
  <defs
     id="defs20" />
  <path
     style="fill:#ffffff;stroke-width:0.99999994"
     inkscape:connector-curvature="0"
     id="path2"
     d="M 74.19252,63.892012 V 430.75205 h 341.92005 v -11.55001 h -14.67001 v -73.86002 h 14.67001 V 63.892012 Z" />
  <path
     style="fill:#000000;stroke-width:0.99999994"
     inkscape:connector-curvature="0"
     id="path4"
     d="m 121.01427,402.54846 h 309.19999 v 43.38999 H 56.45427 V 47.23846 h 373.75999 v 313.29 H 121.01427 Z m -48.64002,-339.4 v 366.86 h 341.92 V 418.45845 H 105.09426 V 344.59847 H 414.29425 V 63.14846 Z" />
  <path
     style="fill:#000000;stroke-width:0.99999994"
     inkscape:connector-curvature="0"
     id="path8"
     d="m 124.21952,60.565258 h 19.89997 v 23.88001 h -19.9 z m 0,47.760012 h 19.89997 v 23.88 h -19.89997 v -23.89002 z m 0,47.76 h 19.89997 v 23.88 h -19.9 z m 0,47.76 h 19.89997 v 23.88 h -19.9 z m 0,47.76 h 19.89997 v 23.88 h -19.89997 v -23.87002 z m 0,47.76 h 19.89997 v 21.89998 h -19.9 z" />
  <path
     style="fill:none;stroke:#000000;stroke-width:15;stroke-linecap:butt;stroke-linejoin:miter;stroke-miterlimit:4;stroke-dasharray:none;stroke-opacity:1"
     d="M 419.33289,323.53616 68.802706,325.14181"
     id="path821"
     inkscape:connector-curvature="0" />
  <path
     style="fill:#000000;stroke-width:0.99999994"
     inkscape:connector-curvature="0"
     id="path12"
     d="m 387.1878,348.93745 h 15.92001 v 57.68999 H 387.1878 Z" />
  <sodipodi:namedview
     pagecolor="#ffffff"
     bordercolor="#666666"
     borderopacity="1"
     objecttolerance="10"
     gridtolerance="10"
     guidetolerance="10"
     inkscape:pageopacity="0"
     inkscape:pageshadow="2"
     inkscape:window-width="1920"
     inkscape:window-height="1137"
     id="namedview18"
     showgrid="false"
     inkscape:zoom="2"
     inkscape:cx="228.67822"
     inkscape:cy="363.13547"
     inkscape:window-x="1912"
     inkscape:window-y="-8"
     inkscape:window-maximized="1"
     inkscape:current-layer="svg16"
     inkscape:object-nodes="false" />
  <path
     style="color:#000000;font-style:normal;font-variant:normal;font-weight:normal;font-stretch:normal;font-size:medium;line-height:normal;font-family:sans-serif;font-variant-ligatures:normal;font-variant-position:normal;font-variant-caps:normal;font-variant-numeric:normal;font-variant-alternates:normal;font-feature-settings:normal;text-indent:0;text-align:start;text-decoration:none;text-decoration-line:none;text-decoration-style:solid;text-decoration-color:#000000;letter-spacing:normal;word-spacing:normal;text-transform:none;writing-mode:lr-tb;direction:ltr;text-orientation:mixed;dominant-baseline:auto;baseline-shift:baseline;text-anchor:start;white-space:normal;shape-padding:0;clip-rule:nonzero;display:inline;overflow:visible;visibility:visible;opacity:1;isolation:auto;mix-blend-mode:normal;color-interpolation:sRGB;color-interpolation-filters:linearRGB;solid-color:#000000;solid-opacity:1;vector-effect:none;fill-opacity:1;fill-rule:nonzero;stroke:none;stroke-width:0.99999994;stroke-linecap:butt;stroke-linejoin:miter;stroke-miterlimit:4;stroke-dasharray:none;stroke-dashoffset:0;stroke-opacity:1;color-rendering:auto;image-rendering:auto;shape-rendering:auto;text-rendering:auto;enable-background:accumulate"
     d="m 275.65625,90.386719 v 1.011719 l -39.00781,39.005862 39.50781,39.50781 39.50586,-39.51758 z m 0.50391,1.919922 38.08789,38.087889 -38.0918,38.10352 -38.09375,-38.09375 z m -64.68555,30.611329 -6.10547,6.10742 64.05859,64.05859 -64.05859,64.06055 6.0957,6.09766 64.06446,-64.04688 64.04687,64.05664 6.10547,-6.10742 -64.05859,-64.06055 64.07031,-64.04882 -6.10742,-6.10743 -64.06055,64.06055 z m 0,1.41406 64.05078,64.07031 64.06055,-64.06054 4.69336,4.69336 -64.07032,64.04882 64.0586,64.06055 -4.69141,4.69336 -63.33984,-63.34961 0.50586,-0.5039 h -1.20703 -1.2168 l 0.50391,0.5039 -63.35743,63.33984 -4.68164,-4.68359 64.0586,-64.06055 -64.0586,-64.05859 z m 1.36133,29.11524 -39.50782,39.50781 39.50782,39.50586 0.35351,-0.35352 39.15235,-39.15234 z m 125.3789,0 -39.50586,39.50781 39.50586,39.50586 0.35352,-0.35352 39.1543,-39.15234 z m -125.3789,1.41406 38.09179,38.09375 -38.09179,38.0918 -38.09375,-38.0918 z m 125.3789,0 38.09375,38.09375 -38.09375,38.0918 -38.09179,-38.0918 z m -62.05859,61.40625 -39.50781,39.50781 39.50781,39.50586 0.35352,-0.35352 39.15234,-39.15234 z m 0,1.41406 38.0918,38.09375 -38.0918,38.0918 -38.09375,-38.0918 z"
     id="path6"
     inkscape:connector-curvature="0" />
  <path
     style="stroke-width:8.34775925;stroke-linecap:butt;stroke-linejoin:round;stroke-miterlimit:4;stroke-dasharray:none;paint-order:normal"
     d="m 193.54897,212.29183 -19.35299,-19.325 19.35891,-19.3191 19.35892,-19.31911 19.35299,19.32502 19.35299,19.32501 -19.35891,19.31909 -19.35892,19.3191 z"
     id="path8001"
     inkscape:connector-curvature="0" />
  <path
     style="stroke-width:8.13559341;stroke-linecap:butt;stroke-linejoin:round;stroke-miterlimit:4;stroke-dasharray:none;paint-order:normal"
     d="m 257.17808,148.90395 -18.70695,-18.71285 18.84549,-18.8455 18.8455,-18.845493 18.84549,18.845493 18.8455,18.8455 -18.70695,18.71285 c -10.28883,10.29207 -18.83165,18.71285 -18.98404,18.71285 -0.1524,0 -8.69521,-8.42078 -18.98404,-18.71285 z"
     id="path8003"
     inkscape:connector-curvature="0" />
  <path
     style="stroke-width:8.13559341;stroke-linecap:butt;stroke-linejoin:round;stroke-miterlimit:4;stroke-dasharray:none;paint-order:normal"
     d="m 257.17808,274.73446 -18.70695,-18.71285 18.84549,-18.8455 18.8455,-18.84549 18.84549,18.84549 18.8455,18.8455 -18.70695,18.71285 c -10.28883,10.29207 -18.83165,18.71285 -18.98404,18.71285 -0.1524,0 -8.69521,-8.42078 -18.98404,-18.71285 z"
     id="path8005"
     inkscape:connector-curvature="0" />
  <path
     style="stroke-width:8.13559341;stroke-linecap:butt;stroke-linejoin:round;stroke-miterlimit:4;stroke-dasharray:none;paint-order:normal"
     d="m 319.41345,211.68173 -18.84459,-18.85036 18.85036,-18.84459 18.85036,-18.8446 18.8446,18.85037 18.84459,18.85036 -18.85036,18.84459 -18.85037,18.84459 z"
     id="path8007"
     inkscape:connector-curvature="0" />
  <path
     style="stroke-width:2.87636662;stroke-linecap:butt;stroke-linejoin:round;stroke-miterlimit:4;stroke-dasharray:none;paint-order:normal"
     d="m 208.68147,259.78329 -2.0267,-2.50727 32.16791,-32.18899 31.94361,-31.86591 -31.97585,-32.04903 -32.03425,-32.11477 2.25294,-2.46867 2.51661,-2.39675 32.05226,32.16138 31.94502,31.99146 31.94403,-31.88891 32.23105,-32.2671 2.40597,2.36978 2.41069,2.34582 -32.30212,32.18996 -31.97806,31.99413 32.02222,31.95929 32.08472,32.13116 -2.31272,2.50073 -2.56271,2.38109 -31.55777,-31.79171 c -20.45584,-20.60747 -31.77353,-31.57593 -31.65194,-31.69753 0.38545,-0.38545 0.481,-0.47826 -0.73122,-0.47826 -1.21223,0 -1.11669,0.10843 -0.73124,0.49388 0.1216,0.1216 -11.124,10.99047 -31.55819,31.61941 l -31.71402,32.01629 z"
     id="path8011"
     inkscape:connector-curvature="0"
     sodipodi:nodetypes="ccccccccccccccccccccscssscc" />
</svg>
