<?xml version="1.0" encoding="UTF-8" standalone="no"?>
<svg
   xmlns:dc="http://purl.org/dc/elements/1.1/"
   xmlns:cc="http://creativecommons.org/ns#"
   xmlns:rdf="http://www.w3.org/1999/02/22-rdf-syntax-ns#"
   xmlns:svg="http://www.w3.org/2000/svg"
   xmlns="http://www.w3.org/2000/svg"
   xmlns:sodipodi="http://sodipodi.sourceforge.net/DTD/sodipodi-0.dtd"
   xmlns:inkscape="http://www.inkscape.org/namespaces/inkscape"
   viewBox="0 0 512.0 512.0"
   version="1.1"
   id="svg10"
   sodipodi:docname="item_plate.svg"
   inkscape:version="0.92.4 (5da689c313, 2019-01-14)">
  <metadata
     id="metadata16">
    <rdf:RDF>
      <cc:Work
         rdf:about="">
        <dc:format>image/svg+xml</dc:format>
        <dc:type
           rdf:resource="http://purl.org/dc/dcmitype/StillImage" />
      </cc:Work>
    </rdf:RDF>
  </metadata>
  <defs
     id="defs14" />
  <sodipodi:namedview
     pagecolor="#ffffff"
     bordercolor="#666666"
     borderopacity="1"
     objecttolerance="10"
     gridtolerance="10"
     guidetolerance="10"
     inkscape:pageopacity="0"
     inkscape:pageshadow="2"
     inkscape:window-width="1090"
     inkscape:window-height="810"
     id="namedview12"
     showgrid="false"
     inkscape:zoom="2.6074563"
     inkscape:cx="231.67179"
     inkscape:cy="330.77107"
     inkscape:window-x="2081"
     inkscape:window-y="85"
     inkscape:window-maximized="0"
     inkscape:current-layer="svg10" />
  <path
     style="fill:#000000"
     inkscape:connector-curvature="0"
     id="path2"
     d="m 201.52322,130.04576 c 3.15,-2.03 6.17,-4.69 9.69,-8.44 8.21,-8.76 18.1,-22.329997 28.96,-40.059997 l 7.3,-11.92 a 18.35,18.35 0 0 1 30.67,-0.95 l 8.03,11.44 c 13.57,19.34 25,33.679997 33.93,42.699997 a 67.78,67.78 0 0 0 7.88,7.02 c 8.63,-1.12 24.64,-6.07 45.93,-14.73 l 22.52,-9.16 c 15.67,-6.369997 30.88,10.05 23.33,25.19 l -10.85,21.75 c -7.9,15.85 -12.64,28.32 -14.19,35.91 a 51.47,51.47 0 0 0 3.08,2.52 c 7.85,5.96 20.8,13.18 38.4,21.26 l 11.5,5.28 a 18.35,18.35 0 0 1 5.82,29.13 l -8.59,9.3 c -7.46,8.06 -13.07,15.14 -16.62,20.8 a 39.37,39.37 0 0 0 -2.97,5.5 28.28,28.28 0 0 0 2.04,3.17 c 3.19,4.38 8.38,9.8 15.4,15.91 l 6.81,5.92 c 7.56,6.58 8.46,18 2,25.67 l -5.8,6.9 c -67.1,79.72 -126.81,120.25 -182.15,120.25 -55.5,0 -114.38,-40.7 -179.49,-120.58 l -5.85,-7.19 a 18.35,18.35 0 0 1 2.77,-25.93 l 7.25,-5.78 c 5.96,-4.76 10.16,-9.1 12.63,-12.82 a 16.88,16.88 0 0 0 1.94,-3.72 4.73,4.73 0 0 0 0.32,-1.47 8.9,8.9 0 0 0 -0.51,-2.5 30.15,30.15 0 0 0 -2.62,-5.67 c -2.96,-5.14 -7.74,-11.2 -14.32,-17.96 l -8.65,-8.9 a 18.35,18.35 0 0 1 4.77,-29.11 l 11.04,-5.67 c 18.76,-9.63 32.66,-17.78 41.31,-24.14 l 1.19,-0.88 a 119.73,119.73 0 0 0 -1.83,-3.68 c -3.9,-7.54 -9.76,-17.25 -17.29,-28.55 l -16.75,-25.16 c -10.06,-15.1 5.56,-34.069997 22.31,-27.11 l 27.91,11.6 c 22.97,9.56 40.66,14.46 51.75,14.86 z" />
  <path
     id="path4"
     d="m 263.16298,375.48296 c 16.42421,0.303 29.90154,-12.92802 29.90154,-29.35501 0,-16.42698 -13.47733,-29.658 -29.90154,-29.355 -16.00127,0.2952 -28.81843,13.35103 -28.81843,29.355 0,16.00398 12.81716,29.05981 28.81843,29.35501 z m 0.60997,33.63999 c -36.62999,0 -66.04999,-30.53 -66.04999,-67.88999 0,-37.35001 29.42,-67.88999 66.04999,-67.88999 36.64003,0 66.06002,30.53998 66.06002,67.89997 0,37.35001 -29.41999,67.88001 -66.06002,67.88001 z m 0,-17.12001 c 24.84,0 45.26,-21.76997 45.26,-48.92999 0,-27.17001 -20.42,-48.92999 -45.26,-48.92999 -24.84,0 -45.25999,21.75998 -45.25999,48.92999 0,27.16002 20.41999,48.92999 45.25999,48.92999 z m -0.60997,35.47003 c -59.08002,0 -105.81002,-54.15001 -105.81002,-119.88 0,-65.72001 46.73,-119.87002 105.8,-119.87002 59.07999,0 105.82001,54.15001 105.82001,119.87002 0,65.72999 -46.74002,119.88 -105.80999,119.88 z m 0,-12.23002 c 43.61,0 80.11997,-44.67999 80.11997,-100.92 0,-56.23997 -36.49999,-100.92 -80.11997,-100.92 -43.61002,0 -80.12001,44.68003 -80.12001,100.92 0,56.24001 36.49999,100.92 80.12001,100.92 z m -132.07001,-265.51997 -16.75,-25.16002 27.9,11.60002 c 26.24999,10.90998 46.45999,16.29996 60.24999,16.29996 10.7,0 29.34,-18.94998 52.84998,-57.299978 l 7.30001,-11.900001 8.03002,11.430017 c 14.14999,20.169982 26.16,35.219982 35.90997,45.070002 4.65003,4.69999 8.71004,8.12999 12.10001,10.28999 1.21648,0.80021 2.51359,1.47054 3.87001,1.99997 0.53445,0.2257 1.10167,0.36413 1.68,0.41 10.33002,0 29.29999,-5.40997 56.12002,-16.32 l 22.51,-9.15998 -10.85,21.75001 c -11.18,22.42 -16.68,38.89999 -16.68,48.75998 0,0.75999 0.49999,2.05002 1.85,3.87999 1.83999,2.50001 4.85,5.4 9.03999,8.59004 9.06002,6.87998 23.04,14.69998 41.84999,23.32996 l 11.50001,5.28 -8.60002,9.29 c -16.69999,18.07 -24.84,31.58004 -24.84,39.09003 0,7.10997 7.78001,18.38997 24.13002,32.59998 l 6.82001,5.92002 -5.82002,6.89998 c -63.55001,75.51999 -119.25998,113.72002 -168.09998,113.72002 -48.90002,0 -103.67002,-38.25003 -165.260017,-113.82002 l -5.85999,-7.18999 7.23999,-5.77999 c 14.859997,-11.86001 21.800007,-22.71001 21.800007,-32.35 0,-10.04001 -7.33,-23.18003 -22.650007,-38.92002 l -8.65,-8.9 11.039997,-5.65999 c 19.62,-10.09002 34.25,-18.67 43.79,-25.69002 4.48001,-3.29998 7.72001,-6.15998 9.70001,-8.47997 0.60163,-0.67326 1.12188,-1.41504 1.55,-2.21 -0.34001,-6.65001 -8.65001,-23.17002 -24.78,-47.38001 z M 263.5465,426.97592 c 40.66998,0 90.01646,-32.44296 147.95648,-99.68295 -15.63001,-14.87003 -23.72001,-28.04002 -23.72001,-40.34 0,-11.53001 7.26002,-25.32 21.49999,-42.26003 -34.88999,-17.09998 -52.30001,-31.75 -52.30001,-47.19999 0,-9.39998 3.06999,-21.41998 9.16002,-36.29998 -18.18002,6.39999 -32.04,9.62 -41.91001,9.62 -14.91001,0 -33.92999,-17.88 -60.6,-54.41001 -23.57,36.15999 -43.19,54.39999 -61.14,54.39999 -11.28,0 -25.11,-2.69998 -41.62,-8.07999 8.93,15.53001 13.37,26.86001 13.37,34.76999 0,13.11999 -17.43,27.03001 -54.43999,46.76002 12.94999,15.31997 19.62,29.45 19.62,42.7 0,14.01997 -7.41001,27.51999 -21.6,40.63 55.26297,69.36106 105.13351,99.39295 145.72353,99.39295 z"
     inkscape:connector-curvature="0"
     style="fill:#ffffff;stroke-width:0.99999994"
     sodipodi:nodetypes="ssssssssssssssssssssssssscccsccccccccccscccccscccscccsccccccccscscscscscscscs" />
</svg>
