<?xml version="1.0" encoding="UTF-8" standalone="no"?>
<svg
   xmlns:dc="http://purl.org/dc/elements/1.1/"
   xmlns:cc="http://creativecommons.org/ns#"
   xmlns:rdf="http://www.w3.org/1999/02/22-rdf-syntax-ns#"
   xmlns:svg="http://www.w3.org/2000/svg"
   xmlns="http://www.w3.org/2000/svg"
   xmlns:sodipodi="http://sodipodi.sourceforge.net/DTD/sodipodi-0.dtd"
   xmlns:inkscape="http://www.inkscape.org/namespaces/inkscape"
   viewBox="0 0 512.0 512.0"
   version="1.1"
   id="svg10"
   sodipodi:docname="item_ore.svg"
   inkscape:version="0.92.4 (5da689c313, 2019-01-14)">
  <metadata
     id="metadata16">
    <rdf:RDF>
      <cc:Work
         rdf:about="">
        <dc:format>image/svg+xml</dc:format>
        <dc:type
           rdf:resource="http://purl.org/dc/dcmitype/StillImage" />
      </cc:Work>
    </rdf:RDF>
  </metadata>
  <defs
     id="defs14" />
  <sodipodi:namedview
     pagecolor="#ffffff"
     bordercolor="#666666"
     borderopacity="1"
     objecttolerance="10"
     gridtolerance="10"
     guidetolerance="10"
     inkscape:pageopacity="0"
     inkscape:pageshadow="2"
     inkscape:window-width="640"
     inkscape:window-height="480"
     id="namedview12"
     showgrid="false"
     inkscape:zoom="0.4609375"
     inkscape:cx="256"
     inkscape:cy="256"
     inkscape:window-x="2545"
     inkscape:window-y="190"
     inkscape:window-maximized="0"
     inkscape:current-layer="svg10" />
  <path
     style="fill:#000000"
     inkscape:connector-curvature="0"
     id="path2"
     d="M 438.74,212.76 H 267.89 v -17.59 c 0,-18.54 2.76,-43.4 7.15,-63.48 2.47,-11.33 5.38,-20.9 8.78,-28.24 2.2,-4.72 4.64,-8.68 7.63,-11.9 4.7,-5.07 10.69,-8.32 17.92,-8.32 h 84.87 c 9.76,0 18.01,4.89 24.04,12.96 4.45,5.95 7.82,13.73 10.54,23.52 4.78,17.27 7.77,42.04 9.15,74.72 z m -322.93,63.16 c 1.58,-5.64 3.47,-10.5 5.65,-14.36 a 29.16,29.16 0 0 1 5,-6.64 c 3.6,-3.52 8.15,-5.93 14.03,-5.93 h 158.35 c 14.39,0 24.05,7.07 31.27,18.42 a 88.15,88.15 0 0 1 1.3,2.13 h 26.32 c 9.17,0 16.41,4.66 22.29,11.87 3.78,4.64 7.06,10.5 9.88,17.22 3.83,9.12 6.69,19.6 7.8,28.41 a 21.67,21.67 0 0 1 11.78,6.55 32.45,32.45 0 0 1 6.02,9.26 c 2.4,5.31 4.4,12.28 6.2,21.22 3.3,16.36 6.13,40.25 8.54,71.91 l 1.45,18.93 H 84.79 v -17.6 c 0,-10.41 0.96,-17.5 3.2,-27.98 a 3443.06,3443.06 0 0 1 0.71,-3.3 c 1.24,-5.88 1.71,-9.45 1.71,-14.15 0,-31.18 4.25,-49.9 13.02,-63.17 1.33,-2 2.66,-3.76 4.26,-5.7 0.22,-0.27 2.25,-2.68 2.63,-3.16 0.3,-17.24 2.2,-32.16 5.49,-43.93 z M 72.43,56.44 h 128.06 v 114.6 H 72.43 V 56.45 Z" />
  <path
     style="fill:#ffffff"
     inkscape:connector-curvature="0"
     id="path4"
     d="m 295.99,437.32 h -193.6 c 0,-21.35 5.62,-28.32 5.62,-45.44 0,-28.93 4,-42.66 8.44,-50.72 h 152.36 z m 18.28,0 -27.18,-96.16 h 97.45 a 15.43,15.43 0 0 0 9.38,3.14 c 7.79,0 14.05,31 18.78,93.02 z M 128.12,321.22 c 0.07,-0.69 0.1,-1.41 0.1,-2.18 0,-32.41 8,-52.45 12.27,-52.45 h 158.35 c 17.07,0 18.5,20.55 24.74,20.55 h 34.15 c 9.07,0 17.45,18.78 21.04,34.08 z m 226.6,-220.4 10.63,94.35 H 285.5 c 0,-33.48 10,-94.35 23.88,-94.35 z m 17.7,0 h 21.82 c 14.78,0 23.5,31.45 26.15,94.35 H 383.06 Z M 182.89,112.31 H 90.02 V 74.03 h 92.87 z m 0,17.59 v 23.55 H 90.02 V 129.9 Z" />
</svg>
