<?xml version="1.0" encoding="UTF-8" standalone="no"?>
<svg
   xmlns:dc="http://purl.org/dc/elements/1.1/"
   xmlns:cc="http://creativecommons.org/ns#"
   xmlns:rdf="http://www.w3.org/1999/02/22-rdf-syntax-ns#"
   xmlns:svg="http://www.w3.org/2000/svg"
   xmlns="http://www.w3.org/2000/svg"
   xmlns:sodipodi="http://sodipodi.sourceforge.net/DTD/sodipodi-0.dtd"
   xmlns:inkscape="http://www.inkscape.org/namespaces/inkscape"
   viewBox="0 0 512.0 512.0"
   version="1.1"
   id="svg12"
   sodipodi:docname="item_pellets.svg"
   inkscape:version="0.92.4 (5da689c313, 2019-01-14)">
  <metadata
     id="metadata18">
    <rdf:RDF>
      <cc:Work
         rdf:about="">
        <dc:format>image/svg+xml</dc:format>
        <dc:type
           rdf:resource="http://purl.org/dc/dcmitype/StillImage" />
      </cc:Work>
    </rdf:RDF>
  </metadata>
  <defs
     id="defs16" />
  <sodipodi:namedview
     pagecolor="#ffffff"
     bordercolor="#666666"
     borderopacity="1"
     objecttolerance="10"
     gridtolerance="10"
     guidetolerance="10"
     inkscape:pageopacity="0"
     inkscape:pageshadow="2"
     inkscape:window-width="998"
     inkscape:window-height="904"
     id="namedview14"
     showgrid="false"
     inkscape:zoom="0.4609375"
     inkscape:cx="256"
     inkscape:cy="256"
     inkscape:window-x="2488"
     inkscape:window-y="124"
     inkscape:window-maximized="0"
     inkscape:current-layer="svg12" />
  <path
     style="fill:#ffffff"
     inkscape:connector-curvature="0"
     id="path2"
     d="m 102.8,254.8 -31.84,-27 161.89,-121.37 8.04,-33.78 c 16.92,-7.88 28.02,-9.19 33.3,-3.92 3.7,3.7 18.82,10.3 27.86,30.29 2.53,5.62 7.61,14.24 7.8,31.88 l 132.18,96.92 -32.74,27.77 32.74,23.1 L 256.5,436.06 70.96,278.68 102.8,254.81 Z" />
  <path
     style="fill:#000000"
     inkscape:connector-curvature="0"
     id="path4"
     d="M 80.66,254.2 61.9,238.3 c -1.6,-1.77 -3.23,-3.57 -4.05,-5.79 a 14.07,14.07 0 0 1 0.31,-10.43 c 1.3,-2.93 2.15,-3.35 4.4,-5.53 L 223.45,95.95 c 3.66,-2.75 12.73,37.44 42.06,70.97 3.07,3.5 10.47,0.95 22.2,-7.67 l 21.33,-42.47 141.09,99.54 c 2.08,1.85 2.82,2.2 4.19,4.69 a 14.1,14.1 0 0 1 0.54,12.24 c -1.14,2.6 -1.84,3 -3.75,5.04 l -19.27,16.34 18.29,12.9 c 2.08,1.86 2.82,2.2 4.19,4.7 a 14.17,14.17 0 0 1 0.54,12.23 c -1.14,2.6 -1.84,3.01 -3.75,5.04 L 265.5,446.9 c -4.57,3.03 -10.36,4.3 -15.3,1.8 -0.97,-0.5 -1.8,-1.2 -2.71,-1.8 L 61.9,289.5 c -0.8,-0.87 -1.72,-1.65 -2.4,-2.63 a 14.17,14.17 0 0 1 -1.34,-13.58 c 1.3,-2.93 2.15,-3.34 4.4,-5.52 z M 226.22,111.4 70.96,227.8 256.5,385.2 442.03,227.83 306.1,131.9 c -8.64,16.41 -15.3,26.67 -20,30.8 -11.24,9.85 -24.1,8.45 -29.6,7.04 -8.96,-2.3 -19.05,-21.74 -30.28,-58.33 z M 70.96,278.86 256.5,436.06 442.03,278.86 c -7.07,-5 -14.17,-9.96 -21.28,-14.9 L 265.5,395.5 c -4.56,3.03 -10.35,4.3 -15.3,1.8 -0.96,-0.49 -1.8,-1.2 -2.7,-1.8 L 91.7,263.5 c -6.94,5.07 -13.85,10.2 -20.74,15.36 z" />
  <path
     style="fill:#000000"
     inkscape:connector-curvature="0"
     id="path6"
     d="m 168.22,306.38 a 56.36,56.36 0 1 1 0,-112.71 56.36,56.36 0 0 1 0,112.71 z m -3.83,-68.34 c 13.27,8.61 33.72,0 33.72,0 12.86,29.45 -11.24,56.37 -11.24,56.37 24.64,-13.92 35.22,-58.58 11.24,-78.92 -18.68,-15.86 -38.3,-9.45 -42.13,-2.37 -6.89,12.77 4.01,22.06 8.41,24.92 z m 180.39,68.34 a 56.36,56.36 0 1 1 0,-112.71 56.36,56.36 0 0 1 0,112.71 z m -3.83,-68.34 c 13.27,8.61 33.72,0 33.72,0 12.86,29.45 -11.24,56.37 -11.24,56.37 24.64,-13.92 35.21,-58.58 11.24,-78.92 -18.68,-15.86 -38.3,-9.45 -42.13,-2.37 -6.89,12.77 4.01,22.06 8.4,24.92 z M 257,173.72 A 56.36,56.36 0 1 0 257,61 a 56.36,56.36 0 0 0 0,112.72 z m -4.83,-68.35 c -4.4,-2.85 -15.3,-12.15 -8.4,-24.92 3.83,-7.08 23.44,-13.49 42.12,2.37 23.98,20.34 13.4,65 -11.24,78.93 0,0 24.1,-26.93 11.24,-56.38 0,0 -20.45,8.61 -33.72,0 z" />
</svg>
