<?xml version="1.0" encoding="UTF-8" standalone="no"?>
<svg
   xmlns:dc="http://purl.org/dc/elements/1.1/"
   xmlns:cc="http://creativecommons.org/ns#"
   xmlns:rdf="http://www.w3.org/1999/02/22-rdf-syntax-ns#"
   xmlns:svg="http://www.w3.org/2000/svg"
   xmlns="http://www.w3.org/2000/svg"
   xmlns:sodipodi="http://sodipodi.sourceforge.net/DTD/sodipodi-0.dtd"
   xmlns:inkscape="http://www.inkscape.org/namespaces/inkscape"
   viewBox="0 0 512.0 512.0"
   version="1.1"
   id="svg12"
   sodipodi:docname="item_monster_jaw.svg"
   inkscape:version="0.92.4 (5da689c313, 2019-01-14)">
  <metadata
     id="metadata18">
    <rdf:RDF>
      <cc:Work
         rdf:about="">
        <dc:format>image/svg+xml</dc:format>
        <dc:type
           rdf:resource="http://purl.org/dc/dcmitype/StillImage" />
      </cc:Work>
    </rdf:RDF>
  </metadata>
  <defs
     id="defs16" />
  <sodipodi:namedview
     pagecolor="#ffffff"
     bordercolor="#666666"
     borderopacity="1"
     objecttolerance="10"
     gridtolerance="10"
     guidetolerance="10"
     inkscape:pageopacity="0"
     inkscape:pageshadow="2"
     inkscape:window-width="640"
     inkscape:window-height="480"
     id="namedview14"
     showgrid="false"
     inkscape:zoom="0.4609375"
     inkscape:cx="256"
     inkscape:cy="256"
     inkscape:window-x="2483"
     inkscape:window-y="179"
     inkscape:window-maximized="0"
     inkscape:current-layer="svg12" />
  <path
     style="fill:#ffffff"
     inkscape:connector-curvature="0"
     id="path2"
     d="M 94.51,302.64 H 71.15 V 220.9 l 11.68,-11.68 h 93.45 v -69.4 l 11.68,-11.68 h 175.21 l 34.24,5.12 51.52,40.13 -51.52,44.15 51.52,44.41 -54.33,45.48 54.33,43.07 -52.46,40.27 -12.17,-11.24 -21.13,4.85 H 94.51 l -23.07,-21.7 -0.29,-28.1 h 23.36 l 11.68,19.14 47.68,-0.41 v -28.09 h 18.74 l 27.16,28.09 h 43 l 9.84,-9.4 v -56.39 l -9.43,-8.87 h -55.22 l -11.68,23.99 h -23.36 v -23.99 h -46.73 z" />
  <path
     style="fill:#000000"
     inkscape:connector-curvature="0"
     id="path4"
     d="m 71.05,316.24 c -3.16,-0.36 -6.32,-1.12 -8.75,-3.06 a 14.03,14.03 0 0 1 -3.9,-4.88 c -1.22,-2.54 -1.08,-3.33 -1.39,-6.08 v -81.6 c 0.27,-2.77 0.84,-5.51 2.37,-7.8 0.5,-0.75 1.16,-1.4 1.74,-2.12 l 11.67,-11.65 c 2.15,-1.77 4.5,-3.3 7.19,-3.84 0.9,-0.18 1.82,-0.18 2.74,-0.27 h 79.3 v -55.26 l 0.28,-2.74 c 0.26,-0.87 0.45,-1.78 0.8,-2.63 0.94,-2.27 1.5,-2.67 3.04,-4.55 l 11.67,-11.65 c 2.15,-1.77 4.5,-3.3 7.18,-3.84 0.9,-0.18 1.83,-0.18 2.74,-0.27 h 175.03 l 2.74,0.27 c 0.88,0.26 1.79,0.45 2.64,0.8 2.27,0.94 2.67,1.5 4.55,3.04 l 11.67,11.65 a 33.56,33.56 0 0 1 0.84,1.07 c 2.3,-2.18 5.29,-3.63 8.51,-3.87 1.17,-0.08 1.43,-0.03 1.8,-0.01 a 15.2,15.2 0 0 1 7.28,2.51 l 46.5,32.55 c 7.15,5.24 7.85,16.97 0.48,22.61 l -46.97,32.9 c -0.12,0.15 15.38,11.11 46.49,32.89 7.12,5.21 7.85,16.97 0.48,22.61 l -46.97,32.9 c -0.12,0.15 15.38,11.12 46.49,32.9 7.16,5.24 7.85,16.96 0.48,22.6 l -46.97,32.9 c -7.74,5.17 -19.94,0.85 -21.84,-8.85 l -8.27,8.26 c -2.16,1.77 -4.5,3.3 -7.19,3.84 -0.9,0.18 -1.82,0.18 -2.74,0.27 H 94.38 c -1.16,-0.15 -2.35,-0.15 -3.5,-0.44 -3.06,-0.8 -3.6,-1.55 -6.11,-3.37 L 61.72,372.37 c -1.88,-2.16 -3.51,-4.52 -4.1,-7.27 -0.2,-0.92 -0.21,-1.87 -0.32,-2.8 l -0.29,-28.04 c 0.22,-2.1 0.45,-4.24 1.35,-6.14 a 14.16,14.16 0 0 1 6.56,-6.62 c 2.56,-1.24 3.36,-1.1 6.13,-1.41 h 23.33 c 1.19,0.15 2.4,0.15 3.55,0.46 2.33,0.6 4.46,1.8 6.2,3.47 0.85,0.82 1.49,1.86 2.23,2.79 l 7.53,12.31 25.75,-0.22 v -14.14 c 0.36,-3.17 1.11,-6.29 3.07,-8.74 0.79,-1 2.24,-2.23 2.24,-2.23 l -0.97,-0.6 -2.23,-2.23 c -0.55,-0.89 -1.21,-1.72 -1.67,-2.66 -1.22,-2.54 -1.08,-3.33 -1.39,-6.08 V 292.3 H 114.83 L 107,308.36 c -2.26,3.57 -5.42,6.6 -9.5,7.53 -1.02,0.23 -2.08,0.23 -3.12,0.35 z m 171.34,36.48 h -42.9 l -27.1,-28.02 h -18.7 v 28.02 l -47.57,0.4 -11.66,-19.08 h -23.3 l 0.28,28.01 23.02,21.65 h 268.07 l 11.65,-11.65 v -72.69 l -77.88,0.02 c 0,0 -1.42,0.06 -2.64,0.33 a 13.79,13.79 0 0 0 -10.85,13.12 c -0.21,7.78 -1.53,15.47 0.27,23.35 a 13.16,13.16 0 0 0 12.28,10.4 c 11.05,0.17 22.13,1.28 32.98,0.1 6.8,-0.73 14.87,-3.4 13,-10.73 -1.17,-4.6 -7.79,-5.05 -13.42,-5.1 H 296.1 V 315.12 H 328 c 14.28,0.16 30.84,7.87 29.32,24.26 -0.1,1.04 5.14,22.42 -33.79,22.94 -18.41,0.24 -38.7,4.73 -50.7,-10.67 -13.23,-17 -10.37,-43.54 0.01,-57.33 5.15,-6.84 14.7,-9.58 23.2,-10.67 h 78.14 V 139.8 L 362.53,128.15 H 187.7 L 176.05,139.8 V 209 H 82.8 l -11.66,11.64 v 81.52 h 23.31 l 11.66,-23.91 h 46.62 v 23.91 h 23.3 l 11.66,-23.91 h 55.1 l 9.41,8.84 v 56.24 l -9.82,9.38 z m 149.97,29.97 48.49,-32.33 -48.49,-32.32 z m -203.65,-74.64 -1.67,2.62 c -2.18,2.14 -2.18,2.16 -4.78,3.77 l 0.26,0.22 22.98,23.58 h 33.33 L 238.28,293 196.75,292.79 Z m 203.65,-14.25 48.49,-32.33 -48.49,-32.32 z m 48.49,-120.2 -48.49,-32.33 v 64.65 z" />
  <path
     style="fill:#000000"
     inkscape:connector-curvature="0"
     id="path6"
     d="m 335.8,209.31 v -5.58 c -0.14,-7.03 -5.82,-13.37 -12.88,-13.93 -0.49,-0.04 -0.6,-0.03 -1.1,-0.04 h -56.44 c -6.85,0.41 -12.84,6.03 -13.38,12.87 -0.04,0.49 -0.03,0.6 -0.04,1.1 v 31.66 c 0.14,7.02 5.82,13.37 12.88,13.92 0.48,0.04 0.6,0.03 1.1,0.04 h 55.88 a 11.91,11.91 0 0 0 4.32,-0.68 14.3,14.3 0 0 0 9.66,-13.28 v -6.52 h -13.98 v 6.52 h -55.89 v -31.66 h 55.9 v 5.58 z" />
</svg>
