<?xml version="1.0" encoding="UTF-8" standalone="no"?>
<svg
   xmlns:dc="http://purl.org/dc/elements/1.1/"
   xmlns:cc="http://creativecommons.org/ns#"
   xmlns:rdf="http://www.w3.org/1999/02/22-rdf-syntax-ns#"
   xmlns:svg="http://www.w3.org/2000/svg"
   xmlns="http://www.w3.org/2000/svg"
   xmlns:sodipodi="http://sodipodi.sourceforge.net/DTD/sodipodi-0.dtd"
   xmlns:inkscape="http://www.inkscape.org/namespaces/inkscape"
   viewBox="0 0 512.0 512.0"
   version="1.1"
   id="svg8"
   sodipodi:docname="ui_decoration_2.svg"
   inkscape:version="0.92.4 (5da689c313, 2019-01-14)">
  <metadata
     id="metadata14">
    <rdf:RDF>
      <cc:Work
         rdf:about="">
        <dc:format>image/svg+xml</dc:format>
        <dc:type
           rdf:resource="http://purl.org/dc/dcmitype/StillImage" />
      </cc:Work>
    </rdf:RDF>
  </metadata>
  <defs
     id="defs12" />
  <sodipodi:namedview
     pagecolor="#ffffff"
     bordercolor="#666666"
     borderopacity="1"
     objecttolerance="10"
     gridtolerance="10"
     guidetolerance="10"
     inkscape:pageopacity="0"
     inkscape:pageshadow="2"
     inkscape:window-width="640"
     inkscape:window-height="480"
     id="namedview10"
     showgrid="false"
     inkscape:zoom="0.4609375"
     inkscape:cx="256"
     inkscape:cy="256"
     inkscape:window-x="2683"
     inkscape:window-y="144"
     inkscape:window-maximized="0"
     inkscape:current-layer="svg8" />
  <path
     style="fill:#ffffff"
     inkscape:connector-curvature="0"
     id="path2"
     d="m 129.64,68.16 h 252.18 c 4.57,0 8.93,1.92 12,5.3 l 57.15,62.93 a 16.22,16.22 0 0 1 4.22,10.9 v 44.99 c 0,3.35 -1.04,6.62 -2.98,9.36 l -93.17,131.88 a 16.22,16.22 0 0 1 -13.24,6.86 H 166.2 c -5.01,0 -9.74,-2.31 -12.81,-6.27 L 60.22,214.21 a 16.22,16.22 0 0 1 -3.4,-9.94 v -56.98 c 0,-4 1.47,-7.87 4.15,-10.85 l 56.61,-62.91 a 16.22,16.22 0 0 1 12.06,-5.37 z m 7.22,266.43 59.46,84.33 H 77.41 Z m 241.36,1.09 59.46,84.32 H 318.76 Z" />
  <path
     style="fill:#000000"
     inkscape:connector-curvature="0"
     id="path4"
     d="m 129.64,84.37 h 252.18 l 57.15,62.92 v 44.99 L 345.8,324.16 H 166.2 L 73.03,204.26 V 147.3 l 56.6,-62.92 z m 185,76.02 -53.5,-63.05 h -10.8 l -53.5,63.04 v 0.01 z m 0.51,-17.94 v -45.1 h -38.27 z m -118.3,-0.62 37.75,-44.49 h -37.75 v 44.5 z m 130.3,-32.3 v 50.86 h 47.73 l -47.73,-50.87 z m -142.3,50.86 v -52.15 l -48.93,52.15 z m 69.73,150.8 h 2.85 L 313.22,176.61 H 198.78 Z M 241.43,310.82 185.8,176.61 h -50.14 l 105.78,134.21 z m 28.99,0.37 h 0.14 L 375.92,176.61 h -49.71 l -55.8,134.58 z" />
</svg>
