<?xml version="1.0" encoding="UTF-8" standalone="no"?>
<svg
   xmlns:dc="http://purl.org/dc/elements/1.1/"
   xmlns:cc="http://creativecommons.org/ns#"
   xmlns:rdf="http://www.w3.org/1999/02/22-rdf-syntax-ns#"
   xmlns:svg="http://www.w3.org/2000/svg"
   xmlns="http://www.w3.org/2000/svg"
   xmlns:sodipodi="http://sodipodi.sourceforge.net/DTD/sodipodi-0.dtd"
   xmlns:inkscape="http://www.inkscape.org/namespaces/inkscape"
   viewBox="0 0 512.0 513.0"
   version="1.1"
   id="svg10"
   sodipodi:docname="ui_kinsect.svg"
   inkscape:version="0.92.4 (5da689c313, 2019-01-14)">
  <metadata
     id="metadata16">
    <rdf:RDF>
      <cc:Work
         rdf:about="">
        <dc:format>image/svg+xml</dc:format>
        <dc:type
           rdf:resource="http://purl.org/dc/dcmitype/StillImage" />
      </cc:Work>
    </rdf:RDF>
  </metadata>
  <defs
     id="defs14" />
  <sodipodi:namedview
     pagecolor="#ffffff"
     bordercolor="#666666"
     borderopacity="1"
     objecttolerance="10"
     gridtolerance="10"
     guidetolerance="10"
     inkscape:pageopacity="0"
     inkscape:pageshadow="2"
     inkscape:window-width="1400"
     inkscape:window-height="937"
     id="namedview12"
     showgrid="false"
     inkscape:zoom="0.46003899"
     inkscape:cx="256"
     inkscape:cy="256.5"
     inkscape:window-x="862"
     inkscape:window-y="103"
     inkscape:window-maximized="0"
     inkscape:current-layer="svg10" />
  <path
     style="fill:#000000"
     inkscape:connector-curvature="0"
     id="path2"
     d="m 143.31,187 a 35.38,35.38 0 0 1 9.52,-48.02 l 25.03,-17.53 a 35.37,35.37 0 0 1 36.68,-2.38 v -17.93 a 42.94,42.94 0 0 1 85.88,0 v 17.64 a 35.37,35.37 0 0 1 36.1,2.67 l 25.02,17.53 a 35.37,35.37 0 0 1 8.69,49.26 8.04,8.04 0 0 0 -0.37,0.6 c 21.24,28.29 33.94,64.58 33.94,103.95 0,89.46 -65.57,163.02 -147.91,163.02 -82.34,0 -147.91,-73.56 -147.91,-163.02 0,-40.23 13.26,-77.24 35.33,-105.79 z" />
  <path
     style="fill:#ffffff"
     inkscape:connector-curvature="0"
     id="path4"
     d="m 145.81,228.55 103.72,81.75 v 121.47 c -65.56,-3.71 -117.7,-64.52 -117.7,-138.98 a 152.3,152.3 0 0 1 13.98,-64.24 z m 23.45,-1.76 h 173.28 l -85.15,69.46 z m 196.59,1.51 c 9,19.28 14.1,41.22 14.1,64.49 0,73.25 -50.47,133.29 -114.52,138.76 V 310.22 Z M 224.17,158.22 a 111.7,111.7 0 0 1 14.45,-3.26 19.23,19.23 0 0 1 -0.23,-2.92 v -50.9 a 19.09,19.09 0 0 1 38.17,0 v 50.9 c 0,1.18 -0.1,2.33 -0.3,3.45 a 112,112 0 0 1 14.23,3.62 27.04,27.04 0 0 0 10.16,13.57 l 25.02,17.52 a 27.06,27.06 0 0 0 18.45,4.76 c 4.36,4.96 8.4,10.28 12.07,15.92 h -200.6 a 137,137 0 0 1 12.37,-16.26 27.08,27.08 0 0 0 20.74,-4.42 l 25.03,-17.52 a 27.04,27.04 0 0 0 10.44,-14.46 z M 307,143.98 a 11.26,11.26 0 0 1 15.67,-2.77 l 25.03,17.52 a 11.26,11.26 0 1 1 -12.91,18.44 L 309.76,159.65 A 11.26,11.26 0 0 1 307,143.98 Z m -99.64,0 a 11.26,11.26 0 0 1 -2.77,15.67 l -25.02,17.52 a 11.26,11.26 0 1 1 -12.91,-18.44 l 25.02,-17.52 a 11.26,11.26 0 0 1 15.68,2.77 z" />
</svg>
