<?xml version="1.0" encoding="UTF-8" standalone="no"?>
<svg
   xmlns:dc="http://purl.org/dc/elements/1.1/"
   xmlns:cc="http://creativecommons.org/ns#"
   xmlns:rdf="http://www.w3.org/1999/02/22-rdf-syntax-ns#"
   xmlns:svg="http://www.w3.org/2000/svg"
   xmlns="http://www.w3.org/2000/svg"
   xmlns:sodipodi="http://sodipodi.sourceforge.net/DTD/sodipodi-0.dtd"
   xmlns:inkscape="http://www.inkscape.org/namespaces/inkscape"
   viewBox="0 0 512.0 512.0"
   version="1.1"
   id="svg14"
   sodipodi:docname="ui_side_skill.svg"
   inkscape:version="0.92.4 (5da689c313, 2019-01-14)">
  <metadata
     id="metadata20">
    <rdf:RDF>
      <cc:Work
         rdf:about="">
        <dc:format>image/svg+xml</dc:format>
        <dc:type
           rdf:resource="http://purl.org/dc/dcmitype/StillImage" />
      </cc:Work>
    </rdf:RDF>
  </metadata>
  <defs
     id="defs18" />
  <sodipodi:namedview
     pagecolor="#ffffff"
     bordercolor="#666666"
     borderopacity="1"
     objecttolerance="10"
     gridtolerance="10"
     guidetolerance="10"
     inkscape:pageopacity="0"
     inkscape:pageshadow="2"
     inkscape:window-width="958"
     inkscape:window-height="1128"
     id="namedview16"
     showgrid="false"
     inkscape:zoom="0.921875"
     inkscape:cx="287.65714"
     inkscape:cy="238.47024"
     inkscape:window-x="2407"
     inkscape:window-y="0"
     inkscape:window-maximized="0"
     inkscape:current-layer="svg14" />
  <path
     style="fill:#000000"
     inkscape:connector-curvature="0"
     id="path2"
     d="M 116.8,90.85 136.35,65.72 H 326.5 l -59.86,55.76 47.32,36.72 -54.66,43.8 v 40.29 h 91.8 l 27.99,-23.4 h 71.14 l -4.58,17.06 c -15.03,55.92 -14.26,96.12 0.94,120.6 l 9.33,15.02 -16.94,5.09 c -17.36,5.22 -19.9,6.08 -27.15,9.84 -17.71,9.2 -29.89,24.5 -36.74,51.68 l -6.59,26.07 -17.03,-20.81 c -10.89,-13.3 -17.18,-19.42 -27.94,-25.47 -15.04,-8.45 -35.13,-13.11 -62.87,-13.11 h -3.85 l -3.27,-2.03 c -8.37,-5.17 -36.9,-21.76 -42.72,-25.68 -8.7,-5.84 -15.18,-11.6 -21.44,-19.33 -5.64,-6.97 -11.15,-15.62 -17.9,-27.94 l -1.66,-3.04 v -57.76 c -11.45,2.89 -24.95,4.9 -40.35,6.21 -18.64,1.6 -34.44,1.97 -59.74,1.97 H 56.2 V 90.86 h 60.6 z" />
  <path
     style="fill:#ffffff"
     inkscape:connector-curvature="0"
     id="path4"
     d="m 69.74,104.4 h 53.69 l 19.55,-25.13 h 149.1 l -46.32,43.15 46.33,35.95 -46.33,37.13 v 60.33 h 110.26 l 28,-23.4 h 48.56 c -15.9,59.2 -15.06,102.94 2.52,131.26 -22.9,6.88 -59,15.2 -73.14,71.17 -15.1,-18.47 -35.9,-43.55 -101.29,-43.55 -47,-29.07 -54.6,-26.5 -77.3,-67.93 v -73.2 c -28.93,13.54 -87.3,13.54 -113.63,13.54 v -56.59 l 24.68,14.53 17.54,-19.71 14.82,7.78 11.76,-9.49 22.97,12.46 18.92,-25.37 -26,-34 -19.49,18.57 -18.62,-18.57 -17.06,18.57 H 69.74 Z m 93.34,12.83 v 15.12 H 218.9 V 102.1 h -15.03 l -9.38,13.37 -31.4,1.76 z" />
  <path
     style="fill:#000000"
     inkscape:connector-curvature="0"
     id="path6"
     d="m 94.89,341.58 47.71,-41.01 22.17,23.9 C 262.74,250.82 339.25,164.02 392.42,64 l 17.33,-28.6 6.86,32.07 0.89,4.3 a 548.17,548.17 0 0 1 7.37,48.09 c 3.96,37.05 2.94,66.2 -5.93,84.59 -34.7,61.5 -98.03,124.11 -190.35,188.98 l 21.36,22.9 -47.1,41.72 -30.53,-32.25 -56.69,50.53 -51.33,-52.96 60.22,-50.6 -29.63,-31.2 z" />
  <path
     style="fill:#ffffff"
     inkscape:connector-curvature="0"
     id="path8"
     d="m 114.51,342.58 27.03,-23.24 89.02,96.07 -26.88,23.82 z m 19.4,39.99 30.13,32.48 -47.72,42.53 -32.17,-33.18 z" />
  <path
     style="fill:#ffffff"
     inkscape:connector-curvature="0"
     id="path10"
     d="m 173.57,334.8 c 99.2,-74.72 175.8,-162.86 229.8,-264.43 0,0 20.3,93.12 3.37,128.2 -33.39,59.13 -96,120.83 -187.82,185.12 l -45.35,-48.9 z" />
</svg>
