<?xml version="1.0" encoding="UTF-8" standalone="no"?>
<svg
   xmlns:dc="http://purl.org/dc/elements/1.1/"
   xmlns:cc="http://creativecommons.org/ns#"
   xmlns:rdf="http://www.w3.org/1999/02/22-rdf-syntax-ns#"
   xmlns:svg="http://www.w3.org/2000/svg"
   xmlns="http://www.w3.org/2000/svg"
   xmlns:sodipodi="http://sodipodi.sourceforge.net/DTD/sodipodi-0.dtd"
   xmlns:inkscape="http://www.inkscape.org/namespaces/inkscape"
   viewBox="0 0 512.0 512.0"
   version="1.1"
   id="svg10"
   sodipodi:docname="ui_side_charm.svg"
   inkscape:version="0.92.4 (5da689c313, 2019-01-14)">
  <metadata
     id="metadata16">
    <rdf:RDF>
      <cc:Work
         rdf:about="">
        <dc:format>image/svg+xml</dc:format>
        <dc:type
           rdf:resource="http://purl.org/dc/dcmitype/StillImage" />
      </cc:Work>
    </rdf:RDF>
  </metadata>
  <defs
     id="defs14" />
  <sodipodi:namedview
     pagecolor="#ffffff"
     bordercolor="#666666"
     borderopacity="1"
     objecttolerance="10"
     gridtolerance="10"
     guidetolerance="10"
     inkscape:pageopacity="0"
     inkscape:pageshadow="2"
     inkscape:window-width="1012"
     inkscape:window-height="855"
     id="namedview12"
     showgrid="false"
     inkscape:zoom="0.4609375"
     inkscape:cx="256"
     inkscape:cy="256"
     inkscape:window-x="2456"
     inkscape:window-y="85"
     inkscape:window-maximized="0"
     inkscape:current-layer="svg10" />
  <path
     style="fill:#000000"
     inkscape:connector-curvature="0"
     id="path2"
     d="M 161.29,151.72 V 84.09 a 27.87,27.87 0 0 1 27.87,-27.87 h 232.6 a 27.87,27.87 0 0 1 27.88,27.87 V 272.3 a 27.87,27.87 0 0 1 -27.88,27.88 H 346.72 A 27.87,27.87 0 0 1 318.85,272.3 V 159.38 h -74.82 a 19.47,19.47 0 0 1 2.79,10.07 v 27.52 a 104.1,104.1 0 0 1 55.83,92.25 c 0,56.9 -45.68,103.14 -102.39,104.1 l 62.36,60.62 0.97,-68.61 h 71.93 v 14.13 l -55.6,55.72 H 117.15 L 61.72,399.75 v -13.56 h 72.05 l 0.96,68.08 62.69,-60.94 C 140.35,392.77 94.27,346.37 94.27,289.22 A 104.1,104.1 0 0 1 150,197.02 v -27.57 c 0,-7.85 4.62,-14.62 11.29,-17.73 z m 213.3,-20.22 v 112.94 h 19.3 V 111.96 h -27.3 c 4.95,5.03 8,11.93 8,19.54 z" />
  <path
     style="fill:#ffffff"
     inkscape:connector-curvature="0"
     id="path4"
     d="m 198.84,408.3 36.2,35.2 h -72.4 z m -76.64,-10.53 0.65,46.51 -47.17,-47.17 z M 280.96,257.02 c -7.88,-8.56 -17.2,-12.95 -27.93,-12.95 a 25.25,25.25 0 0 0 -17,6.28 c -3.56,3.03 -6.18,6.39 -10.38,12.7 l -1.75,2.63 c -4.17,6.25 -6.82,9.55 -10.19,12.25 -4.13,3.31 -8.85,5 -14.98,5 -6.13,0 -10.9,-1.7 -15.17,-5.03 -3.46,-2.7 -6.08,-5.82 -10.8,-12.37 l -0.97,-1.35 c -4.97,-6.9 -7.76,-10.25 -11.74,-13.46 a 29.2,29.2 0 0 0 -19.01,-6.65 c -8.82,0 -16.38,2.5 -22.67,7.37 a 88.8,88.8 0 0 1 31.6,-36.26 l 96.86,-0.08 a 88.79,88.79 0 0 1 34.13,41.92 z m 6,29.23 a 90.01,90.01 0 0 1 0.05,2.97 c 0,48.86 -39.65,88.47 -88.55,88.47 -48.9,0 -88.55,-39.61 -88.55,-88.47 0,-1.81 0.06,-3.6 0.17,-5.39 5.7,-20.4 15.92,-29.98 30.96,-29.98 5.12,0 9.15,1.5 12.88,4.5 3.07,2.47 5.47,5.34 9.93,11.55 l 0.98,1.35 c 5.24,7.28 8.3,10.91 12.7,14.35 5.97,4.67 12.86,7.11 21.2,7.11 8.37,0 15.24,-2.46 21.1,-7.14 4.37,-3.5 7.52,-7.43 12.2,-14.47 0.35,-0.5 1.53,-2.3 1.76,-2.63 7.36,-11.05 11.55,-14.62 19.24,-14.62 13.94,0 25.26,10.43 33.93,32.4 z m -127.13,3.5 c -2.81,9.2 -5.64,15.21 -8.48,18.05 -2.85,2.85 -8.84,5.65 -17.98,8.4 9.29,3.62 15.28,6.78 17.98,9.47 2.7,2.7 5.52,8.37 8.48,17 2.73,-8.42 5.56,-14.08 8.47,-17 2.91,-2.9 8.91,-6.07 18,-9.47 -9.05,-2.64 -15.05,-5.44 -18,-8.4 -2.96,-2.95 -5.78,-8.97 -8.47,-18.06 z m 115.33,107.15 46.95,-0.66 -47.6,47.61 z M 169.56,165.54 h 57.7 a 3.91,3.91 0 0 1 3.91,3.9 v 32.28 a 3.91,3.91 0 0 1 -3.91,3.91 h -57.7 a 3.91,3.91 0 0 1 -3.91,-3.9 v -32.28 a 3.91,3.91 0 0 1 3.9,-3.91 z m 36.8,-44.55 c 1.86,-1.11 4.01,-1.71 6.23,-1.71 h 4.89 v 24.94 l -0.75,0.82 -18.54,-15.9 8.16,-8.15 z m -4.97,-8.87 -24.45,24.45 v -30.7 h 24.45 z m 10.22,-15.8 V 71.85 h 18.58 V 96.3 h -18.58 z m 28.36,0 V 71.85 h 18.59 V 96.3 h -18.59 z m 28.36,0 V 71.85 h 18.59 V 96.3 h -18.59 z m 28.37,0 V 71.85 h 18.58 V 96.3 H 296.7 Z m 28.36,0 V 71.85 h 18.58 V 96.3 h -18.58 z m 28.36,0 V 71.85 H 372 V 96.3 h -18.58 z m 28.36,0 V 71.85 h 17.6 V 96.3 h -17.6 z m 27.76,9.56 h 24.45 v 14.67 h -24.45 z m 0,24.45 h 24.45 v 16.62 h -24.45 z m 0,26.4 h 24.45 v 16.63 h -24.45 z m 0,26.4 h 24.45 v 16.64 h -24.45 v -16.63 z m 0,26.42 h 24.45 v 14.67 h -24.45 z m 0,24.45 h 24.45 v 16.62 h -24.45 z m -11.13,26.09 v 24.45 h -27.39 v -24.45 z m -39.46,-9.47 H 334.5 v -17.6 h 24.45 z m 0,-27.38 H 334.5 v -17.6 h 24.45 z m 0,-27.39 H 334.5 v -15.64 h 24.45 z m 0,-25.42 H 334.5 V 153.8 h 24.45 z m 0,-26.41 h -24.11 v -24.74 h 11.88 c 6.75,0 12.23,5.47 12.23,12.22 z m -33.9,-24.74 v 24.45 H 310.4 v -24.45 h 14.67 z m -24.44,0 v 24.45 h -16.63 v -24.45 z m -26.4,0 v 24.45 h -18.59 v -24.45 h 18.58 z m -28.37,0 v 24.45 h -18.58 v -24.45 z m -38.4,30.67 -30.13,0.08 13.94,-13.95 16.18,13.87 z M 334.5,260.4 h 26.74 v 24.14 H 346.72 A 12.22,12.22 0 0 1 334.5,272.31 v -11.9 z m 73.69,24.14 V 260.4 h 25.8 v 11.91 c 0,6.75 -5.48,12.23 -12.23,12.23 H 408.2 Z M 433.99,96.1 H 409.17 V 71.86 h 12.6 c 6.74,0 12.22,5.48 12.22,12.23 v 12 z M 201.83,71.86 V 96.1 h -24.9 V 84.09 c 0,-6.75 5.48,-12.23 12.23,-12.23 z" />
</svg>
