<?xml version="1.0" encoding="UTF-8" standalone="no"?>
<svg
   xmlns:dc="http://purl.org/dc/elements/1.1/"
   xmlns:cc="http://creativecommons.org/ns#"
   xmlns:rdf="http://www.w3.org/1999/02/22-rdf-syntax-ns#"
   xmlns:svg="http://www.w3.org/2000/svg"
   xmlns="http://www.w3.org/2000/svg"
   xmlns:sodipodi="http://sodipodi.sourceforge.net/DTD/sodipodi-0.dtd"
   xmlns:inkscape="http://www.inkscape.org/namespaces/inkscape"
   viewBox="0 0 512.0 512.0"
   version="1.1"
   id="svg26"
   sodipodi:docname="ic_ui_slot_3_empty.svg"
   inkscape:version="0.92.4 (5da689c313, 2019-01-14)">
  <metadata
     id="metadata32">
    <rdf:RDF>
      <cc:Work
         rdf:about="">
        <dc:format>image/svg+xml</dc:format>
        <dc:type
           rdf:resource="http://purl.org/dc/dcmitype/StillImage" />
        <dc:title></dc:title>
      </cc:Work>
    </rdf:RDF>
  </metadata>
  <defs
     id="defs30" />
  <sodipodi:namedview
     pagecolor="#ffffff"
     bordercolor="#666666"
     borderopacity="1"
     objecttolerance="10"
     gridtolerance="10"
     guidetolerance="10"
     inkscape:pageopacity="0"
     inkscape:pageshadow="2"
     inkscape:window-width="918"
     inkscape:window-height="959"
     id="namedview28"
     showgrid="false"
     inkscape:zoom="1.3037281"
     inkscape:cx="256.52782"
     inkscape:cy="279.91919"
     inkscape:window-x="2475"
     inkscape:window-y="27"
     inkscape:window-maximized="0"
     inkscape:current-layer="svg26" />
  <path
     style="fill:#9e9e9e"
     inkscape:connector-curvature="0"
     id="path2"
     d="M 122.26,91.4 H 389.6 c 3.15,0.21 5.77,0.9 7.86,2.07 a 12.31,12.31 0 0 1 4.9,5.08 l 57.5,92.14 a 11.7,11.7 0 0 1 2.45,7.31 c 0,2.75 -0.82,5.5 -2.44,8.27 l -73.9,82.94 68.45,114.44 c 1.17,5.94 0.8,10.41 -1.09,13.4 -1.9,2.99 -5.72,5.1 -11.45,6.33 H 71.36 c -5.1,0 -8.7,-2.1 -10.82,-6.33 -2.11,-4.23 -2.11,-9.32 0,-15.29 L 127.56,291.11 52.85,207.38 c -2.14,-2.87 -3.21,-5.81 -3.21,-8.83 0,-3.02 1.07,-6.04 3.2,-9.06 l 56.9,-90.94 a 10.6,10.6 0 0 1 4.62,-5.08 17.52,17.52 0 0 1 7.9,-2.07 z" />
  <path
     style="fill:#ffffff"
     inkscape:connector-curvature="0"
     id="path4"
     d="m 148.27,308.8 52,86 A 12,12 0 0 1 190,413 H 86 A 12,12 0 0 1 75.73,394.8 l 52,-86 a 12,12 0 0 1 20.54,0 z" />
  <path
     style="fill:#ffffff"
     inkscape:connector-curvature="0"
     id="path6"
     d="m 267.27,308.8 52,86 A 12,12 0 0 1 309,413 H 205 a 12,12 0 0 1 -10.27,-18.2 l 52,-86 a 12,12 0 0 1 20.54,0 z" />
  <path
     style="fill:#ffffff"
     inkscape:connector-curvature="0"
     id="path8"
     d="m 386.27,308.8 52,86 A 12,12 0 0 1 428,413 H 324 a 12,12 0 0 1 -10.27,-18.2 l 52,-86 a 12,12 0 0 1 20.54,0 z" />
  <path
     style="fill:#000000"
     inkscape:connector-curvature="0"
     id="path10"
     d="m 138,315 -52,86 h 104 z m 119,0 -52,86 h 104 z m 119,0 -52,86 h 104 z" />
  <path
     style="fill:#ffffff"
     inkscape:connector-curvature="0"
     id="path12"
     d="m 446.95,205.99 -91,102 A 12,12 0 0 1 347,312 H 165 a 12,12 0 0 1 -8.95,-4.01 l -91,-102 a 12,12 0 0 1 -1.23,-14.34 l 53,-85 A 12,12 0 0 1 127,101 h 258 a 12,12 0 0 1 10.18,5.65 l 53,85 a 12,12 0 0 1 -1.23,14.34 z" />
  <path
     style="fill:#000000"
     inkscape:connector-curvature="0"
     id="path14"
     d="M 438,198 385,113 H 127 l -53,85 91,102 h 182 z" />
  <path
     inkscape:connector-curvature="0"
     id="path16"
     fill="#40FFFFFF"
     d="m 386.13,205.79 -87,102 A 12,12 0 0 1 290,312 h -68 a 12,12 0 0 1 -9.13,-4.21 l -87,-102 a 12,12 0 0 1 -1.53,-13.3 l 44,-85 A 12,12 0 0 1 179,101 h 154 a 12,12 0 0 1 10.66,6.48 l 44,85 a 12,12 0 0 1 -1.53,13.3 z"
     style="fill:#ffffff" />
  <path
     style="fill:#000000"
     inkscape:connector-curvature="0"
     id="path18"
     d="M 377,198 333,113 H 179 l -44,85 87,102 h 68 z" />
  <path
     inkscape:connector-curvature="0"
     id="path20"
     fill="#40FFFFFF"
     d="m 319.65,203.53 -53,102 a 12,12 0 0 1 -21.3,0 l -53,-102 a 12,12 0 0 1 0.47,-11.88 l 53,-85 a 12,12 0 0 1 20.36,0 l 53,85 a 12,12 0 0 1 0.47,11.88 z"
     style="fill:#ffffff" />
  <path
     style="fill:#000000"
     inkscape:connector-curvature="0"
     id="path18-3"
     d="m 308.42135,197.45459 -53,-84.99999 -53,84.99999 53,102 z" />
</svg>
