<?xml version="1.0" encoding="UTF-8" standalone="no"?>
<svg
   xmlns:dc="http://purl.org/dc/elements/1.1/"
   xmlns:cc="http://creativecommons.org/ns#"
   xmlns:rdf="http://www.w3.org/1999/02/22-rdf-syntax-ns#"
   xmlns:svg="http://www.w3.org/2000/svg"
   xmlns="http://www.w3.org/2000/svg"
   xmlns:sodipodi="http://sodipodi.sourceforge.net/DTD/sodipodi-0.dtd"
   xmlns:inkscape="http://www.inkscape.org/namespaces/inkscape"
   viewBox="0 0 512.0 512.0"
   version="1.1"
   id="svg16"
   sodipodi:docname="ui_status_poison.svg"
   inkscape:version="0.92.4 (5da689c313, 2019-01-14)">
  <metadata
     id="metadata22">
    <rdf:RDF>
      <cc:Work
         rdf:about="">
        <dc:format>image/svg+xml</dc:format>
        <dc:type
           rdf:resource="http://purl.org/dc/dcmitype/StillImage" />
      </cc:Work>
    </rdf:RDF>
  </metadata>
  <defs
     id="defs20" />
  <sodipodi:namedview
     pagecolor="#ffffff"
     bordercolor="#666666"
     borderopacity="1"
     objecttolerance="10"
     gridtolerance="10"
     guidetolerance="10"
     inkscape:pageopacity="0"
     inkscape:pageshadow="2"
     inkscape:window-width="1404"
     inkscape:window-height="955"
     id="namedview18"
     showgrid="false"
     inkscape:zoom="0.4609375"
     inkscape:cx="256"
     inkscape:cy="256"
     inkscape:window-x="744"
     inkscape:window-y="86"
     inkscape:window-maximized="0"
     inkscape:current-layer="svg16" />
  <g
     id="g14"
     transform="translate(60.745763,52.067797)">
    <path
       d="M 122,240 C 54.62,240 0,186.27 0,120 0,53.73 54.62,0 122,0 c 67.38,0 122,53.73 122,120 0,66.27 -54.62,120 -122,120 z"
       id="path2"
       inkscape:connector-curvature="0"
       style="fill:#000000" />
    <path
       d="m 122,216 a 94,94 0 1 0 0,-188 94,94 0 0 0 0,188 z"
       id="path4"
       inkscape:connector-curvature="0"
       style="fill:#c875bf" />
    <path
       d="m 84,122 a 38,38 0 0 1 76,0 38,38 0 0 1 -76,0 z"
       id="path6"
       inkscape:connector-curvature="0"
       style="fill:#7f3598" />
    <path
       d="m 270,400 c -67.38,0 -122,-53.73 -122,-120 0,-66.27 54.62,-120 122,-120 67.38,0 122,53.73 122,120 0,66.27 -54.62,120 -122,120 z"
       id="path8"
       inkscape:connector-curvature="0"
       style="fill:#000000" />
    <path
       d="m 270,376 a 94,94 0 1 0 0,-188 94,94 0 0 0 0,188 z"
       id="path10"
       inkscape:connector-curvature="0"
       style="fill:#ae6ac9" />
    <path
       d="m 232,278 a 38,38 0 0 1 76,0 38,38 0 0 1 -76,0 z"
       id="path12"
       inkscape:connector-curvature="0"
       style="fill:#7f3598" />
  </g>
</svg>
