<?xml version="1.0" encoding="UTF-8" standalone="no"?>
<svg
   xmlns:dc="http://purl.org/dc/elements/1.1/"
   xmlns:cc="http://creativecommons.org/ns#"
   xmlns:rdf="http://www.w3.org/1999/02/22-rdf-syntax-ns#"
   xmlns:svg="http://www.w3.org/2000/svg"
   xmlns="http://www.w3.org/2000/svg"
   xmlns:sodipodi="http://sodipodi.sourceforge.net/DTD/sodipodi-0.dtd"
   xmlns:inkscape="http://www.inkscape.org/namespaces/inkscape"
   viewBox="0 0 512.0 512.0"
   version="1.1"
   id="svg10"
   sodipodi:docname="ui_side_weapon.svg"
   inkscape:version="0.92.4 (5da689c313, 2019-01-14)">
  <metadata
     id="metadata16">
    <rdf:RDF>
      <cc:Work
         rdf:about="">
        <dc:format>image/svg+xml</dc:format>
        <dc:type
           rdf:resource="http://purl.org/dc/dcmitype/StillImage" />
      </cc:Work>
    </rdf:RDF>
  </metadata>
  <defs
     id="defs14" />
  <sodipodi:namedview
     pagecolor="#ffffff"
     bordercolor="#666666"
     borderopacity="1"
     objecttolerance="10"
     gridtolerance="10"
     guidetolerance="10"
     inkscape:pageopacity="0"
     inkscape:pageshadow="2"
     inkscape:window-width="640"
     inkscape:window-height="480"
     id="namedview12"
     showgrid="false"
     inkscape:zoom="0.4609375"
     inkscape:cx="256"
     inkscape:cy="256"
     inkscape:window-x="2639"
     inkscape:window-y="81"
     inkscape:window-maximized="0"
     inkscape:current-layer="svg10" />
  <path
     style="fill:#000000"
     inkscape:connector-curvature="0"
     id="path2"
     d="m 358.32,372.92 a 317.97,317.97 0 0 1 -9.76,20.45 41.42,41.42 0 1 1 -71.87,-0.94 c 1.61,-3.64 4.11,-7.12 7.5,-10.93 8.75,-9.81 15.26,-22.5 19.44,-38.23 l -37.22,-20.19 a 16.35,16.35 0 0 1 -6.2,-22.83 l 15.46,-25.55 a 16.35,16.35 0 0 1 22.5,-5.5 805.7,805.7 0 0 0 15.66,9.35 c 26.18,-45.9 39.03,-84.62 38.96,-115.78 -0.07,-31.85 -13.62,-56.01 -41.8,-74.15 -15.8,-10.18 -4.73,-34.64 13.35,-29.46 59.21,16.93 94.67,49.64 103.5,97.55 7.84,42.5 -5.78,95.2 -40,158.6 l 41.05,21.74 a 16.35,16.35 0 0 1 6.72,22.25 l -15.5,28.54 a 16.35,16.35 0 0 1 -22.15,6.58 z m -203.95,-2.18 -39.64,21.5 a 16.35,16.35 0 0 1 -22.16,-6.58 l -15.5,-28.54 c -4.33,-8 -1.31,-18 6.73,-22.25 l 41.06,-21.73 C 90.63,249.72 77,197.02 84.84,154.53 c 8.84,-47.91 44.3,-80.62 103.5,-97.55 18.1,-5.18 29.17,19.28 13.35,29.46 -28.17,18.14 -41.72,42.3 -41.8,74.15 -0.06,31.16 12.8,69.87 38.97,115.78 a 805.7,805.7 0 0 0 15.66,-9.35 16.35,16.35 0 0 1 22.5,5.5 l 15.46,25.55 c 4.83,7.98 2,18.38 -6.2,22.83 l -37.22,20.19 c 4.18,15.73 10.7,28.42 19.44,38.23 3.39,3.8 5.89,7.3 7.5,10.93 a 41.42,41.42 0 1 1 -71.87,0.94 c -3.54,-6.8 -6.8,-13.61 -9.76,-20.45 z" />
  <path
     style="fill:#ffffff"
     inkscape:connector-curvature="0"
     id="path4"
     d="M 106.94,377.87 94.1,354.19 a 5.45,5.45 0 0 1 2.28,-7.43 l 122.13,-63.42 a 5.45,5.45 0 0 1 7.18,2.01 l 9.85,16.3 a 5.45,5.45 0 0 1 -2.06,7.6 l -126.53,68.62 z m 87.32,-29.03 c 4.85,16.54 12.2,30.32 22.04,41.36 2.71,3.05 4.4,5.54 5.08,7.47 A 25.07,25.07 0 1 1 183.55,392.7 307.45,307.45 0 0 1 168.82,362.97 Z M 192.84,72.7 c -61.7,39.72 -65.48,108.43 -11.36,206.13 L 136.75,300.7 C 71.97,177.92 90.66,101.92 192.85,72.7 Z M 406.9,380.05 280.37,311.43 a 5.45,5.45 0 0 1 -2.06,-7.6 l 9.85,-16.3 a 5.45,5.45 0 0 1 7.18,-2.01 l 122.13,63.42 a 5.45,5.45 0 0 1 2.28,7.43 z m -87.32,-29.03 25.44,14.13 a 307.45,307.45 0 0 1 -14.73,29.73 25.07,25.07 0 1 1 -37.83,4.97 c 0.67,-1.93 2.37,-4.42 5.08,-7.47 9.84,-11.04 17.19,-24.82 22.04,-41.36 z M 321,74.87 c 102.18,29.22 120.87,105.22 56.1,228 L 332.34,281 C 386.46,183.3 382.67,114.6 320.98,74.87 Z" />
</svg>
