<?xml version="1.0" encoding="UTF-8" standalone="no"?>
<svg
   xmlns:dc="http://purl.org/dc/elements/1.1/"
   xmlns:cc="http://creativecommons.org/ns#"
   xmlns:rdf="http://www.w3.org/1999/02/22-rdf-syntax-ns#"
   xmlns:svg="http://www.w3.org/2000/svg"
   xmlns="http://www.w3.org/2000/svg"
   xmlns:sodipodi="http://sodipodi.sourceforge.net/DTD/sodipodi-0.dtd"
   xmlns:inkscape="http://www.inkscape.org/namespaces/inkscape"
   viewBox="0 0 512.0 512.0"
   version="1.1"
   id="svg22"
   sodipodi:docname="ui_side_decoration.svg"
   inkscape:version="0.92.4 (5da689c313, 2019-01-14)">
  <metadata
     id="metadata28">
    <rdf:RDF>
      <cc:Work
         rdf:about="">
        <dc:format>image/svg+xml</dc:format>
        <dc:type
           rdf:resource="http://purl.org/dc/dcmitype/StillImage" />
      </cc:Work>
    </rdf:RDF>
  </metadata>
  <defs
     id="defs26" />
  <sodipodi:namedview
     pagecolor="#ffffff"
     bordercolor="#666666"
     borderopacity="1"
     objecttolerance="10"
     gridtolerance="10"
     guidetolerance="10"
     inkscape:pageopacity="0"
     inkscape:pageshadow="2"
     inkscape:window-width="958"
     inkscape:window-height="1121"
     id="namedview24"
     showgrid="false"
     inkscape:zoom="0.4609375"
     inkscape:cx="256"
     inkscape:cy="256"
     inkscape:window-x="2608"
     inkscape:window-y="7"
     inkscape:window-maximized="0"
     inkscape:current-layer="svg22" />
  <path
     style="fill:#000000"
     inkscape:connector-curvature="0"
     id="path2"
     d="m 56.02,56 h 119.8 L 176,86.57 115.73,140 56,87.05 Z m 140,0 h 119.8 L 316,86.57 255.73,140 196,87.05 Z m 140,0 h 119.8 L 456,86.57 395.73,140 336,87.05 Z m -189.51,96.33 h 213.54 l 81.24,73.59 v 77.64 L 294.14,453.52 215.2,453.48 69.89,303.25 v -76.89 z" />
  <path
     style="fill:#ffffff"
     inkscape:connector-curvature="0"
     id="path4"
     d="m 158.78,175.62 h 192.45 l 67,60.7 v 57.44 L 288.56,430.23 224.91,430.19 92.94,293.76 V 236.31 Z M 72.38,74.74 h 87.98 l -44,38.92 z m 139.1,-0.15 h 89.1 L 256.02,113.5 211.47,74.59 Z m 140,0 h 89.1 L 396.02,113.5 351.47,74.59 Z" />
  <path
     style="fill:#000000"
     inkscape:connector-curvature="0"
     id="path6"
     d="m 86.15,274.54 v -16 h 339.22 v 16 z" />
  <path
     style="fill:#000000"
     inkscape:connector-curvature="0"
     id="path8"
     d="m 176,264.96 70.41,172.92 -14.82,6.04 L 160,268.09 V 168 h 16 z m 158.41,4 V 172 h 16 V 272.09 L 278.82,447.92 264,441.88 Z" />
  <path
     style="fill:#000000"
     inkscape:connector-curvature="0"
     id="path10"
     d="m 248.67,158.81 12.17,10.38 -86.75,101.67 -12.18,-10.38 z" />
  <path
     style="fill:#000000"
     inkscape:connector-curvature="0"
     id="path12"
     d="m 266.09,162.81 86.75,101.67 -12.17,10.38 -86.76,-101.67 z" />
</svg>
