<?xml version="1.0" encoding="UTF-8" standalone="no"?>
<svg
   xmlns:dc="http://purl.org/dc/elements/1.1/"
   xmlns:cc="http://creativecommons.org/ns#"
   xmlns:rdf="http://www.w3.org/1999/02/22-rdf-syntax-ns#"
   xmlns:svg="http://www.w3.org/2000/svg"
   xmlns="http://www.w3.org/2000/svg"
   xmlns:sodipodi="http://sodipodi.sourceforge.net/DTD/sodipodi-0.dtd"
   xmlns:inkscape="http://www.inkscape.org/namespaces/inkscape"
   viewBox="0 0 512.0 512.0"
   version="1.1"
   id="svg8"
   sodipodi:docname="ui_weakness_no_effect_star.svg"
   inkscape:version="0.92.4 (5da689c313, 2019-01-14)">
  <metadata
     id="metadata14">
    <rdf:RDF>
      <cc:Work
         rdf:about="">
        <dc:format>image/svg+xml</dc:format>
        <dc:type
           rdf:resource="http://purl.org/dc/dcmitype/StillImage" />
      </cc:Work>
    </rdf:RDF>
  </metadata>
  <defs
     id="defs12" />
  <sodipodi:namedview
     pagecolor="#ffffff"
     bordercolor="#666666"
     borderopacity="1"
     objecttolerance="10"
     gridtolerance="10"
     guidetolerance="10"
     inkscape:pageopacity="0"
     inkscape:pageshadow="2"
     inkscape:window-width="1353"
     inkscape:window-height="1113"
     id="namedview10"
     showgrid="false"
     inkscape:zoom="1.84375"
     inkscape:cx="260.95988"
     inkscape:cy="265.10354"
     inkscape:window-x="735"
     inkscape:window-y="72"
     inkscape:window-maximized="0"
     inkscape:current-layer="svg8" />
  <path
     style="fill:#cccccc"
     inkscape:connector-curvature="0"
     id="path2"
     d="m 223.78,87 c 8.59,-24.56 43.07,-25.56 53.08,-1.55 l 48.2,115.59 h 92.46 c 27.22,0 38.87,34.45 17.2,50.87 l -77.4,58.7 31.14,98.42 c 8.22,26 -21.55,47.44 -43.73,31.5 l -87.4,-62.84 -83.65,62.52 c -21.74,16.25 -51.77,-4.26 -44.41,-30.34 L 157.18,311 79.27,251.9 c -21.66,-16.42 -10,-50.87 17.2,-50.87 h 87.44 z" />
  <path
     style="fill:#ffeeaa"
     inkscape:connector-curvature="0"
     id="path4"
     d="M 93,227.67 188.9,300.36 154.83,421 258,343.92 365.26,421 327.08,300.36 423,227.67 H 308.47 L 251.44,91 203.63,227.67 Z" />
</svg>
