<?xml version="1.0" encoding="UTF-8" standalone="no"?>
<svg xmlns="http://www.w3.org/2000/svg" xmlns:xlink="http://www.w3.org/1999/xlink" viewBox="0 0 512.0 512.0">
  <g>
    <path d="M200 400C89.54 400 0 310.46 0 200S89.54 0 200 0s200 89.54 200 200-89.54 200-200 200z" fill="#000000"/>
    <path d="M106.05 307.71a138 138 0 0 0 85.7 35.69v42.36c-44.7-2-85.27-19.72-116.14-47.81l30.44-30.24z" fill="#D4C472"/>
    <path d="M295.1 307.71l30.45 30.24a183.18 183.18 0 0 1-116.14 47.81V343.4c32.83-1.91 62.68-14.85 85.7-35.69z" fill="#D4C472"/>
    <path d="M385.02 209.22c-2 44.7-19.72 85.27-47.8 116.15l-30.25-30.45a137.92 137.92 0 0 0 35.69-85.7h42.36z" fill="#D4C472"/>
    <path d="M57.58 209.22c1.9 32.83 14.84 62.7 35.68 85.7l-30.24 30.45a183.17 183.17 0 0 1-47.8-116.15h42.36z" fill="#D4C472"/>
    <path d="M337.22 75.42a183.17 183.17 0 0 1 47.8 116.15h-42.36a139.11 139.11 0 0 0-35.7-85.7l30.26-30.45z" fill="#D4C472"/>
    <path d="M63.02 75.42l30.24 30.45a137.91 137.91 0 0 0-35.68 85.7H15.2c2-44.7 19.72-85.27 47.8-116.15z" fill="#D4C472"/>
    <path d="M190.82 15.03v42.36a137.45 137.45 0 0 0-85.01 35.69L75.6 62.83a181.02 181.02 0 0 1 115.21-47.8z" fill="#D4C472"/>
    <path d="M209.4 15.03c44.7 2 85.28 19.72 116.15 47.8l-30.44 30.25a138.02 138.02 0 0 0-85.7-35.7V15.04z" fill="#D4C472"/>
    <path d="M209.41 343.02v42.3l-8.83 0.44-8.83-0.44v-42.3l8.83 0.44z" fill="#404040"/>
    <path d="M209.41 14.53v43.22l-9.78-0.46-8.83 0.46V14.53l8.83-0.45z" fill="#404040"/>
    <path d="M385.49 200.86l-0.46 8.82h-43.21l0.45-8.82-0.45-8.83h43.2z" fill="#404040"/>
    <path d="M57.98 199.93l0.44 8.83h-42.3l-0.44-8.83 0.44-8.83h42.3z" fill="#404040"/>
    <path d="M306.35 294.96l30.58 30.58-5.95 6.54-6.53 5.94-30.58-30.58 6.83-5.64z" fill="#404040"/>
    <path d="M75.51 63.2l30.59 30.58-6.84 5.64-5.65 6.84-30.58-30.58 5.95-6.54z" fill="#404040"/>
    <path d="M99.4 302.08l6.85 5.64-30.59 30.58-6.54-5.95-5.94-6.54 30.58-30.58z" fill="#404040"/>
    <path d="M331.43 69.1l5.94 6.54-30.58 30.58-5.64-6.84-6.84-5.64 30.58-30.58z" fill="#404040"/>
    <path d="M200.58 76.36a126.83 123.11 0 1 0 0 246.22 126.83 123.11 0 1 0 0-246.22z" fill="#404040"/>
    <path d="M200.12 68.92c72.81 0 131.94 59.12 131.94 131.94S272.93 332.8 200.12 332.8c-72.82 0-131.94-59.12-131.94-131.94S127.3 68.92 200.12 68.92zm-87.61 46.46l9.64 43.82 134.91-10.52-148.93 112.2 164.7 24.53-62.2-50.83 81.47-99.92-179.59-19.28z" fill="#837A47"/>
  </g>
</svg>
