<?xml version="1.0" encoding="UTF-8" standalone="no"?>
<svg
   xmlns:dc="http://purl.org/dc/elements/1.1/"
   xmlns:cc="http://creativecommons.org/ns#"
   xmlns:rdf="http://www.w3.org/1999/02/22-rdf-syntax-ns#"
   xmlns:svg="http://www.w3.org/2000/svg"
   xmlns="http://www.w3.org/2000/svg"
   xmlns:sodipodi="http://sodipodi.sourceforge.net/DTD/sodipodi-0.dtd"
   xmlns:inkscape="http://www.inkscape.org/namespaces/inkscape"
   viewBox="0 0 512.0 512.0"
   version="1.1"
   id="svg10"
   sodipodi:docname="bow.svg"
   inkscape:version="0.92.4 (5da689c313, 2019-01-14)">
  <metadata
     id="metadata16">
    <rdf:RDF>
      <cc:Work
         rdf:about="">
        <dc:format>image/svg+xml</dc:format>
        <dc:type
           rdf:resource="http://purl.org/dc/dcmitype/StillImage" />
      </cc:Work>
    </rdf:RDF>
  </metadata>
  <defs
     id="defs14" />
  <sodipodi:namedview
     pagecolor="#ffffff"
     bordercolor="#666666"
     borderopacity="1"
     objecttolerance="10"
     gridtolerance="10"
     guidetolerance="10"
     inkscape:pageopacity="0"
     inkscape:pageshadow="2"
     inkscape:window-width="958"
     inkscape:window-height="1128"
     id="namedview12"
     showgrid="false"
     inkscape:zoom="0.921875"
     inkscape:cx="156.18695"
     inkscape:cy="382.15315"
     inkscape:window-x="2507"
     inkscape:window-y="0"
     inkscape:window-maximized="0"
     inkscape:current-layer="svg10" />
  <path
     style="fill:#000000"
     inkscape:connector-curvature="0"
     id="path2"
     d="m 56.35,245.57 43.85,-26.72 h 27.43 v -16.81 c 0,-8.48 6.86,-15.34 15.34,-15.34 h 9.5 a 54.95,54.95 0 0 1 -6.8,-8.43 47.33,47.33 0 0 1 -7.74,-24.45 81.66,81.66 0 0 1 1.3,-18.92 l -26.57,-26.56 -1.02,-1.8 c -6.26,-11.03 -6.26,-22.81 1.78,-32.02 8.5,-9.72 20.83,-10.66 32.32,-4.4 l 1.95,1.06 32.1,32.1 h 47.82 c 5.63,0 10.7,1.63 15.1,4.6 2.94,1.98 4.9,3.93 7.58,7.05 l 0.83,0.97 h 15.94 c 0,-4.97 -0.36,-8.22 -1.1,-10.14 a 26.1,26.1 0 0 1 -7.21,-0.39 c -4.91,-1 -9.37,-3.6 -12.11,-8.75 -3.05,-5.7 -2.35,-11.61 0.37,-16.4 a 21.96,21.96 0 0 1 5.57,-6.34 c 6.76,-5.4 17.44,-8.88 28.19,-8.88 13.52,0 24.52,7.1 31.42,18.66 5.37,9.03 8.08,20.48 8.08,32.23 0,11.38 -2.77,22.07 -8.03,30.39 -6.27,9.91 -15.9,16.15 -27.17,16.15 h -83.04 a 18.21,18.21 0 0 0 -0.73,1.02 88.85,88.85 0 0 0 1.21,1.3 l 3.74,3.9 c 3.84,4.07 6.54,7.35 8.87,11.16 a 39.27,39.27 0 0 1 3.5,7.2 c 1,-0.2 2.03,-0.31 3.09,-0.31 h 26.59 c 8.47,0 15.34,6.86 15.34,15.34 v 28.63 h 21.27 l 54.1,-54.2 h 116.84 v 16.66 l -51.08,53.39 v 19.24 L 455.85,320 v 15.8 H 339 l -54.1,-54.2 h -21.27 v 28.63 c 0,8.47 -6.87,15.34 -15.34,15.34 H 221.7 c -1.06,0 -2.1,-0.1 -3.09,-0.31 a 39.27,39.27 0 0 1 -3.5,7.2 c -2.33,3.8 -5.03,7.08 -8.87,11.15 -0.8,0.85 -3.35,3.5 -3.74,3.9 a 88.85,88.85 0 0 0 -1.2,1.3 18.21,18.21 0 0 0 0.72,1.03 h 83.04 c 11.27,0 20.9,6.24 27.17,16.15 5.26,8.32 8.03,19.01 8.03,30.39 0,11.74 -2.7,23.2 -8.08,32.22 -6.9,11.56 -17.9,18.67 -31.42,18.67 -10.75,0 -21.43,-3.5 -28.19,-8.88 A 21.96,21.96 0 0 1 247,432.04 c -2.72,-4.78 -3.42,-10.69 -0.37,-16.4 2.74,-5.14 7.2,-7.74 12.1,-8.75 a 26.1,26.1 0 0 1 7.21,-0.38 c 0.75,-1.92 1.1,-5.18 1.1,-10.14 h -15.93 l -0.83,0.97 c -2.69,3.12 -4.64,5.06 -7.58,7.04 a 26.56,26.56 0 0 1 -15.1,4.6 h -47.8 l -32.1,32.1 -1.95,1.06 c -11.49,6.27 -23.82,5.33 -32.32,-4.4 -8.04,-9.2 -8.04,-20.99 -1.78,-32 l 1.02,-1.81 26.56,-26.57 a 81.66,81.66 0 0 1 -1.29,-18.92 47.33,47.33 0 0 1 7.74,-24.44 54.95,54.95 0 0 1 6.8,-8.43 h -9.5 A 15.34,15.34 0 0 1 127.64,310.23 V 290.35 H 100.2 l -43.85,-24.6 v -20.19 z" />
  <path
     style="fill:#ffffff"
     inkscape:connector-curvature="0"
     id="path4"
     d="m 416.96,191.8 h 18.95 l -41.12,42.96 h -20.7 l 42.87,-42.95 z m -35.8,0 h 18.96 L 359,234.77 h -20.7 l 42.88,-42.95 z m -35.79,0 h 18.96 l -41.13,42.96 h -20.7 l 42.87,-42.95 z m -218.73,42.4 v 40.26 H 104.5 l -34.79,-19.06 34.8,-21.2 z m 16.33,-32.15 h 24.54 v 32.72 h -24.54 z m 78.74,0 h 26.59 v 32.72 h -26.6 v -32.72 z m -36.7,33.02 v -37.24 c 0,-11.73 -30.68,-17.13 -31.75,-44.6 -0.97,-24.8 9.05,-34.6 16.48,-34.6 h 57.87 c 10.74,0 11.85,12.62 20.58,12.62 h 28.2 c 2.95,0 6,-5.8 6,-15.35 0,-9.56 -0.82,-25.5 -16.8,-25.5 -13,1.35 -1.26,-10.05 15.18,-10.05 16.43,0 24.16,17.96 24.16,35.55 0,17.59 -8.47,31.2 -19.86,31.2 h -89.74 c -6.89,6.52 -10.33,12.54 -10.33,18.04 0,8.26 20.2,18.34 20.2,32.69 v 37.24 H 185 Z m -42.04,10.95 h 246.46 v 19.43 H 142.97 Z m -18,-147.05 c -3.28,-5.8 -3.28,-10.58 0,-14.34 3.3,-3.77 7.77,-4.11 13.43,-1.03 l 21.67,21.66 c -5.95,2.5 -11.14,7.22 -14.89,13.5 a 40.93,40.93 0 0 0 -0.15,0.26 L 124.98,98.97 Z m 291.99,221.5 -42.87,-42.94 h 20.7 l 41.12,42.95 h -18.95 z m -35.8,0 -42.87,-42.94 H 359 l 41.13,42.95 h -18.95 z m -35.79,0 -42.87,-42.94 h 20.7 l 41.13,42.95 h -18.96 z m -202.4,-10.22 v -32.72 h 24.54 v 32.72 z m 78.74,0 v -32.72 h 26.59 v 32.72 h -26.6 z m -36.7,-33.03 h 20.19 v 37.25 c 0,14.35 -20.2,24.43 -20.2,32.68 0,5.5 3.44,11.52 10.33,18.05 h 89.74 c 11.4,0 19.86,13.61 19.86,31.2 0,17.59 -7.73,35.55 -24.16,35.55 -16.44,0 -28.17,-11.4 -15.18,-10.06 15.98,0 16.8,-15.93 16.8,-25.5 0,-9.55 -3.05,-15.34 -6,-15.34 h -28.2 c -8.73,0 -9.84,12.61 -20.58,12.61 h -57.87 c -7.43,0 -17.45,-9.79 -16.48,-34.6 C 154.33,331.6 185,326.2 185,314.46 v -37.24 z m -39.83,116.31 c 3.75,6.28 8.94,11.01 14.89,13.5 l -21.67,21.66 c -5.66,3.09 -10.13,2.75 -13.42,-1.02 -3.3,-3.77 -3.3,-8.55 0,-14.35 l 20.05,-20.05 a 40.96,40.96 0 0 0 0.15,0.26 z" />
</svg>
