<?xml version="1.0" encoding="UTF-8" standalone="no"?>
<svg
   xmlns:dc="http://purl.org/dc/elements/1.1/"
   xmlns:cc="http://creativecommons.org/ns#"
   xmlns:rdf="http://www.w3.org/1999/02/22-rdf-syntax-ns#"
   xmlns:svg="http://www.w3.org/2000/svg"
   xmlns="http://www.w3.org/2000/svg"
   xmlns:sodipodi="http://sodipodi.sourceforge.net/DTD/sodipodi-0.dtd"
   xmlns:inkscape="http://www.inkscape.org/namespaces/inkscape"
   viewBox="0 0 512.0 512.0"
   version="1.1"
   id="svg18"
   sodipodi:docname="charge_blade.svg"
   inkscape:version="0.92.4 (5da689c313, 2019-01-14)">
  <metadata
     id="metadata24">
    <rdf:RDF>
      <cc:Work
         rdf:about="">
        <dc:format>image/svg+xml</dc:format>
        <dc:type
           rdf:resource="http://purl.org/dc/dcmitype/StillImage" />
      </cc:Work>
    </rdf:RDF>
  </metadata>
  <defs
     id="defs22" />
  <sodipodi:namedview
     pagecolor="#ffffff"
     bordercolor="#666666"
     borderopacity="1"
     objecttolerance="10"
     gridtolerance="10"
     guidetolerance="10"
     inkscape:pageopacity="0"
     inkscape:pageshadow="2"
     inkscape:window-width="902"
     inkscape:window-height="890"
     id="namedview20"
     showgrid="false"
     inkscape:zoom="1.3037281"
     inkscape:cx="322.7591"
     inkscape:cy="245.23672"
     inkscape:window-x="2385"
     inkscape:window-y="58"
     inkscape:window-maximized="0"
     inkscape:current-layer="svg18" />
  <path
     style="fill:#000000"
     inkscape:connector-curvature="0"
     id="path2"
     d="M 228.89,264.88 203.86,246.3 v 70.66 H 146.9 L 83.75,249.04 V 105.72 L 66.89,56.93 220.98,58.87 257,94.89 292.13,59.76 446.24,61.7 428.4,106.11 v 142.93 l -63.15,67.92 H 308.3 V 246.3 l -25.03,18.58 h 6.23 v 17.75 h 17.75 V 402.74 H 289.5 V 456 h -66.84 v -49.09 h 17.75 v -4.17 H 204.9 v -84.6 h 17.76 v -53.26 z" />
  <path
     style="fill:#ffffff"
     inkscape:connector-curvature="0"
     id="path4"
     d="M 188.2,229.93 V 301.3 H 153.73 L 99.42,242.89 v -139.8 l -10.44,-28.12 110.7,0.7 v 32.17 h -28.2 v 122.09 h 16.71 z m 135.76,0 h 16.71 V 107.84 h -28.2 V 76.38 l 110.71,0.7 -10.44,26 v 139.8 L 358.43,301.3 H 323.96 Z M 187.15,213.76 V 123.5 H 325 v 90.25 l -68.93,51.9 -68.93,-51.9 z m 86.68,226.57 v -17.75 h -35.5 v 17.75 z m 0,-106.52 v -17.76 h -17.75 v 53.27 h 17.75 v -17.76 h 17.76 v -17.75 z m -35.5,-17.76 h 17.75 V 298.3 h 17.75 v -17.76 h -35.5 z m -17.76,17.76 v 17.75 h 17.75 v -17.75 z m 0,35.5 v 17.76 h 17.75 v -17.75 h -17.75 z m 53.26,0 v 17.76 h 17.76 v -17.75 h -17.76 z m -17.75,17.76 v 17.76 h 17.75 v -17.76 z m 17.75,-88.77 v 17.75 h 17.76 V 298.3 Z" />
  <path
     style="fill:#000000"
     inkscape:connector-curvature="0"
     id="path8"
     d="m 201.77,144.96 h 108.62 v 54.5 l -54.31,39.73 -54.31,-39.73 z m 16.62,11.29 v 37.82 l 37.69,27.57 37.69,-27.57 v -37.82 z" />
  <path
     inkscape:connector-curvature="0"
     id="path14"
     d="M 371.5,-0.5 373,1" />
</svg>
