<?xml version="1.0" encoding="UTF-8" standalone="no"?>
<svg
   xmlns:dc="http://purl.org/dc/elements/1.1/"
   xmlns:cc="http://creativecommons.org/ns#"
   xmlns:rdf="http://www.w3.org/1999/02/22-rdf-syntax-ns#"
   xmlns:svg="http://www.w3.org/2000/svg"
   xmlns="http://www.w3.org/2000/svg"
   xmlns:sodipodi="http://sodipodi.sourceforge.net/DTD/sodipodi-0.dtd"
   xmlns:inkscape="http://www.inkscape.org/namespaces/inkscape"
   viewBox="0 0 512.0 512.0"
   version="1.1"
   id="svg92"
   sodipodi:docname="great_sword.svg"
   inkscape:version="0.92.4 (5da689c313, 2019-01-14)">
  <metadata
     id="metadata98">
    <rdf:RDF>
      <cc:Work
         rdf:about="">
        <dc:format>image/svg+xml</dc:format>
        <dc:type
           rdf:resource="http://purl.org/dc/dcmitype/StillImage" />
      </cc:Work>
    </rdf:RDF>
  </metadata>
  <defs
     id="defs96" />
  <sodipodi:namedview
     pagecolor="#ffffff"
     bordercolor="#666666"
     borderopacity="1"
     objecttolerance="10"
     gridtolerance="10"
     guidetolerance="10"
     inkscape:pageopacity="0"
     inkscape:pageshadow="2"
     inkscape:window-width="891"
     inkscape:window-height="875"
     id="namedview94"
     showgrid="false"
     inkscape:zoom="0.4609375"
     inkscape:cx="256"
     inkscape:cy="256"
     inkscape:window-x="2347"
     inkscape:window-y="99"
     inkscape:window-maximized="0"
     inkscape:current-layer="svg92" />
  <path
     style="fill:#000000"
     inkscape:connector-curvature="0"
     id="path84"
     d="m 326.2,253.36 c 0.55,14.34 1.67,26.96 3.21,36.2 a 78.59,78.59 0 0 0 1.8,8.42 l 9.76,27.68 -19.83,12.5 a 101.63,101.63 0 0 0 4.41,14.62 40.5,40.5 0 0 0 3.99,7.83 c 0.9,1.3 1.62,2.08 2.11,2.44 4.75,3.46 15.52,6.24 32.05,6.99 l 22.97,1.04 2.96,76.9 -21.06,4.08 c -21.23,4.1 -43.95,3.52 -68.02,-1.6 -39.47,-8.4 -64.88,-33.64 -75.25,-72.33 L 107.15,432.91 V 209.55 l 0.11,-1.2 c 3.54,-36.66 22.96,-71.54 57.05,-104.55 47.3,-42.86 114.53,-55.86 200.34,-41.24 l 39.85,10.94 -25.03,29.93 c -28.07,32.92 -44.95,58.68 -50.59,75.87 -2.63,16.71 -3.75,46.65 -2.69,74.06 z" />
  <path
     style="fill:#ffffff"
     inkscape:connector-curvature="0"
     id="path86"
     d="m 352.06,97.23 c -25.92,31.56 -41.77,56.99 -47.56,76.27 -6.4,37.25 -4.91,131.21 7.66,141.25 l -8.78,4.16 -82.1,34.57 V 196.22 a 8.73,8.73 0 0 1 0.51,-2.36 33.61,33.61 0 0 1 2.18,-4.94 c 2.15,-4.1 5.42,-9.01 9.65,-14.47 9.27,-11.97 22.5,-25.69 38.26,-39.4 19.39,-16.88 46.1,-29.52 80.18,-37.82 z m -10.47,-12.8 c -33.05,8.85 -59.59,21.92 -79.56,39.3 -33.33,29.01 -55.76,57.95 -55.76,72.49 v 164.55 l -74.12,33 V 210.74 c 2.9,-30.15 19.42,-59.81 49.55,-88.99 37,-33.51 90.3,-45.96 159.9,-37.34 z M 306.02,370 a 45.65,45.65 0 0 0 6.66,9.46 l -29.6,38.58 a 63.91,63.91 0 0 1 -22.98,-20.1 z m -5.87,-14 -47.29,28.8 a 93.71,93.71 0 0 1 -5.19,-16.5 l 49.98,-20.95 a 134.3,134.3 0 0 0 2.5,8.66 z m 24.98,31.88 a 61.64,61.64 0 0 0 5.62,2.13 v 39.48 c -8.07,-0.5 -16.4,-1.66 -25,-3.49 -2.85,-0.6 -5.6,-1.31 -8.26,-2.11 z m 20.62,5.56 c 5.12,0.77 10.73,1.3 16.83,1.57 l 1.25,32.5 a 124.44,124.44 0 0 1 -18.08,2.12 v -36.2 z M 267.62,227.25 a 14.38,14.38 0 1 1 0,-28.75 14.38,14.38 0 0 1 0,28.75 z m 0.15,10.78 a 24.38,24.38 0 1 0 0,-48.75 24.38,24.38 0 0 0 0,48.75 z m -0.14,60.47 a 14.38,14.38 0 1 1 0,-28.75 14.38,14.38 0 0 1 0,28.75 z m 0.14,10.78 a 24.38,24.38 0 1 0 0,-48.75 24.38,24.38 0 0 0 0,48.75 z" />
</svg>
