<?xml version="1.0" encoding="UTF-8" standalone="no"?>
<svg
   xmlns:dc="http://purl.org/dc/elements/1.1/"
   xmlns:cc="http://creativecommons.org/ns#"
   xmlns:rdf="http://www.w3.org/1999/02/22-rdf-syntax-ns#"
   xmlns:svg="http://www.w3.org/2000/svg"
   xmlns="http://www.w3.org/2000/svg"
   xmlns:sodipodi="http://sodipodi.sourceforge.net/DTD/sodipodi-0.dtd"
   xmlns:inkscape="http://www.inkscape.org/namespaces/inkscape"
   viewBox="0 0 512.0 512.0"
   version="1.1"
   id="svg135"
   sodipodi:docname="gunlance.svg"
   inkscape:version="0.92.4 (5da689c313, 2019-01-14)">
  <metadata
     id="metadata141">
    <rdf:RDF>
      <cc:Work
         rdf:about="">
        <dc:format>image/svg+xml</dc:format>
        <dc:type
           rdf:resource="http://purl.org/dc/dcmitype/StillImage" />
      </cc:Work>
    </rdf:RDF>
  </metadata>
  <defs
     id="defs139" />
  <sodipodi:namedview
     pagecolor="#ffffff"
     bordercolor="#666666"
     borderopacity="1"
     objecttolerance="10"
     gridtolerance="10"
     guidetolerance="10"
     inkscape:pageopacity="0"
     inkscape:pageshadow="2"
     inkscape:window-width="958"
     inkscape:window-height="1128"
     id="namedview137"
     showgrid="false"
     inkscape:zoom="1.8320312"
     inkscape:cx="256"
     inkscape:cy="256"
     inkscape:window-x="2873"
     inkscape:window-y="0"
     inkscape:window-maximized="0"
     inkscape:current-layer="svg135" />
  <path
     style="fill:#000000"
     inkscape:connector-curvature="0"
     id="path127"
     d="m 252.92,243.88 c -12.77,-19.8 -19.57,-44.3 -20.46,-73.15 l -0.45,-14.9 h 14.9 c 11.96,0 19.01,-2.72 31.48,-10.81 l 4.72,-3.08 c 9.25,-6.02 15.69,-9.55 23.98,-12.6 10.7,-3.93 22.45,-5.96 36.21,-5.96 13.79,0 25.44,2.03 35.96,6 8.12,3.06 14.19,6.5 23.4,12.65 l 3.25,2.17 c 13.21,8.82 20.34,11.62 33.78,11.62 h 14.45 v 14.46 c 0,39.54 -12.18,71.02 -36.62,93.37 v 90.08 c 0,16.26 -6.22,31.71 -18.26,43.08 -13.18,12.45 -32.23,19.1 -55.96,19.1 -23.73,0 -42.78,-6.65 -55.96,-19.1 a 57.58,57.58 0 0 1 -14.33,-21.44 h -58.9 v 36.72 c 0,9.92 -1.68,19.15 -5,26.45 -4.57,10.08 -12.5,16.93 -23.23,16.93 h -87 l 5.14,-18.36 c 3.75,-13.41 11.83,-25.02 23.84,-34.7 V 375.37 H 58.18 l 52.6,-61.07 H 75.26 v -70.42 h 52.6 v -35.2 H 74.97 v -90.95 c 0,-31.68 13.02,-51.72 49.7,-58.21 l 16.98,-3 v 46.75 h 86.6 v 50.55 H 214.1 v 90.06 z m 8.59,11.55 v 58.87 h -32.34 l 41.52,53.48 a 61.7,61.7 0 0 1 -1.6,-14.05 v -90.28 c -2.68,-2.56 -5.2,-5.23 -7.58,-8.02 z" />
  <path
     style="fill:#ffffff"
     inkscape:connector-curvature="0"
     id="path129"
     d="m 89.71,360.91 40.35,-46.84 h 80.63 l 36.36,46.84 z m 52.6,14.85 h 57.33 v 36.33 c 0,16.02 -5.24,28.92 -13.76,28.92 h -67.94 c 3.4,-12.16 11.53,-22.6 24.38,-31.33 V 375.76 Z M 247.05,258.33 v 41.5 H 89.71 v -41.5 h 28.05 v 29.96 h 32.77 V 258.4 h 37.59 v 29.88 h 32.77 v -29.96 h 26.16 z M 141.54,153.83 h 58.1 v 90.12 h -58.29 z m 0.03,-14.46 0.04,-21.64 h 72.17 v 21.64 z m 105.35,30.91 c 39,0 44,-29.37 89.15,-32.22 v 117.46 h -54.26 c -22.12,-19.6 -33.75,-48 -34.9,-85.24 z m 89.15,99.7 V 401.2 c -37.72,-2.6 -52.53,-25.58 -52.53,-47.47 v -83.75 z m 14.46,-14.46 V 138.06 c 44.92,2.86 47.7,32.22 89.16,32.22 0,37.23 -11.6,65.64 -34.81,85.24 z m 52.53,98.21 c 0,21.89 -14.8,44.88 -52.53,47.47 V 269.98 h 52.53 z M 127.16,194.22 h -38.7 v -76.5 c 0,-23.94 8.42,-38.6 38.74,-43.97 z m 172.77,3.47 v 42.4 h 21.2 v -42.4 z m 0,86.74 v 42.41 h 21.2 v -42.4 h -21.2 z m 64.58,-86.74 v 42.4 h 21.2 v -42.4 z m 0,86.74 v 42.41 h 21.2 v -42.4 h -21.2 z" />
</svg>
