<?xml version="1.0" encoding="UTF-8" standalone="no"?>
<svg
   xmlns:dc="http://purl.org/dc/elements/1.1/"
   xmlns:cc="http://creativecommons.org/ns#"
   xmlns:rdf="http://www.w3.org/1999/02/22-rdf-syntax-ns#"
   xmlns:svg="http://www.w3.org/2000/svg"
   xmlns="http://www.w3.org/2000/svg"
   xmlns:sodipodi="http://sodipodi.sourceforge.net/DTD/sodipodi-0.dtd"
   xmlns:inkscape="http://www.inkscape.org/namespaces/inkscape"
   viewBox="0 0 512.0 512.0"
   version="1.1"
   id="svg206"
   sodipodi:docname="heavy_bowgun.svg"
   inkscape:version="0.92.4 (5da689c313, 2019-01-14)">
  <metadata
     id="metadata212">
    <rdf:RDF>
      <cc:Work
         rdf:about="">
        <dc:format>image/svg+xml</dc:format>
        <dc:type
           rdf:resource="http://purl.org/dc/dcmitype/StillImage" />
      </cc:Work>
    </rdf:RDF>
  </metadata>
  <defs
     id="defs210" />
  <sodipodi:namedview
     pagecolor="#ffffff"
     bordercolor="#666666"
     borderopacity="1"
     objecttolerance="10"
     gridtolerance="10"
     guidetolerance="10"
     inkscape:pageopacity="0"
     inkscape:pageshadow="2"
     inkscape:window-width="958"
     inkscape:window-height="1128"
     id="namedview208"
     showgrid="false"
     inkscape:zoom="1.84375"
     inkscape:cx="324.76658"
     inkscape:cy="232.07513"
     inkscape:window-x="1913"
     inkscape:window-y="0"
     inkscape:window-maximized="0"
     inkscape:current-layer="svg206" />
  <path
     style="fill:#000000"
     inkscape:connector-curvature="0"
     id="path194"
     d="m 362.7,98.29 c 21.42,0.94 36.21,2.87 47.78,6.62 14.07,4.57 24.03,12.2 30.07,23.77 5.2,9.95 7.12,21.82 7.12,38.4 0,23.93 -3.66,38.52 -11.25,51.07 -1.08,1.79 -4.17,6.5 -4.13,6.43 -1.98,3.12 -2.44,4.52 -2.44,8.23 0,4.29 1.78,7.19 7.47,12.27 -0.4,-0.36 5.77,5 7.54,6.7 6.78,6.53 10.72,13.1 10.72,22.07 0,6.6 -2.98,12.34 -7.76,16.44 -3.26,2.79 -7.14,4.69 -11.52,5.98 -6.68,1.97 -14.8,2.54 -22.92,1.81 -7.94,-0.7 -15.57,-2.63 -21.88,-5.77 v 27.83 h 32 v 52.7 h -75.3 v 79.5 H 167.48 V 301.55 h 22.45 v -85.49 h 21.79 v -9.7 H 196.38 V 192.48 A 73.69,73.69 0 0 1 163.1,179.55 c -1.7,-1.18 -6.69,-4.84 -7.56,-5.44 -3.19,-2.2 -4.65,-2.77 -7.1,-2.77 -1.81,0 -3.13,0.2 -3.99,0.5 -0.62,0.46 -0.74,0.71 -0.86,1.06 a 16.53,16.53 0 0 0 -0.7,4.67 v 89.44 c 0,11.6 -7.11,20.05 -17.56,25.05 -6.88,3.3 -15.4,5.18 -24.4,5.75 -8.37,0.54 -16.8,-0.11 -23.63,-1.94 -4.36,-1.16 -8.19,-2.8 -11.46,-5.19 -5.34,-3.9 -8.93,-9.68 -8.93,-16.84 0,-8.37 3.85,-14.48 10.15,-20.08 2.36,-2.1 10.67,-8.33 10.46,-8.17 6.2,-4.9 8.31,-8.08 8.31,-12.8 a 4.82,4.82 0 0 0 -0.25,-1.34 c -0.39,-1.29 -1.16,-3 -2.56,-5.63 -0.23,-0.42 -4.1,-7.43 -5.4,-9.94 -7.79,-15.03 -11.85,-29.56 -11.85,-48.81 0,-16.96 1.35,-27.89 5.55,-37.43 5.28,-11.99 14.69,-19.97 28.43,-24.66 11.24,-3.84 25.83,-5.77 47.55,-6.7 14.6,-0.63 28.27,-0.8 61.18,-0.84 V 60.6 h 96.1 v 36.84 c 30.72,0.04 43.9,0.22 58.12,0.84 z m 11.37,79.86 a 18,18 0 0 0 -1.01,-4.55 4.17,4.17 0 0 0 -0.8,-1.4 1.77,1.77 0 0 0 -0.7,-0.38 11.48,11.48 0 0 0 -3.67,-0.47 c -2,0 -3.06,0.42 -5.77,2.37 -0.72,0.51 -5.77,4.39 -7.63,5.72 -9.68,6.88 -20.1,11.25 -33.79,13.09 v 13.83 h -16.11 v 9.71 h 19.75 v 12.37 h 49.73 v -50.3 z M 337.33,283.2 h -13 v 18.36 h 13 z" />
  <path
     style="fill:#ffffff"
     inkscape:connector-curvature="0"
     id="path196"
     d="m 212.06,113.61 h 93 v 76.58 h -93 V 113.6 Z m -63.62,41.57 c -14.09,0 -21.33,7.39 -21.72,22.16 v 89.68 c 0,18.41 -53.64,18.41 -53.64,6.83 0,-11.59 28.92,-16.2 28.92,-41.04 0,-15.69 -20.06,-27.38 -20.06,-65.73 0,-49.2 11.73,-53.13 113.95,-53.44 V 176 c -26.8,-4.8 -29.5,-20.82 -47.45,-20.82 z m 172.79,-41.52 c 92.64,0.46 110.26,5.18 110.26,53.42 0,49.37 -17.82,42.6 -17.82,65.73 0,23.12 25.74,28.07 25.74,41.04 0,12.97 -49.17,10.98 -49.17,-6.83 v -89.68 c -1.33,-14.77 -8.78,-22.16 -22.35,-22.16 -17.37,0 -19.13,16.13 -46.66,20.87 z m -36.66,187.58 v -32.53 l -26.95,-21.6 -26.96,21.6 v 32.53 H 206.1 v -69 h 102.06 v 69 z m -53.9,16.49 v 59.57 h 53.9 v -59.57 h 47.46 V 436.16 H 183.66 V 317.73 h 47 z m 93.8,-50.7 V 244.6 h 50.86 v 91.7 h 32 v 20.36 H 353.5 v -89.65 h -29.05 z m -96.58,-50.97 v -9.7 h 60.52 v 9.7 H 227.9 Z m 40.5,85.45 h -21.55 v -25.04 l 10.78,-8.64 10.78,8.64 v 25.04 z m 0,16.17 v 43.45 H 246.84 V 317.68 H 268.4 Z M 288.41,96.66 H 224.65 V 76.79 h 63.76 z" />
</svg>
