<?xml version="1.0" encoding="UTF-8" standalone="no"?>
<svg
   xmlns:dc="http://purl.org/dc/elements/1.1/"
   xmlns:cc="http://creativecommons.org/ns#"
   xmlns:rdf="http://www.w3.org/1999/02/22-rdf-syntax-ns#"
   xmlns:svg="http://www.w3.org/2000/svg"
   xmlns="http://www.w3.org/2000/svg"
   xmlns:sodipodi="http://sodipodi.sourceforge.net/DTD/sodipodi-0.dtd"
   xmlns:inkscape="http://www.inkscape.org/namespaces/inkscape"
   viewBox="0 0 512.0 512.0"
   version="1.1"
   id="svg247"
   sodipodi:docname="hunting_horn.svg"
   inkscape:version="0.92.4 (5da689c313, 2019-01-14)">
  <metadata
     id="metadata253">
    <rdf:RDF>
      <cc:Work
         rdf:about="">
        <dc:format>image/svg+xml</dc:format>
        <dc:type
           rdf:resource="http://purl.org/dc/dcmitype/StillImage" />
      </cc:Work>
    </rdf:RDF>
  </metadata>
  <defs
     id="defs251" />
  <sodipodi:namedview
     pagecolor="#ffffff"
     bordercolor="#666666"
     borderopacity="1"
     objecttolerance="10"
     gridtolerance="10"
     guidetolerance="10"
     inkscape:pageopacity="0"
     inkscape:pageshadow="2"
     inkscape:window-width="958"
     inkscape:window-height="1128"
     id="namedview249"
     showgrid="false"
     inkscape:zoom="0.4609375"
     inkscape:cx="256"
     inkscape:cy="256"
     inkscape:window-x="1913"
     inkscape:window-y="0"
     inkscape:window-maximized="0"
     inkscape:current-layer="svg247" />
  <path
     style="fill:#000000"
     inkscape:connector-curvature="0"
     id="path237"
     d="m 393.47,345.06 -0.95,0.84 v 64.33 h -72.77 l -23.56,20.82 h -63.7 l -23.07,24.92 h -43.3 v -24.92 h -7.69 l 0.07,0.07 H 70.34 V 358.71 L 58.46,346.67 v -50.51 l 67.47,-66.02 h 214.5 L 339.62,119.24 318.28,97.06 V 56.12 h 40.83 l 12.42,9.83 10.81,-9.83 h 43.2 v 41.29 l -23.1,22.13 v 146.85 l 51.23,15.2 -46.8,63.47 z M 132.53,90.66 h 14.5 c 13.88,0 32.64,7.76 51.5,19.51 7.98,4.98 15.32,10.33 20.83,15.22 3.06,2.71 5.59,5.3 7.53,7.8 3.2,4.1 5.16,8.07 5.16,13.2 0,5.28 -2.05,9.8 -5.43,14.16 -2.33,3 -5.44,6.05 -9.37,9.3 -7.03,5.82 -17.13,12.63 -30.44,20.57 l -1.28,0.76 v 6.37 c 0,10.7 -6.75,18.49 -17.15,23.06 -7.4,3.25 -17.33,5.24 -30.11,6.29 -13.74,2.22 -33.03,-1.52 -39.36,-4.19 -12.44,-5.23 -19.72,-15.42 -19.72,-28.53 0,-13.82 8.7,-23.92 22.85,-29.1 7.97,-2.92 18.08,-4.51 30.5,-4.93 v -69.5 z" />
  <path
     style="fill:#ffffff"
     inkscape:connector-curvature="0"
     id="path239"
     d="m 354.5,172.9 -0.29,-39.6 h 33.74 v 39.6 z m 0.11,14.5 h 33.34 v 74.69 l -17.86,-5.3 v 76.5 h -54.12 v 60.94 l -25.26,22.33 h -48.04 v -28.38 h -76.55 v 28.38 H 147.8 L 72.96,340.72 v -38.46 l 58.89,-57.63 h 208.69 v 30.14 l -83.1,81.02 h -92.05 l -30.04,-29.62 40.54,-42.46 26.87,29.3 H 167.3 l 11.6,14.49 h 56.83 l -59.63,-65 -61.1,63.98 44.44,43.81 h 103.9 l 91.68,-89.4 v -36.25 h 0.01 v -3.9 H 355 Z m -0.54,-73.43 v -0.62 l -21.3,-22.13 v -20.6 h 21.3 l 18.11,14.33 15.77,-14.34 h 23.1 v 20.61 l -23.1,22.13 v 0.62 z m -269.24,260.87 39.84,41.8 H 84.83 Z m 95.79,27.83 h 47.56 v 11.71 l -25.1,27.1 h -22.46 z m 149.84,-6.93 v -47.95 h 47.56 v 47.95 z m 54.12,-119.53 45.17,13.4 -30.2,40.95 H 384.58 Z M 147.03,174.66 v -69.51 c 22.85,0 70.53,32.45 70.53,41.24 0,5.86 -12.73,16.4 -38.18,31.59 9.06,-11.48 13.59,-19.75 13.59,-24.8 0,-5.04 -7.31,-11.24 -21.93,-18.6 v 62.97 c 0,8.08 -11.32,13.05 -33.95,14.9 -28.94,1.96 -43.41,-4.13 -43.41,-18.27 0,-14.14 17.78,-20.65 53.35,-19.52 z" />
</svg>
