<?xml version="1.0" encoding="UTF-8" standalone="no"?>
<svg
   xmlns:dc="http://purl.org/dc/elements/1.1/"
   xmlns:cc="http://creativecommons.org/ns#"
   xmlns:rdf="http://www.w3.org/1999/02/22-rdf-syntax-ns#"
   xmlns:svg="http://www.w3.org/2000/svg"
   xmlns="http://www.w3.org/2000/svg"
   xmlns:sodipodi="http://sodipodi.sourceforge.net/DTD/sodipodi-0.dtd"
   xmlns:inkscape="http://www.inkscape.org/namespaces/inkscape"
   viewBox="0 0 512.0 512.0"
   version="1.1"
   id="svg283"
   sodipodi:docname="insect_glaive.svg"
   inkscape:version="0.92.4 (5da689c313, 2019-01-14)">
  <metadata
     id="metadata289">
    <rdf:RDF>
      <cc:Work
         rdf:about="">
        <dc:format>image/svg+xml</dc:format>
        <dc:type
           rdf:resource="http://purl.org/dc/dcmitype/StillImage" />
      </cc:Work>
    </rdf:RDF>
  </metadata>
  <defs
     id="defs287" />
  <sodipodi:namedview
     pagecolor="#ffffff"
     bordercolor="#666666"
     borderopacity="1"
     objecttolerance="10"
     gridtolerance="10"
     guidetolerance="10"
     inkscape:pageopacity="0"
     inkscape:pageshadow="2"
     inkscape:window-width="958"
     inkscape:window-height="1128"
     id="namedview285"
     showgrid="false"
     inkscape:zoom="0.4609375"
     inkscape:cx="256"
     inkscape:cy="256"
     inkscape:window-x="1913"
     inkscape:window-y="0"
     inkscape:window-maximized="0"
     inkscape:current-layer="svg283" />
  <path
     style="fill:#000000"
     inkscape:connector-curvature="0"
     id="path275"
     d="m 360.09,294.84 c -42.76,47.6 -74.14,82.11 -94.34,103.74 a 18.3,18.3 0 0 1 -5.37,12.57 l -3.52,3.51 a 18.29,18.29 0 0 1 -11.63,5.33 163.5,163.5 0 0 1 -2.64,2.56 c -12.62,11.92 -28.84,21.6 -47.19,27.35 -21.47,6.73 -44.98,7.86 -69.64,2.5 l -2.04,-0.6 C 101.64,443.71 85.94,431.74 76.24,416.98 68.78,405.62 65.47,393.53 65.47,382.76 c 0,-6.55 1.87,-14.26 5.68,-21.39 a 50.4,50.4 0 0 1 16.17,-17.92 31.07,31.07 0 0 1 3.13,-7.79 c 3.63,-6.27 9.52,-10.47 16.74,-11.43 a 23.8,23.8 0 0 1 17.95,4.98 29.13,29.13 0 0 1 3.35,3.05 60.55,60.55 0 0 1 9.13,0.08 31.18,31.18 0 0 1 3.88,-3.47 c 5.43,-4.07 11.93,-5.83 18.61,-4.45 6.94,1.43 12.31,5.9 15.5,12.16 a 30.98,30.98 0 0 1 2.34,6.24 40.82,40.82 0 0 1 9.95,9.38 59.08,59.08 0 0 1 4.74,7.31 c 0.64,0.94 0.81,1 1.02,1.06 1.43,0.45 3.59,0.7 6.44,0.62 h 0.07 a 18.54,18.54 0 0 1 1.51,-1.7 l 3.52,-3.52 a 18.36,18.36 0 0 1 22.79,-2.55 c 36.9,-42.78 67.2,-75.85 91.02,-99.32 a 18.37,18.37 0 0 1 3.44,-21.19 l 3.52,-3.51 a 18.36,18.36 0 0 1 22.66,-2.63 c 19.75,-20.16 31.46,-67.9 32.84,-142.68 l 0.51,-27.81 23.35,15.12 c 42.84,27.75 52.62,73.8 30.5,133.28 -7.4,23.13 -23.5,43.91 -47.9,62.45 a 18.36,18.36 0 0 1 -3.8,20.43 l -3.51,3.52 a 18.36,18.36 0 0 1 -20.53,3.76 z M 98.06,141.98 a 21.49,21.49 0 0 1 5.78,-29.18 l 15.2,-10.64 a 21.49,21.49 0 0 1 22.29,-1.45 v -10.9 a 26.09,26.09 0 0 1 52.17,0 v 10.72 a 21.49,21.49 0 0 1 21.93,1.63 l 15.2,10.64 a 21.49,21.49 0 0 1 5.28,29.93 4.88,4.88 0 0 0 -0.22,0.36 c 12.9,17.19 20.61,39.23 20.61,63.15 0,54.35 -39.83,99.04 -89.85,99.04 -50.02,0 -89.86,-44.7 -89.86,-99.04 0,-24.44 8.06,-46.92 21.47,-64.26 z" />
  <path
     style="fill:#ffffff"
     inkscape:connector-curvature="0"
     id="path277"
     d="m 258.68,383.49 -19.44,-19.45 c 36.6,-42.43 66.6,-75.21 90.03,-98.35 l 19.08,19.08 c -39.72,44.22 -69.6,77.12 -89.67,98.72 z m -29.02,29.93 c -20.18,17.85 -55.25,33.74 -100.62,23.87 -42.2,-15.46 -48.11,-43.16 -48.11,-54.53 0,-6.32 3.46,-21.4 20.44,-29.63 0.66,-8.44 3.28,-12.96 7.86,-13.57 4.58,-0.61 8.58,2.5 12,9.3 8.17,-1.62 13.25,-1.8 23.34,0 4.13,-7.06 8.26,-10.16 12.42,-9.3 4.15,0.85 6.46,5.38 6.91,13.57 11.7,3.64 15.24,15.12 17.54,17.61 3.28,3.56 8.39,5.51 15.33,5.87 a 18.27,18.27 0 0 0 4.91,8.83 z M 125.4,407.7 a 12.08,12.08 0 1 0 0,-24.15 12.08,12.08 0 0 0 0,24.15 z m 65.7,9.66 a 9.18,9.18 0 1 0 0,-18.35 9.18,9.18 0 0 0 0,18.35 z m -33.82,5.8 a 9.18,9.18 0 1 0 0,-18.36 9.18,9.18 0 0 0 0,18.36 z M 359.9,237.36 c 23.25,-24.02 35.6,-75.01 37.04,-152.98 36.16,23.43 44.25,61.85 24.28,115.26 -6.35,20.19 -20.8,38.76 -43.32,55.72 z m -29.24,3.76 3.52,-3.52 a 6.76,6.76 0 0 1 9.56,0 l 32.2,32.2 a 6.76,6.76 0 0 1 0,9.57 l -3.51,3.52 a 6.76,6.76 0 0 1 -9.56,0 l -32.2,-32.2 a 6.76,6.76 0 0 1 0,-9.57 z m -120.78,126.56 3.52,-3.52 a 6.76,6.76 0 0 1 9.56,0 l 29.22,29.22 a 6.76,6.76 0 0 1 0,9.57 l -3.52,3.52 a 6.76,6.76 0 0 1 -9.56,0 l -29.22,-29.22 a 6.76,6.76 0 0 1 0,-9.57 z m -110.3,-200.46 63,49.66 v 73.8 c -39.82,-2.26 -71.5,-39.2 -71.5,-84.44 a 92.53,92.53 0 0 1 8.5,-39.02 z m 14.24,-1.08 H 219.1 l -51.73,42.2 -53.54,-42.2 z m 119.43,0.93 a 92.51,92.51 0 0 1 8.56,39.17 c 0,44.5 -30.65,80.98 -69.56,84.3 v -73.71 z m -86.07,-42.58 c 2.86,-0.85 5.8,-1.51 8.78,-1.98 a 11.68,11.68 0 0 1 -0.14,-1.78 V 89.82 a 11.6,11.6 0 0 1 23.19,0 v 30.91 c 0,0.72 -0.07,1.42 -0.19,2.1 a 68.04,68.04 0 0 1 8.65,2.2 16.43,16.43 0 0 0 6.17,8.25 l 15.2,10.64 c 3.4,2.38 7.38,3.3 11.2,2.9 a 83.28,83.28 0 0 1 7.34,9.66 H 105.52 c 2.28,-3.5 4.8,-6.8 7.51,-9.88 a 16.45,16.45 0 0 0 12.6,-2.68 l 15.2,-10.64 a 16.43,16.43 0 0 0 6.35,-8.8 z m 50.32,-8.65 a 6.84,6.84 0 0 1 9.53,-1.68 l 15.2,10.64 a 6.84,6.84 0 0 1 -7.84,11.2 l -15.2,-10.64 a 6.84,6.84 0 0 1 -1.69,-9.52 z m -60.53,0 a 6.84,6.84 0 0 1 -1.68,9.52 l -15.2,10.65 a 6.84,6.84 0 1 1 -7.84,-11.2 l 15.2,-10.65 a 6.84,6.84 0 0 1 9.52,1.68 z" />
</svg>
