<?xml version="1.0" encoding="UTF-8" standalone="no"?>
<svg
   xmlns:dc="http://purl.org/dc/elements/1.1/"
   xmlns:cc="http://creativecommons.org/ns#"
   xmlns:rdf="http://www.w3.org/1999/02/22-rdf-syntax-ns#"
   xmlns:svg="http://www.w3.org/2000/svg"
   xmlns="http://www.w3.org/2000/svg"
   xmlns:sodipodi="http://sodipodi.sourceforge.net/DTD/sodipodi-0.dtd"
   xmlns:inkscape="http://www.inkscape.org/namespaces/inkscape"
   viewBox="0 0 512.0 512.0"
   version="1.1"
   id="svg318"
   sodipodi:docname="lance.svg"
   inkscape:version="0.92.4 (5da689c313, 2019-01-14)">
  <metadata
     id="metadata324">
    <rdf:RDF>
      <cc:Work
         rdf:about="">
        <dc:format>image/svg+xml</dc:format>
        <dc:type
           rdf:resource="http://purl.org/dc/dcmitype/StillImage" />
      </cc:Work>
    </rdf:RDF>
  </metadata>
  <defs
     id="defs322" />
  <sodipodi:namedview
     pagecolor="#ffffff"
     bordercolor="#666666"
     borderopacity="1"
     objecttolerance="10"
     gridtolerance="10"
     guidetolerance="10"
     inkscape:pageopacity="0"
     inkscape:pageshadow="2"
     inkscape:window-width="958"
     inkscape:window-height="1128"
     id="namedview320"
     showgrid="false"
     inkscape:zoom="0.4609375"
     inkscape:cx="256"
     inkscape:cy="256"
     inkscape:window-x="1913"
     inkscape:window-y="0"
     inkscape:window-maximized="0"
     inkscape:current-layer="svg318" />
  <path
     style="fill:#000000"
     inkscape:connector-curvature="0"
     id="path310"
     d="m 250.8,347.97 -1.63,-1.71 A 14.73,14.73 0 0 1 245.1,336.09 V 235.45 l -18.47,-18.63 a 14.73,14.73 0 0 1 -4.27,-10.37 v -36.88 c 0,-5.2 2.75,-10.02 7.23,-12.68 l 65.4,-38.71 a 14.77,14.77 0 0 1 7.51,-2.06 h 77.41 c 2.79,0 5.52,0.79 7.88,2.27 l 61.34,38.72 c 4.28,2.7 6.87,7.4 6.87,12.46 v 36.88 c 0,3.75 -1.43,7.36 -4,10.1 l -17.6,18.67 V 336.1 c 0,3.35 -1.14,6.59 -3.23,9.2 l -47.77,59.72 a 14.76,14.76 0 0 1 -11.52,5.54 H 316.8 c -4.04,0 -7.9,-1.65 -10.68,-4.57 L 260.73,358.4 c 3.6,8.93 -2.51,20.25 -13.75,20.25 h -60.84 v 60.7 c 0,8.13 -6.6,14.73 -14.75,14.73 h -31.62 c -8.15,0 -14.76,-6.6 -14.76,-14.74 v -60.7 H 70.78 c -13.61,0 -19.96,-16.84 -9.72,-25.8 35.02,-30.68 62.54,-125.32 79.73,-281.7 1.93,-17.61 27.62,-17.46 29.34,0.18 14.59,149.59 42.37,242.23 80.67,276.66 z" />
  <path
     style="fill:#ffffff"
     inkscape:connector-curvature="0"
     id="path312"
     d="m 375.15,194.6 -16.45,17.42 10.65,10.1 15.89,-16.82 15.9,16.83 10.63,-10.1 -16.44,-17.42 16.44,-17.41 -10.64,-10.1 -15.9,16.82 -15.88,-16.83 -10.65,10.1 16.45,17.42 z m -41.02,201.48 h -17.7 l -18.66,-19.51 v -243.3 l 4.3,-2.54 h 32.06 z m 11.8,0 V 130.73 h 33.78 l 61.55,38.77 v 36.94 l -21.68,22.97 v 106.86 l -47.93,59.81 z M 285.98,363.65 259.5,335.85 V 229.37 l -22.66,-22.88 v -36.8 l 49.14,-29.13 v 223.1 z m -39.32,0.98 H 70.74 c 11.3,-10 21.68,-25.4 31.18,-46.19 h 108.93 c 10.68,20.8 22.62,36.2 35.81,46.2 z m -40.3,-56.02 H 106.13 c 21.13,-50.77 37.55,-129.39 49.27,-235.87 10.4,106.48 27.39,185.1 50.98,235.87 z M 171,439.33 H 139.55 V 373.48 H 171 Z" />
</svg>
