<?xml version="1.0" encoding="UTF-8" standalone="no"?>
<svg
   xmlns:dc="http://purl.org/dc/elements/1.1/"
   xmlns:cc="http://creativecommons.org/ns#"
   xmlns:rdf="http://www.w3.org/1999/02/22-rdf-syntax-ns#"
   xmlns:svg="http://www.w3.org/2000/svg"
   xmlns="http://www.w3.org/2000/svg"
   xmlns:sodipodi="http://sodipodi.sourceforge.net/DTD/sodipodi-0.dtd"
   xmlns:inkscape="http://www.inkscape.org/namespaces/inkscape"
   viewBox="0 0 512.0 512.0"
   version="1.1"
   id="svg353"
   sodipodi:docname="light_bowgun.svg"
   inkscape:version="0.92.4 (5da689c313, 2019-01-14)">
  <metadata
     id="metadata359">
    <rdf:RDF>
      <cc:Work
         rdf:about="">
        <dc:format>image/svg+xml</dc:format>
        <dc:type
           rdf:resource="http://purl.org/dc/dcmitype/StillImage" />
      </cc:Work>
    </rdf:RDF>
  </metadata>
  <defs
     id="defs357" />
  <sodipodi:namedview
     pagecolor="#ffffff"
     bordercolor="#666666"
     borderopacity="1"
     objecttolerance="10"
     gridtolerance="10"
     guidetolerance="10"
     inkscape:pageopacity="0"
     inkscape:pageshadow="2"
     inkscape:window-width="958"
     inkscape:window-height="1128"
     id="namedview355"
     showgrid="false"
     inkscape:zoom="0.4609375"
     inkscape:cx="256"
     inkscape:cy="256"
     inkscape:window-x="1913"
     inkscape:window-y="0"
     inkscape:window-maximized="0"
     inkscape:current-layer="svg353" />
  <path
     style="fill:#000000"
     inkscape:connector-curvature="0"
     id="path345"
     d="m 292.31,321.93 a 56.68,56.68 0 0 1 11.84,-0.45 v -10.42 h 52.83 v 75.68 h -53.56 v 42.61 c 0,15.73 -10.93,25.98 -26.64,25.98 H 233.5 c -15.75,0 -26.54,-8.99 -26.54,-25.98 V 386.2 c 0,-8.93 4.85,-16 12.43,-21.03 a 50.59,50.59 0 0 1 8.65,-4.5 V 334.2 a 52.05,52.05 0 0 1 -5.9,-6.47 c -7.3,-9.44 -11.73,-22.51 -15.84,-39.32 -7.52,-30.8 -9.52,-67.58 -8.42,-126.58 l -2.2,2.18 -13.6,12.52 v 87.73 c 0,17.03 -9.67,31.16 -25.5,38.95 -9.84,4.83 -21.85,7.18 -35.45,7.18 -13.95,0 -26.88,-3.3 -37.23,-9.68 -13.95,-8.6 -22.37,-22.31 -22.37,-37.88 0,-18.43 7.88,-34.75 22.45,-46.8 a 29.34,29.34 0 0 1 39.43,1.82 v -53.84 c 0,-7.99 3.26,-15.64 9.03,-21.17 l 45.2,-43.32 a 29.33,29.33 0 0 1 20.3,-8.16 h 33.6 V 56 h 48.25 v 35.37 h 39.17 c 7.41,0 14.55,2.8 19.97,7.84 l 46.62,43.33 a 29.33,29.33 0 0 1 9.37,21.48 v 50.11 a 29.34,29.34 0 0 1 38.08,5.02 c 10.9,12.28 16.7,25.47 16.7,39.42 0,28.02 -27.1,51.83 -58,51.83 -14.05,0 -26.08,-3.07 -35.72,-9.48 -12.53,-8.33 -19.73,-21.68 -19.73,-36.65 v -87.46 l -19.4,-18.03 c 0.09,56.76 -3.62,99.91 -11.3,129.83 -3.48,13.5 -7.82,24.6 -13.24,33.32 z" />
  <path
     style="fill:#ffffff"
     inkscape:connector-curvature="0"
     id="path347"
     d="m 166.07,264.27 v -94.56 l 37.22,-35.68 h 110.44 l 38.52,35.8 v 94.44 c 0,9.6 4.5,17.95 12.6,23.33 6.77,4.51 15.75,6.8 26.85,6.8 22.49,0 42,-17.15 42,-35.83 0,-9.71 -4.2,-19.26 -12.67,-28.8 a 13.330876,13.330876 0 0 0 -19.93,17.71 c 2.09,2.36 3.6,4.5 4.55,6.67 l 2.36,5.36 -4.38,3.86 a 17.87,17.87 0 0 1 -11.93,4.36 41.2,41.2 0 0 1 -5.95,-0.4 l -6.83,-1 v -102.3 c 0,-3.71 -1.54,-7.25 -4.26,-9.77 l -46.62,-43.33 a 13.33,13.33 0 0 0 -9.08,-3.56 H 197.93 c -3.44,0 -6.74,1.33 -9.22,3.7 l -45.2,43.33 c -2.62,2.51 -4.1,6 -4.1,9.62 V 265 l -6.11,1.49 a 53.04,53.04 0 0 1 -12.17,1.25 36.3,36.3 0 0 1 -10.34,-1.37 l -9.24,-2.8 L 106,255 a 19.77,19.77 0 0 1 5.17,-6.1 13.331275,13.331275 0 0 0 -17,-20.54 c -10.94,9.05 -16.65,20.88 -16.65,34.48 0,9.74 5.35,18.44 14.77,24.26 7.69,4.74 17.72,7.3 28.83,7.3 11.31,0 20.95,-1.88 28.38,-5.54 10.59,-5.2 16.56,-13.95 16.56,-24.59 z m 77.97,62.66 h 21.23 V 280 h -21.34 v 46.13 C 220.62,312.85 210.7,254.57 212.75,151.3 h 88.07 c 0.77,104.84 -11.06,163.3 -35.49,175.4 v 38.76 c 0,13.34 7.37,20.01 22.09,20.01 v 43.75 c 0,6.74 -3.55,10.11 -10.64,10.11 H 233.5 c -6.78,0 -10.54,-1.97 -10.54,-10.11 v -43.75 c 0,-5.67 7.03,-10.4 21.08,-14.17 z m 2.37,-256 h 18.5 V 91.2 h -18.5 z m 56.81,266.52 v 11.45 h 16.93 v -21.84 h 20.83 v 43.68 h -46.64 c -8.47,0 -12.71,-4.17 -12.71,-18.31 0,-10.82 7.2,-15.81 21.6,-14.98 z" />
</svg>
