<?xml version="1.0" encoding="UTF-8" standalone="no"?>
<svg
   xmlns:dc="http://purl.org/dc/elements/1.1/"
   xmlns:cc="http://creativecommons.org/ns#"
   xmlns:rdf="http://www.w3.org/1999/02/22-rdf-syntax-ns#"
   xmlns:svg="http://www.w3.org/2000/svg"
   xmlns="http://www.w3.org/2000/svg"
   xmlns:sodipodi="http://sodipodi.sourceforge.net/DTD/sodipodi-0.dtd"
   xmlns:inkscape="http://www.inkscape.org/namespaces/inkscape"
   viewBox="0 0 512.0 512.0"
   version="1.1"
   id="svg16"
   sodipodi:docname="longs_word.svg"
   inkscape:version="0.92.4 (5da689c313, 2019-01-14)">
  <metadata
     id="metadata22">
    <rdf:RDF>
      <cc:Work
         rdf:about="">
        <dc:format>image/svg+xml</dc:format>
        <dc:type
           rdf:resource="http://purl.org/dc/dcmitype/StillImage" />
      </cc:Work>
    </rdf:RDF>
  </metadata>
  <defs
     id="defs20" />
  <sodipodi:namedview
     pagecolor="#ffffff"
     bordercolor="#666666"
     borderopacity="1"
     objecttolerance="10"
     gridtolerance="10"
     guidetolerance="10"
     inkscape:pageopacity="0"
     inkscape:pageshadow="2"
     inkscape:window-width="958"
     inkscape:window-height="1128"
     id="namedview18"
     showgrid="false"
     inkscape:zoom="0.4609375"
     inkscape:cx="256"
     inkscape:cy="256"
     inkscape:window-x="1913"
     inkscape:window-y="0"
     inkscape:window-maximized="0"
     inkscape:current-layer="svg16" />
  <path
     style="fill:#000000"
     inkscape:connector-curvature="0"
     id="path2"
     d="m 247.04,168.98 -8.88,14.59 a 14.08,14.08 0 0 1 -12.03,6.75 h -22.19 c -44.3,1.12 -74.75,0.43 -91.97,-2.17 -0.6,-0.1 -1.2,-0.23 -1.8,-0.4 -16.02,-4.62 -21.86,-19.16 -14.76,-32.4 3.6,-6.73 10.22,-12.47 17.5,-15.26 a 69.84,69.84 0 0 1 -5.68,-3.7 c -7.69,-5.56 -12.29,-12.32 -11.62,-20.85 0.66,-8.4 6.01,-14.05 13.61,-17.82 5.75,-2.86 11.86,-3.44 19.07,-2.33 a 61.14,61.14 0 0 1 2.29,0.4 c -2.9,-4.64 -4.42,-9.47 -3.65,-14.9 1,-7.19 5.72,-12.43 12.35,-15.39 6.75,-3.01 13.43,-1.98 20.63,1.12 a 61.7,61.7 0 0 1 11.89,6.91 c 7.82,5.8 20.26,16.93 37.65,33.64 h 16.68 c 3.7,0 7.24,1.46 9.88,4.05 l 6.25,6.15 c 34.85,-6.49 73.95,-6.38 117.27,0.24 a 14,14 0 0 1 6.21,2.56 l 18.92,-26.73 a 18.78,18.78 0 0 1 25.72,-4.8 l 36.51,24.27 a 18.78,18.78 0 0 1 5.25,26.04 l -51.31,72.67 9.4,6.67 a 18.78,18.78 0 0 1 4.46,26.18 l -12.1,15.77 a 18.78,18.78 0 0 1 -25.29,4.2 l -9.35,-6.21 c -70.2,90.4 -130.45,145.32 -179.64,172.45 -55.16,30.44 -96.43,21.5 -129.14,-22.03 -6.83,-9.1 1.35,-22.03 12.67,-21.47 31.86,1.56 51.56,-1.5 72.5,-12.1 22.71,-11.5 48.19,-32.81 86.94,-72.65 15.58,-16 40.15,-44.38 73.58,-84.98 l -12.99,-9.66 a 18.78,18.78 0 0 1 -3.85,-26.28 l 11.93,-15.68 a 18.78,18.78 0 0 1 24.78,-4.63 l 8.34,5.13 7.1,-10.02 c -36.86,0.44 -67.91,4.7 -93.13,12.67 z" />
  <path
     style="fill:#ffffff"
     inkscape:connector-curvature="0"
     id="path4"
     d="m 349.71,142.2 c -44.91,-0.25 -82.25,4.76 -112,15.03 l -11.58,19.01 h -22.37 c -43.6,1.1 -73.5,0.43 -89.68,-2.02 -16.12,-4.65 -2.95,-20.69 7.1,-21.8 5.93,-0.7 31.86,2.47 77.8,9.5 1.42,-3.59 1.42,-5.6 0,-6.04 -39.86,-12.56 -68.81,-20.27 -83.5,-30.9 -8.54,-6.18 -7,-11.17 0,-14.65 5.7,-2.83 13.05,-1.21 29.03,4 10.28,3.35 27.2,11.76 52.4,20.85 1.3,0.47 1.65,-1.65 1.01,-6.37 -32.05,-19.6 -50.42,-32.94 -55.1,-40.03 -2.85,-4.3 -3.07,-8.06 2.2,-10.42 4.82,-2.15 13.92,3.18 18.4,6.49 7.78,5.76 21.22,17.9 40.34,36.4 h 22.37 l 11.57,11.4 c 34.94,-7.6 74.84,-7.97 119.7,-1.11 z M 71.15,401.25 c 62.32,3.06 93.08,-9.68 170.23,-89 17.35,-17.83 45.27,-50.26 83.74,-97.28 l -24.84,-18.48 a 4.7,4.7 0 0 1 -0.93,-6.61 l 11.81,-15.52 a 4.7,4.7 0 0 1 6.2,-1.16 l 19.58,12.05 59.22,-83.67 a 4.7,4.7 0 0 1 6.43,-1.2 l 36.5,24.26 a 4.72,4.72 0 0 1 1.24,6.62 l -59.12,83.71 20.88,14.8 a 4.73,4.73 0 0 1 1,6.7 l -11.67,15.2 a 4.7,4.7 0 0 1 -6.32,1.04 L 364.8,239.23 C 219.56,429.06 123,473.47 71.16,401.25 Z" />
  <path
     style="fill:#000000"
     inkscape:connector-curvature="0"
     id="path8"
     d="m 193.97,108.23 h 10 v 72.92 h -10 z m 42.24,15.5 h 10 v 41.92 h -10 z m 68.59,94.61 8.07,-12.65 61.94,39.53 -8.07,12.64 z m 25.79,-36.31 8.26,-12.52 62.28,41.13 -8.26,12.52 z" />
  <path
     style="fill:#000000"
     inkscape:connector-curvature="0"
     id="path12"
     d="m 344.07,154.03 10.45,-17.06 67.87,41.58 -10.45,17.05 z m 56.96,-28.1 17.2,-25.78 15.63,10.42 -16.8,25.18 24.2,14.83 -9.8,16.01 -66.83,-40.93 9.81,-16.02 26.6,16.3 z" />
</svg>
