<?xml version="1.0" encoding="UTF-8" standalone="no"?>
<svg
   xmlns:dc="http://purl.org/dc/elements/1.1/"
   xmlns:cc="http://creativecommons.org/ns#"
   xmlns:rdf="http://www.w3.org/1999/02/22-rdf-syntax-ns#"
   xmlns:svg="http://www.w3.org/2000/svg"
   xmlns="http://www.w3.org/2000/svg"
   xmlns:sodipodi="http://sodipodi.sourceforge.net/DTD/sodipodi-0.dtd"
   xmlns:inkscape="http://www.inkscape.org/namespaces/inkscape"
   viewBox="0 0 512.0 512.0"
   version="1.1"
   id="svg396"
   sodipodi:docname="switch_axe.svg"
   inkscape:version="0.92.4 (5da689c313, 2019-01-14)">
  <metadata
     id="metadata402">
    <rdf:RDF>
      <cc:Work
         rdf:about="">
        <dc:format>image/svg+xml</dc:format>
        <dc:type
           rdf:resource="http://purl.org/dc/dcmitype/StillImage" />
      </cc:Work>
    </rdf:RDF>
  </metadata>
  <defs
     id="defs400" />
  <sodipodi:namedview
     pagecolor="#ffffff"
     bordercolor="#666666"
     borderopacity="1"
     objecttolerance="10"
     gridtolerance="10"
     guidetolerance="10"
     inkscape:pageopacity="0"
     inkscape:pageshadow="2"
     inkscape:window-width="958"
     inkscape:window-height="1128"
     id="namedview398"
     showgrid="false"
     inkscape:zoom="1.84375"
     inkscape:cx="281.46914"
     inkscape:cy="205.34535"
     inkscape:window-x="1913"
     inkscape:window-y="0"
     inkscape:window-maximized="0"
     inkscape:current-layer="svg396" />
  <path
     style="fill:#000000"
     inkscape:connector-curvature="0"
     id="path384"
     d="m 166.86,99.83 v -20.6 h 158.8 v 28.54 h 14.56 V 56.45 H 445.3 V 214.43 L 340.22,310.4 v -54.9 h -14.56 v 84.01 H 285.5 v 39.53 h 14.54 v 76.1 h -80.6 V 416.17 H 198.86 V 339.5 h -9.99 v 29.77 l -14.78,0.8 C 143.85,371.7 117.42,365.5 97.63,353.14 78.7,341.33 66.86,324.25 66.86,307.13 V 99.83 h 99.99 z m 158.51,50.96 v 63.54 h 14.77 V 150.8 H 325.38 Z M 188.75,288.1 h 15.68 v -32.6 h -21.79 v 11.91 h -32.26 c 2.04,37.39 11.74,56.45 26.73,60.26 l 11.64,2.96 z" />
  <path
     style="fill:#ffffff"
     inkscape:connector-curvature="0"
     id="path386"
     d="m 310.03,253.56 h -89.99 v -13.7 h -37.83 v -39.77 h -33.56 v -32.02 h 33.56 l 0.27,-73.22 h 127.55 v 158.7 z m 0,0 h -89.99 v -13.7 h -37.83 v -39.77 h -33.56 v -32.02 h 33.56 l 0.27,-73.22 h 127.55 v 158.7 z m -42.99,-18.4 a 22.92,22.92 0 1 0 0,-45.83 22.92,22.92 0 0 0 0,45.84 z m 0,-71.87 a 22.92,22.92 0 1 0 0,-45.83 22.92,22.92 0 0 0 0,45.83 z m 88.8,-91.22 h 73.84 v 135.47 l -73.84,67.43 z m -105.47,328.14 -0.48,-60.36 h 20 v 60.42 h 14.53 v 39.24 h -49.34 v -39.18 l 15.3,-0.12 z m -35.88,0.06 v -60.42 h 19.77 l 0.49,60.42 z m -10.12,-76.39 v -20.17 h 15.67 v -34.53 h 90 v 54.7 H 204.36 Z M 133.03,152.45 v 63.26 h 33.56 l 0.42,36.07 h -34.09 c 0,54.1 14.4,84.44 40.34,91.03 v 11.66 C 114.69,357.63 82.5,328.21 82.5,307.13 V 115.46 H 167 v 36.99 z" />
  <path
     style="fill:#000000"
     inkscape:connector-curvature="0"
     id="path388"
     d="m 267.04,163.3 a 22.92,22.92 0 1 1 0,-45.84 22.92,22.92 0 0 1 0,45.83 z m 0.52,-10.42 a 11.98,11.98 0 1 0 0,-23.96 11.98,11.98 0 0 0 0,23.96 z m -0.52,82.29 a 22.92,22.92 0 1 1 0,-45.84 22.92,22.92 0 0 1 0,45.84 z m 0.52,-10.42 a 11.98,11.98 0 1 0 0,-23.96 11.98,11.98 0 0 0 0,23.96 z m -11.94,43.75 a 13.73,13.73 0 0 0 -0.04,1.04 c 0,7.48 3.98,11.46 11.46,11.46 7.48,0 11.46,-3.98 11.46,-11.46 0,-0.35 -0.01,-0.7 -0.04,-1.04 h 11.48 a 22.92,22.92 0 1 1 -45.79,0 z" />
</svg>
