<?xml version="1.0" encoding="UTF-8" standalone="no"?>
<svg
   xmlns:dc="http://purl.org/dc/elements/1.1/"
   xmlns:cc="http://creativecommons.org/ns#"
   xmlns:rdf="http://www.w3.org/1999/02/22-rdf-syntax-ns#"
   xmlns:svg="http://www.w3.org/2000/svg"
   xmlns="http://www.w3.org/2000/svg"
   xmlns:sodipodi="http://sodipodi.sourceforge.net/DTD/sodipodi-0.dtd"
   xmlns:inkscape="http://www.inkscape.org/namespaces/inkscape"
   viewBox="0 0 512.0 512.0"
   version="1.1"
   id="svg437"
   sodipodi:docname="sword_and_shield.svg"
   inkscape:version="0.92.4 (5da689c313, 2019-01-14)">
  <metadata
     id="metadata443">
    <rdf:RDF>
      <cc:Work
         rdf:about="">
        <dc:format>image/svg+xml</dc:format>
        <dc:type
           rdf:resource="http://purl.org/dc/dcmitype/StillImage" />
      </cc:Work>
    </rdf:RDF>
  </metadata>
  <defs
     id="defs441" />
  <sodipodi:namedview
     pagecolor="#ffffff"
     bordercolor="#666666"
     borderopacity="1"
     objecttolerance="10"
     gridtolerance="10"
     guidetolerance="10"
     inkscape:pageopacity="0"
     inkscape:pageshadow="2"
     inkscape:window-width="958"
     inkscape:window-height="1128"
     id="namedview439"
     showgrid="false"
     inkscape:zoom="0.4609375"
     inkscape:cx="256"
     inkscape:cy="256"
     inkscape:window-x="1913"
     inkscape:window-y="0"
     inkscape:window-maximized="0"
     inkscape:current-layer="svg437" />
  <path
     style="fill:#000000"
     inkscape:connector-curvature="0"
     id="path427"
     d="M 56.95,360.71 V 335.23 A 18.85,18.85 0 0 1 75.8,316.38 h 135.7 a 18.85,18.85 0 0 1 18.85,18.85 v 25.48 a 18.85,18.85 0 0 1 -18.84,18.85 H 75.8 A 18.85,18.85 0 0 1 56.95,360.71 Z m 57.37,3.77 h 72.66 v 80.77 h -72.66 z m 0.4,-36.96 V 110.04 c 0,-16.4 7.7,-29.12 20.96,-36.54 9.75,-5.46 21.76,-7.76 35.2,-7.76 h 15.7 v 261.78 h -71.87 z m 238.66,63.13 c -56.67,0 -102.62,-45.94 -102.62,-102.61 0,-56.68 45.95,-102.62 102.62,-102.62 56.68,0 102.62,45.94 102.62,102.62 0,56.67 -45.94,102.61 -102.62,102.61 z" />
  <path
     style="fill:#ffffff"
     inkscape:connector-curvature="0"
     id="path429"
     d="m 171.27,397.98 h -41.24 v -17.8 h 41.24 z m 0,15.71 v 15.86 h -41.24 v -15.86 z m 2.53,-81.6 v 31.76 h -98 a 3.14,3.14 0 0 1 -3.14,-3.14 v -25.48 c 0,-1.74 1.4,-3.15 3.14,-3.15 h 98 z m 10.47,0 h 27.24 c 1.73,0 3.14,1.4 3.14,3.14 v 25.48 c 0,1.74 -1.4,3.14 -3.14,3.14 H 184.27 V 332.08 Z M 130.42,311.81 V 110.04 c 0,-22.77 21,-28.6 40.46,-28.6 v 230.37 z m 309.12,-12.26 a 86.96,86.96 0 0 1 -75.69,74.77 v -20.31 h -20.94 v 20.31 a 86.96,86.96 0 0 1 -75.68,-74.77 h 20.18 v -20.94 h -20.43 a 86.95,86.95 0 0 1 75.93,-76.86 v 20.32 h 20.94 v -20.32 a 86.95,86.95 0 0 1 75.94,76.86 h -20.44 v 20.94 z M 328.25,241.96 a 20.94,20.94 0 0 0 -20.94,20.95 v 50.26 a 20.94,20.94 0 0 0 20.94,20.94 h 50.26 a 20.94,20.94 0 0 0 20.95,-20.94 V 262.9 a 20.94,20.94 0 0 0 -20.95,-20.95 h -50.26 z m 0,10.47 h 50.26 c 5.79,0 10.47,4.7 10.47,10.48 v 50.26 c 0,5.78 -4.68,10.47 -10.47,10.47 H 328.25 A 10.47,10.47 0 0 1 317.78,313.17 V 262.9 c 0,-5.79 4.69,-10.48 10.47,-10.48 z" />
</svg>
