<?xml version="1.0" encoding="UTF-8" standalone="no"?>
<svg xmlns="http://www.w3.org/2000/svg" xmlns:xlink="http://www.w3.org/1999/xlink" viewBox="0 0 512.0 512.0">
  <g>
    <path d="M122 240C54.62 240 0 186.27 0 120 0 53.73 54.62 0 122 0s122 53.73 122 120c0 66.27-54.62 120-122 120z" fill="#000000"/>
    <path d="M122 216a94 94 0 1 0 0-188 94 94 0 0 0 0 188z" fill="#C875BF"/>
    <path d="M84,122a38,38 0 0,1 76,0a38,38 0 0,1 -76,0z" fill="#7F3598"/>
    <path d="M270 400c-67.38 0-122-53.73-122-120 0-66.27 54.62-120 122-120s122 53.73 122 120c0 66.27-54.62 120-122 120z" fill="#000000"/>
    <path d="M270 376a94 94 0 1 0 0-188 94 94 0 0 0 0 188z" fill="#AE6AC9"/>
    <path d="M232,278a38,38 0 0,1 76,0a38,38 0 0,1 -76,0z" fill="#7F3598"/>
  </g>
</svg>
