<?xml version="1.0" encoding="UTF-8" standalone="no"?>
<svg xmlns="http://www.w3.org/2000/svg" xmlns:xlink="http://www.w3.org/1999/xlink" viewBox="0 0 512.0 512.0">
  <g>
    <path d="M122.26 91.4H389.6c3.15 0.21 5.77 0.9 7.86 2.07a12.31 12.31 0 0 1 4.9 5.08l57.5 92.14a11.7 11.7 0 0 1 2.45 7.31c0 2.75-0.82 5.5-2.44 8.27l-73.9 82.94 68.45 114.44c1.17 5.94 0.8 10.41-1.09 13.4-1.9 2.99-5.72 5.1-11.45 6.33H71.36c-5.1 0-8.7-2.1-10.82-6.33-2.11-4.23-2.11-9.32 0-15.29l67.02-110.65-74.71-83.73c-2.14-2.87-3.21-5.81-3.21-8.83 0-3.02 1.07-6.04 3.2-9.06l56.9-90.94a10.6 10.6 0 0 1 4.62-5.08 17.52 17.52 0 0 1 7.9-2.07z" fill="#9E9E9E"/>
  </g>
</svg>
