<?xml version="1.0" encoding="UTF-8" standalone="no"?>
<svg xmlns="http://www.w3.org/2000/svg" xmlns:xlink="http://www.w3.org/1999/xlink" viewBox="0 0 512.0 512.0">
  <g>
    <path d="M169.45 455.8H113v-34.4l12.42-11.54v-128.1l40.48-68.4 20.88 35.28 20.88-35.29 40.74 68.83v128.06l12 11.17v34.4h-90.95z" fill="#000000"/>
    <path d="M234.47 316.79h-95.13v-17.63h95.13v17.63zm0 13v79.76h-95.13v-79.77h95.13z" fill="#D0AF91"/>
    <path d="M234.47 286.16h-95.13v-0.6l26.56-44.87 20.88 35.28 20.88-35.28 26.81 45.3z" fill="#AB7451"/>
    <path d="M155.53 420.48h-17.1l-11.51 10.71v10.7h28.61zM217.87 420.48v21.41h28.61v-10.7l-11.51-10.71zM201.01 420.48h-28.42l-.19 21.41h28.61z" fill="#AB7252"/>
    <path d="M296.5 56.84l-17.07 107.81-62.74-39.16 40.32 53.68-108.19 16.97 108.19 15.47-13.39 36.58 35.81-14.39 17.07 128.51 17.34-128.51 65.94 42.66-46.73-64.85 105.3-15.47-105.3-16.97L354.97 141l-41.13 23.65z" fill="#BFB17C"/>
  </g>
</svg>
