<?xml version="1.0" encoding="UTF-8" standalone="no"?>
<svg xmlns="http://www.w3.org/2000/svg" xmlns:xlink="http://www.w3.org/1999/xlink" viewBox="0 0 512.0 512.0">
  <g>
    <path d="M109.12 249.35l76.26-49.44-30.06-95.68 75.17 58.03 66.35-103.55v94.17l158.71-88.13-97.35 142.37 83.21 38.85-91.98 26.81 63.95 63.21h-84.9v80.66l-73.91-93.4-60.43-56.47z" fill="#000000"/>
    <path d="M200.06 255.32l63.67 59.49 52.33 66.13v-57.37h67.09l-57.47-56.8 80.6-23.5-66.59-31.08 75.94-111.07-131.21 72.86v-72.86l-50.78 79.25-54.63-42.16 21.05 66.99-58.74 38.07z" fill="#E49A64"/>
    <path d="M241.4 272.24l4.18-20.37 11.79 18.52 19.5-2.27-12.15 13.8 5.42 8.53 51.06-8.4-108.8 131.78 19.34-94.4-61.98 70.46 17.04 18.6-36.58 36.06-24.64-20.51-30.45 29.24-39.03-37.92 27.56-29.44-24.95-22.2 40.17-41.09 18.01 15.52 111.36-111.91-1.52 47.7 14.68-1.7z" fill="#000000"/>
    <path d="M94.22 394.72l21.46 19.78-20.5 19.65-19.8-19.24 19.75-21.1-0.91 0.91zm33.13-47.57l86.03-86.46-0.91 28.77 30.4-3.54-82.7 94.04-32.82-32.81z" fill="#8A8A89"/>
    <path d="M78.63 363.03l21.06-21.54 69.84 65.59-21 20.75zM251.32 287.95l-15.27 74.5 50.26-60.87-23.82 3.92z" fill="#B1B1B1"/>
  </g>
</svg>
