<?xml version="1.0" encoding="UTF-8" standalone="no"?>
<svg xmlns="http://www.w3.org/2000/svg" xmlns:xlink="http://www.w3.org/1999/xlink" viewBox="0 0 512.0 512.0">
  <g>
    <path d="M40 0h432a40 40 0 0 1 40 40v432a40 40 0 0 1-40 40H40a40 40 0 0 1-40-40V40A40 40 0 0 1 40 0z" fill="#6F6F6F"/>
    <path d="M40 15a25 25 0 0 0-25 25v432a25 25 0 0 0 25 25h432a25 25 0 0 0 25-25V40a25 25 0 0 0-25-25H40z" fill="#3D3D3D"/>
    <path d="M266.67 456h-88.3l6.17-60.56c7.1-58.1 20.87-110.07 41.41-156.07 15.34-34.35 34.87-68.02 58.57-101H111.66V60.53h280.48v65.13l-4.69 5.58c-41.65 49.54-69.5 93.03-83.66 130.13-14.4 37.77-24.9 83.95-31.4 138.5L266.67 456z" fill="#000000"/>
    <path d="M372.14 118.37V80.53H131.66v37.84h193.36c-34.18 42-61.11 85.05-80.8 129.15-19.7 44.11-32.97 94.16-39.8 150.15l-3.9 38.33h48.09l3.9-38.33c6.68-56.15 17.54-103.96 32.6-143.43 15.05-39.47 44.06-84.76 87.03-135.87z" fill="#B2B2B2"/>
  </g>
</svg>
