<?xml version="1.0" encoding="UTF-8" standalone="no"?>
<svg xmlns="http://www.w3.org/2000/svg" xmlns:xlink="http://www.w3.org/1999/xlink" viewBox="0 0 512.0 512.0">
  <g>
    <path d="M55 223.18h400v230.77H55z" fill="#000000"/>
    <path d="M301.15 241.64V435.5h-96.4V241.64h96.4zm16.41 0h118.98V435.5H317.56V241.64zm-129.23 0V435.5H73.46V241.64h114.87zm-57.95 140.51L88.85 420.1h83.07l-41.54-37.95zm248.21 0l-41.54 37.95h83.08l-41.54-37.95zm-124.1 0l-41.54 37.95h83.08l-41.54-37.95z" fill="#A15737"/>
    <path d="M57.05 298.05h395.9v65.64H57.05z" fill="#000000"/>
    <path d="M73.46 314.46v32.82h363.08v-32.82z" fill="#E06F3C"/>
    <path d="M55 187.33V56h400v131.33z" fill="#000000"/>
    <path d="M73.46 74.46v94.41h363.08V74.46z" fill="#A15737"/>
    <path d="M108.79 56.46h71.9v153.95h-71.9zM329.31 56.46h71.9v153.95h-71.9z" fill="#000000"/>
    <path d="M126.79 74.46v117.95h35.9V74.46zM347.31 74.46v117.95h35.9V74.46z" fill="#E06F3C"/>
  </g>
</svg>
