<?xml version="1.0" encoding="UTF-8" standalone="no"?>
<svg xmlns="http://www.w3.org/2000/svg" xmlns:xlink="http://www.w3.org/1999/xlink" viewBox="0 0 512.0 512.0">
  <g>
    <path d="M40 0h432a40 40 0 0 1 40 40v432a40 40 0 0 1-40 40H40a40 40 0 0 1-40-40V40A40 40 0 0 1 40 0z" fill="#6F6F6F"/>
    <path d="M40 15a25 25 0 0 0-25 25v432a25 25 0 0 0 25 25h432a25 25 0 0 0 25-25V40a25 25 0 0 0-25-25H40z" fill="#3D3D3D"/>
    <path d="M211.03 147.68l-72.75 0.97V75.78l160.85-17.55V456h-88.1z" fill="#000000"/>
    <path d="M279.13 436V80.53L158.28 93.71v34.67l72.75-0.97V436z" fill="#B2B2B2"/>
  </g>
</svg>
