<?xml version="1.0" encoding="UTF-8" standalone="no"?>
<svg xmlns="http://www.w3.org/2000/svg" xmlns:xlink="http://www.w3.org/1999/xlink" viewBox="0 0 512.0 512.0">
  <g>
    <path d="M226.27 126.99c7.56 38.72 12.73 86.12 10.21 185l-0.5 19.87H104.49l1.5-22.3C117.7 197.07 104.48 112.54 66.3 56c97.28 8.51 150.6 32.17 159.96 70.99z" fill="#000000"/>
    <path d="M61 308.52h212.2v72.15H61z" fill="#000000"/>
    <path d="M93.9 76.16c27.75 25.64 37.37 104.15 28.85 235.54h94.34c2.17-88.17 1-138.84-8.18-173.46-10.33-27.56-48.67-48.26-115.02-62.08z" fill="#D7D7D7"/>
    <path d="M139.51 363.69h57.3V456h-57.3z" fill="#000000"/>
    <path d="M158.61 379.61v56.23h21.22v-56.23zM75.85 327.62v31.83h181.44v-31.83z" fill="#C6A582"/>
  </g>
</svg>
