<?xml version="1.0" encoding="UTF-8" standalone="no"?>
<svg xmlns="http://www.w3.org/2000/svg" xmlns:xlink="http://www.w3.org/1999/xlink" viewBox="0 0 512.0 512.0">
  <g>
    <path d="M253.67 56h73.9v362.42a36.95 36.95 0 0 1-36.95 36.94H128.44a36.95 36.95 0 0 1-36.95-36.94V297.63a36.95 36.95 0 0 1 36.95-36.95h96.7c11.5 0 21.76 5.25 28.53 13.48V56z" fill="#000000"/>
    <path d="M268.45 396.25H150.61V319.8h52.36v16.35h-23.82v44.33h45.99a22.17 22.17 0 0 0 22.17-22.16v-60.69a22.17 22.17 0 0 0-22.17-22.17h-96.7a22.17 22.17 0 0 0-22.17 22.17v120.79a22.17 22.17 0 0 0 22.17 22.16h162.18a22.17 22.17 0 0 0 22.17-22.16V70.78h-44.34v325.47z" fill="#FFFFFF"/>
  </g>
</svg>
