<?xml version="1.0" encoding="UTF-8" standalone="no"?>
<svg xmlns="http://www.w3.org/2000/svg" xmlns:xlink="http://www.w3.org/1999/xlink" viewBox="0 0 512.0 512.0">
  <g>
    <path d="M164.14 381.79l53.99 67.68H110.15zM347.86 381.79l53.99 67.68H293.87z" fill="#000000"/>
    <path d="M256 381.79l53.99 67.68H202.01z" fill="#000000"/>
    <path d="M149.53 176.89L257.05 62l104.48 115v214.36h-212z" fill="#000000"/>
    <path d="M349 254H162.05v-40.02H349V254z" fill="#5B6482"/>
    <path d="M349 269.1v109.73H162.05V269.1zM349 198.12H162.05v-16.28l94.86-101.36L349 181.84z" fill="#91A6B7"/>
    <path d="M164.14 401.87l-27.97 35.08h55.95zM347.86 401.87l-27.98 35.08h55.95zM256 401.87l-27.97 35.08h55.94z" fill="#5B6482"/>
    <path d="M90.33 141.18L57.67 118.1a20.03 20.03 0 0 1 23.12-32.7l55.79 39.44a20.03 20.03 0 0 1 0 32.7l-32.66 23.1 32.66 23.08a20.03 20.03 0 0 1 0 32.7l-32.66 23.1 32.66 23.08a20.03 20.03 0 0 1 0 32.7l-32.66 23.1 32.66 23.09a20.03 20.03 0 0 1 0 32.7l-55.79 39.44a20.03 20.03 0 0 1-23.12-32.7l32.66-23.1-32.66-23.08a20.03 20.03 0 0 1 0-32.7l32.66-23.1-32.66-23.08a20.03 20.03 0 0 1 0-32.7l32.66-23.1-32.66-23.09a20.03 20.03 0 0 1 0-32.7l32.66-23.09zM408.08 338.73l-32.66-23.09a20.03 20.03 0 0 1 0-32.7l32.66-23.1-32.66-23.08a20.03 20.03 0 0 1 0-32.7l32.66-23.1-32.66-23.08a20.03 20.03 0 0 1 0-32.7l55.79-39.45a20.03 20.03 0 1 1 23.12 32.7l-32.66 23.1 32.66 23.08a20.03 20.03 0 0 1 0 32.7l-32.66 23.1 32.66 23.09a20.03 20.03 0 0 1 0 32.7l-32.66 23.1 32.66 23.08a20.03 20.03 0 0 1 0 32.7l-32.66 23.1 32.66 23.08a20.03 20.03 0 1 1-23.12 32.7l-55.79-39.43a20.03 20.03 0 0 1 0-32.7l32.66-23.1z" fill="#5B6482"/>
  </g>
</svg>
