<?xml version="1.0" encoding="UTF-8" standalone="no"?>
<svg xmlns="http://www.w3.org/2000/svg" xmlns:xlink="http://www.w3.org/1999/xlink" viewBox="0 0 512.0 512.0">
  <path d="M124 86h264.52v340l-132.26-39.67L124 426z" fill="#FFFFFF"/>
  <path d="M256.63 142l39 39-39 39-39-39 39-39zm0 204l-39-39 39-39 39 39-39 39zM319 282.86l-39-39 39-39 39 39-39 39zm-126 0l-39-39 39-39 39 39-39 39zm63-33.44l-64.38 64.38-5.42-5.42L250.58 244l-64.38-64.38 5.42-5.42L256 238.58l64.38-64.38 5.42 5.42L261.42 244l64.38 64.38-5.42 5.42L256 249.42z" fill="#66000000"/>
</svg>
